<svg width="328" height="70" viewBox="0 0 328 70" fill="none" xmlns="http://www.w3.org/2000/svg">
<path d="M46.494 66.8423C46.494 66.1047 46.002 65.3671 45.182 64.7218L6.478 36.6019L0 41.3039L38.048 68.9628C40.016 70.3457 43.214 70.3457 45.182 68.9628C46.002 68.3174 46.494 67.5799 46.494 66.8423Z" fill="#2C446F"/>
<path d="M48.216 66.7501L56.17 60.9417L70.93 50.247C72.488 49.1406 73.308 47.7577 73.308 46.2825C73.308 44.8074 72.488 43.4245 70.93 42.3181L46.904 24.8008V34.4814H35.178L55.432 49.2328L52.808 51.1689L27.962 33.0985L30.422 31.3467H44.116V21.3895L45.756 20.191L72.488 39.6444C74.866 41.3961 76.178 43.701 76.178 46.2825C76.178 46.3747 76.178 46.3747 76.178 46.4669L77.9 45.1762C81.262 42.7791 83.066 39.5522 83.066 36.1409C83.066 32.8219 81.262 29.595 77.9 27.1979L40.508 0L0 29.5028L46.166 63.0623C47.478 63.9842 48.216 65.275 48.216 66.7501Z" fill="#2C446F"/>
<path d="M131.774 37.9848L123.902 19.0846H115.948V44.2542H120.786V23.7866L129.478 44.2542H133.742L142.352 23.8788V44.2542H147.354V19.0846H139.646L131.774 37.9848Z" fill="#2C446F"/>
<path d="M162.852 24.893C154.324 24.893 151.29 30.056 151.29 34.8502C151.29 37.1551 152.11 44.7152 162.852 44.7152C166.706 44.7152 169.658 43.701 171.708 41.6727C173.43 39.921 174.332 37.6161 174.332 34.8502C174.332 30.056 171.298 24.893 162.852 24.893ZM169.658 34.8502C169.658 38.4459 167.198 40.4742 162.852 40.4742C156.702 40.4742 156.046 36.5097 156.046 34.8502C156.046 31.2546 158.588 29.134 162.852 29.134C167.116 29.134 169.658 31.2546 169.658 34.8502Z" fill="#2C446F"/>
<path d="M191.88 24.893C187.124 24.893 184.254 26.4604 182.778 29.9638L182.86 25.2618H178.186V44.2542H182.86V35.68C182.86 32.7297 184.828 29.2262 190.322 29.2262C194.668 29.2262 196.554 30.8858 196.554 34.4814V44.2542H201.228V33.2829C201.146 27.8433 197.866 24.893 191.88 24.893Z" fill="#2C446F"/>
<path d="M222.22 37.9849C221.892 39.8288 219.76 40.8429 216.234 40.8429C212.134 40.8429 209.92 39.2756 209.51 36.2331H226.484V34.4814C226.484 28.3964 222.712 24.9852 215.906 24.9852C209.018 24.9852 204.754 28.8574 204.754 35.0346C204.754 41.2117 208.936 44.7152 216.234 44.7152C220.99 44.7152 226.238 42.9634 226.484 38.077V37.8005H222.22V37.9849ZM222.22 32.8219H209.674C210.33 30.056 212.38 28.7652 216.152 28.7652C220.006 28.7652 222.22 30.2404 222.22 32.8219Z" fill="#2C446F"/>
<path d="M240.67 39.3678L233.29 25.2618H227.878L237.8 44.1621V44.2542H238.374C236.734 47.6655 235.75 48.2187 233.7 48.2187C232.306 48.2187 231.158 47.8499 230.994 47.7577L230.748 47.6655V51.8143L230.912 51.9065C231.486 52.0909 232.798 52.4597 234.274 52.4597C238.62 52.4597 240.506 50.0626 243.048 44.5308L251.986 25.2618H247.148L240.67 39.3678Z" fill="#2C446F"/>
<path d="M276.012 34.4815C276.012 37.3395 273.552 40.1976 267.976 40.1976C263.712 40.1976 259.202 37.9849 259.202 31.8078C259.202 26.5526 262.564 23.2335 267.976 23.2335C271.174 23.2335 275.93 24.8008 275.93 29.1341V29.5029H280.522V28.7653C280.522 23.8789 276.504 18.7159 267.73 18.7159C259.448 18.7159 254.036 23.8789 254.036 31.8078C254.036 34.8502 255.02 44.8074 267.894 44.8074C276.668 44.8074 280.604 39.7366 280.604 34.6658V34.0205H276.012V34.4815Z" fill="#2C446F"/>
<path d="M289.87 17.5173H285.196V44.2542H289.87V17.5173Z" fill="#2C446F"/>
<path d="M299.464 25.2618H294.79V44.2542H299.464V25.2618Z" fill="#2C446F"/>
<path d="M299.628 18.2549H294.708V23.0491H299.628V18.2549Z" fill="#2C446F"/>
<path d="M317.34 24.893C313.322 24.893 310.534 26.3682 309.222 29.134L309.304 25.2618H304.63V51.7221H309.304V44.0698C309.304 43.4245 309.222 42.1337 309.222 41.0274C310.698 43.5167 313.322 44.7152 317.504 44.7152C324.228 44.7152 328 41.0274 328 34.5736C328 28.4887 323.982 24.893 317.34 24.893ZM323.326 34.5736C323.326 38.5381 321.112 40.4742 316.684 40.4742C311.846 40.4742 309.304 37.9849 309.304 35.4956V35.1268C309.386 31.5311 312.338 29.134 316.684 29.134C320.866 29.134 323.326 31.1624 323.326 34.5736Z" fill="#2C446F"/>
</svg>
