<svg width="977" height="228" viewBox="0 0 977 228" fill="none" xmlns="http://www.w3.org/2000/svg">
<path d="M1.40339 110.899C16.3014 160.628 50.308 234.371 97.2674 225.746C149.674 216.12 179.818 136.767 191.85 97.1061H228.374L176.234 64.436C168.323 59.4163 156.129 55.9115 137.063 54.4884C105.534 54.4941 56.6399 58.1857 11.0075 85.4937C2.2971 90.7063 -1.50974 101.175 1.40339 110.899Z" fill="#E3C079"/>
<path d="M975.432 112.052C960.534 161.78 926.528 235.523 879.568 226.898C827.162 217.272 797.018 137.92 784.986 98.2584H748.462L800.602 65.5884C808.513 60.5687 820.707 57.0639 839.772 55.6407C871.302 55.6464 920.196 59.338 965.828 86.6461C974.539 91.8587 978.345 102.328 975.432 112.052Z" fill="#E3C079"/>
<path d="M495.769 7.1139C466.255 -10.467 444.911 12.8584 437.928 26.7187C415.327 82.3174 420.625 154.726 464.668 180.915C465.377 176.232 511.077 140.006 527.212 110.339C542.915 81.4643 538.762 76.7389 540.604 69.9773C537.956 56.3482 525.282 24.6948 495.769 7.1139Z" fill="#D59B24"/>
</svg>
