<svg width="1099" height="1857" viewBox="0 0 1099 1857" fill="none" xmlns="http://www.w3.org/2000/svg">
<g filter="url(#filter0_d_1_1278)">
<path d="M491.842 1545.78C498.316 1419.41 467.434 1302.49 472.47 1204.2L592.867 1187.31C601.465 1186.1 609.664 1182.91 616.817 1177.99L719.193 1107.58C737.408 1175.55 762.092 1253.14 821.212 1333.4C895.113 1433.71 992.76 1478.94 986.182 1607.31C980.92 1710 721.173 1743.21 611.408 1753.01C555.555 1754.17 485.679 1666.05 491.842 1545.78Z" fill="#F0E698"/>
<path d="M133.046 1155.34C121.447 1136.63 164.936 1088.64 188.131 1066.99L257.822 1118.74C221.063 1138.74 144.645 1174.05 133.046 1155.34Z" fill="#E3C079"/>
<path d="M330.519 1184.88C21.2849 1034.84 280.426 657.945 345.308 537.455C401.385 389.113 559.785 165.622 744.777 458.402C976.017 824.377 717.062 1372.43 330.519 1184.88Z" fill="#F1CE89"/>
<path d="M463.44 149.921C562.372 92.5133 575.083 104.482 631.555 122.007C652.839 127.05 680.839 143.101 692.178 150.495C744.413 191.404 754.699 224.104 754.521 336.308C754.373 429.809 765.033 486.631 773.055 512.041C774.649 515.681 776.125 519.521 777.445 523.561C776.159 520.95 774.66 517.124 773.055 512.041C760.585 483.574 740.851 467.309 731.603 462.401C731.108 508.841 718.912 537.972 712.875 546.732C705.578 510.138 687.708 490.44 679.686 485.165C632.592 498.229 616.156 550.059 613.824 574.34C610.426 521.904 574.575 489.878 557.074 480.419C536.967 488.199 511.994 541.617 501.412 567.335C500.657 570.637 499.723 573.666 498.583 576.339C494.47 585.981 496.187 580.036 501.412 567.335C507.246 541.813 502.346 499.982 498.712 480.222L451.18 544.579C450.806 482.415 402.837 441.916 378.899 429.437C397.44 413.487 407.869 361.964 401.023 347.442C391.16 255.073 438.723 169.967 463.44 149.921Z" fill="#F0E698"/>
<ellipse cx="21.9248" cy="27.34" rx="21.9248" ry="27.34" transform="matrix(0.701278 0.712888 -0.295849 0.955235 643.748 381.487)" fill="#4A5051"/>
<ellipse cx="21.9248" cy="27.34" rx="21.9248" ry="27.34" transform="matrix(0.701278 0.712888 -0.295849 0.955235 471.01 364.743)" fill="#4A5051"/>
</g>
<defs>
<filter id="filter0_d_1_1278" x="127.115" y="107.536" width="863.383" height="1653.48" filterUnits="userSpaceOnUse" color-interpolation-filters="sRGB">
<feFlood flood-opacity="0" result="BackgroundImageFix"/>
<feColorMatrix in="SourceAlpha" type="matrix" values="0 0 0 0 0 0 0 0 0 0 0 0 0 0 0 0 0 0 127 0" result="hardAlpha"/>
<feOffset dy="4"/>
<feGaussianBlur stdDeviation="2"/>
<feComposite in2="hardAlpha" operator="out"/>
<feColorMatrix type="matrix" values="0 0 0 0 0 0 0 0 0 0 0 0 0 0 0 0 0 0 0.25 0"/>
<feBlend mode="normal" in2="BackgroundImageFix" result="effect1_dropShadow_1_1278"/>
<feBlend mode="normal" in="SourceGraphic" in2="effect1_dropShadow_1_1278" result="shape"/>
</filter>
</defs>
</svg>
