<?xml version="1.0" encoding="utf-8"?>
<!-- Generator: Adobe Illustrator 25.2.1, SVG Export Plug-In . SVG Version: 6.00 Build 0)  -->
<svg version="1.1" id="Laurier_Computing_Society_1_"
	 xmlns="http://www.w3.org/2000/svg" xmlns:xlink="http://www.w3.org/1999/xlink" x="0px" y="0px" viewBox="0 0 880 880"
	 style="enable-background:new 0 0 880 880;" xml:space="preserve">
<style type="text/css">
	.st0{fill:#2C3844;}
	.st1{fill:url(#SVGID_1_);}
</style>
<g id="Laurier_Computing_Society">
	<g>
		<path class="st0" d="M119.74,790.3h-2.9v37.05h17.22v-3.03h-14.32V790.3z M146.39,790.3l-10.67,37.05h3.02l2.97-10.29h12.72
			l2.85,10.29h3.05l-10.52-37.05H146.39z M142.47,814.23l5.57-19.62l5.6,19.62H142.47z M185.94,814.26c0,3.7-0.77,6.37-2.31,8.02
			c-1.54,1.65-3.56,2.47-6.06,2.47c-2.53,0-4.57-0.82-6.12-2.47c-1.55-1.65-2.32-4.32-2.32-8.02V790.3h-2.9v23.97
			c0,3.1,0.47,5.66,1.42,7.69c0.95,2.03,2.28,3.54,3.99,4.54c1.71,1,3.69,1.5,5.94,1.5c2.25,0,4.22-0.5,5.91-1.5
			c1.69-1,3.01-2.51,3.95-4.54c0.94-2.03,1.41-4.59,1.41-7.69V790.3h-2.9V814.26z M216.9,808.82c1.72-1.99,2.59-4.57,2.59-7.75
			c0-3.2-0.86-5.79-2.59-7.78c-1.72-1.99-4.3-2.98-7.74-2.98h-10.42v37.05h2.9V811.8h6.08l8.65,15.54h3.72l-9.18-15.64
			C213.48,811.41,215.48,810.45,216.9,808.82z M201.64,809.22v-15.96h7.52c2.38,0,4.2,0.71,5.46,2.13c1.26,1.42,1.89,3.35,1.89,5.79
			c0,2.38-0.64,4.32-1.91,5.8c-1.27,1.49-3.14,2.23-5.59,2.23H201.64z M228.58,827.34h2.9V790.3h-2.9V827.34z M241.93,827.34h18.6
			v-3.03h-15.7v-14.22h14.8v-2.97h-14.8v-13.86h15.7v-2.97h-18.6V827.34z M287.64,808.82c1.72-1.99,2.59-4.57,2.59-7.75
			c0-3.2-0.86-5.79-2.59-7.78c-1.72-1.99-4.3-2.98-7.74-2.98h-10.42v37.05h2.9V811.8h6.08l8.65,15.54h3.72l-9.18-15.64
			C284.22,811.41,286.22,810.45,287.64,808.82z M272.38,809.22v-15.96h7.52c2.38,0,4.2,0.71,5.46,2.13
			c1.26,1.42,1.89,3.35,1.89,5.79c0,2.38-0.64,4.32-1.91,5.8c-1.27,1.49-3.14,2.23-5.59,2.23H272.38z M327.66,822.27
			c-1.61,1.72-3.75,2.58-6.41,2.58c-2.27,0-4.13-0.72-5.6-2.17c-1.47-1.45-2.55-3.41-3.26-5.88c-0.71-2.47-1.06-5.23-1.06-8.29
			c0-3.42,0.46-6.3,1.39-8.64c0.92-2.34,2.14-4.1,3.65-5.29c1.51-1.19,3.14-1.78,4.89-1.78c2.03,0,3.84,0.73,5.41,2.17
			c1.57,1.45,2.71,3.42,3.41,5.92l3.15-0.84c-0.85-3.06-2.27-5.55-4.26-7.47c-1.99-1.92-4.56-2.88-7.71-2.88
			c-2.43,0-4.64,0.72-6.61,2.16c-1.97,1.44-3.54,3.55-4.7,6.34c-1.16,2.79-1.74,6.22-1.74,10.3c0,3.76,0.52,7.1,1.56,10.03
			c1.04,2.93,2.54,5.24,4.49,6.93c1.95,1.69,4.28,2.53,7,2.53c2.33,0,4.41-0.51,6.22-1.53c1.82-1.02,3.24-2.47,4.27-4.35
			c1.03-1.88,1.55-4.12,1.55-6.72h-3.22C330.07,818.26,329.27,820.55,327.66,822.27z M358.02,791.81c-1.97-1.41-4.17-2.11-6.62-2.11
			c-2.47,0-4.68,0.7-6.65,2.1c-1.97,1.4-3.52,3.52-4.67,6.37c-1.15,2.85-1.72,6.43-1.72,10.75c0,4.26,0.57,7.8,1.72,10.63
			c1.15,2.83,2.71,4.94,4.67,6.34c1.97,1.4,4.18,2.1,6.65,2.1c2.45,0,4.66-0.69,6.62-2.08c1.97-1.39,3.52-3.49,4.67-6.31
			c1.15-2.82,1.72-6.38,1.72-10.68c0-4.3-0.57-7.87-1.72-10.72C361.54,795.35,359.98,793.22,358.02,791.81z M358.72,820.73
			c-1.78,2.67-4.22,4-7.32,4c-3.08,0-5.52-1.33-7.32-3.99c-1.8-2.66-2.7-6.6-2.7-11.82c0-5.18,0.9-9.16,2.7-11.94
			c1.8-2.78,4.24-4.17,7.32-4.17c3.1,0,5.54,1.39,7.32,4.15c1.78,2.77,2.67,6.73,2.67,11.89
			C361.39,814.1,360.5,818.06,358.72,820.73z M387.92,817.03l-11.45-26.74h-4.17v37.05h2.9v-32.68l11.75,27.7h1.97l11.6-27.44v32.42
			h2.95V790.3h-4.1L387.92,817.03z M423.31,790.3h-9.42v37.05h2.95v-14.7h6.47c3.35,0,5.88-1.01,7.6-3.04
			c1.72-2.03,2.57-4.71,2.57-8.05c0-3.38-0.86-6.1-2.57-8.16C429.19,791.33,426.66,790.3,423.31,790.3z M428.67,807.47
			c-1.22,1.43-3.01,2.14-5.36,2.14h-6.47v-16.35h6.47c2.35,0,4.14,0.74,5.36,2.22c1.22,1.48,1.84,3.5,1.84,6.06
			C430.51,804.06,429.9,806.04,428.67,807.47z M459.88,814.26c0,3.7-0.77,6.37-2.31,8.02c-1.54,1.65-3.56,2.47-6.06,2.47
			c-2.53,0-4.57-0.82-6.12-2.47c-1.55-1.65-2.32-4.32-2.32-8.02V790.3h-2.9v23.97c0,3.1,0.47,5.66,1.42,7.69
			c0.95,2.03,2.28,3.54,3.99,4.54c1.71,1,3.69,1.5,5.94,1.5c2.25,0,4.22-0.5,5.91-1.5c1.69-1,3.01-2.51,3.95-4.54
			c0.94-2.03,1.41-4.59,1.41-7.69V790.3h-2.9V814.26z M467.73,793.27h10.35v34.08h2.9v-34.08h10.42v-2.97h-23.67V793.27z
			 M496.93,827.34h2.9V790.3h-2.9V827.34z M530.3,822.34l-16.25-32.05h-3.75v37.05h2.9v-32.49l16.47,32.49h3.52V790.3h-2.9V822.34z
			 M549.86,794.86c1.72-1.32,3.6-1.98,5.61-1.98c1.45,0,2.85,0.37,4.2,1.12c1.35,0.75,2.66,1.96,3.92,3.61l2.52-1.5
			c-1.42-2.22-2.99-3.84-4.72-4.87c-1.73-1.03-3.68-1.54-5.85-1.54c-1.88,0-3.69,0.4-5.42,1.21c-1.73,0.81-3.28,2.03-4.64,3.66
			c-1.36,1.63-2.43,3.67-3.21,6.13c-0.78,2.46-1.17,5.34-1.17,8.64c0,3.86,0.6,7.18,1.79,9.97c1.19,2.79,2.8,4.93,4.81,6.43
			c2.02,1.5,4.23,2.25,6.65,2.25c2.32,0,4.18-0.64,5.59-1.93c1.39-1.27,2.39-3.06,3.03-5.37l0.46,6.64h2.25v-18H554.6v2.52l8.2,0.36
			v0.06c0,2.88-0.36,5.24-1.09,7.08c-0.72,1.84-1.72,3.2-2.97,4.08c-1.26,0.88-2.68,1.32-4.26,1.32c-2.15,0-4-0.67-5.54-2.01
			c-1.54-1.34-2.72-3.17-3.55-5.49c-0.82-2.32-1.24-4.96-1.24-7.92c0-3.42,0.52-6.36,1.56-8.82
			C546.75,798.06,548.14,796.17,549.86,794.86z M599.89,807.81l-6.2-2.4c-1.68-0.68-2.92-1.46-3.7-2.35
			c-0.78-0.89-1.17-2.1-1.17-3.64c0-1.9,0.62-3.46,1.86-4.69c1.24-1.23,3-1.84,5.26-1.84c2.1,0,3.75,0.49,4.94,1.48
			c1.19,0.99,1.92,2.4,2.19,4.24h2.87c-0.27-2.66-1.25-4.81-2.96-6.45c-1.71-1.64-4.05-2.46-7.04-2.46c-3.32,0-5.86,0.89-7.62,2.67
			c-1.77,1.78-2.65,4.07-2.65,6.87c0,2.52,0.67,4.47,2,5.85c1.33,1.38,3.32,2.62,5.97,3.72l5.12,1.98c1.68,0.62,2.97,1.48,3.86,2.59
			c0.89,1.11,1.34,2.55,1.34,4.3c0,1.22-0.32,2.37-0.96,3.45c-0.64,1.08-1.56,1.95-2.76,2.62c-1.2,0.67-2.64,1-4.32,1
			c-1.47,0-2.83-0.29-4.09-0.88c-1.26-0.59-2.27-1.49-3.04-2.71c-0.77-1.22-1.15-2.77-1.15-4.65h-2.8c0,2.46,0.51,4.54,1.52,6.25
			c1.02,1.71,2.37,3.01,4.05,3.9c1.68,0.89,3.53,1.33,5.55,1.33c2.43,0,4.47-0.49,6.12-1.45c1.65-0.97,2.9-2.24,3.75-3.82
			c0.85-1.58,1.27-3.28,1.27-5.1c0-2.6-0.66-4.68-1.99-6.25C603.81,809.8,602.06,808.61,599.89,807.81z M633.01,791.81
			c-1.97-1.41-4.17-2.11-6.62-2.11c-2.47,0-4.68,0.7-6.65,2.1c-1.97,1.4-3.52,3.52-4.67,6.37c-1.15,2.85-1.72,6.43-1.72,10.75
			c0,4.26,0.57,7.8,1.72,10.63c1.15,2.83,2.71,4.94,4.67,6.34c1.97,1.4,4.18,2.1,6.65,2.1c2.45,0,4.66-0.69,6.62-2.08
			c1.97-1.39,3.52-3.49,4.67-6.31s1.72-6.38,1.72-10.68c0-4.3-0.57-7.87-1.72-10.72S634.98,793.22,633.01,791.81z M633.71,820.73
			c-1.78,2.67-4.22,4-7.32,4c-3.08,0-5.52-1.33-7.32-3.99c-1.8-2.66-2.7-6.6-2.7-11.82c0-5.18,0.9-9.16,2.7-11.94
			c1.8-2.78,4.24-4.17,7.32-4.17c3.1,0,5.54,1.39,7.32,4.15c1.78,2.77,2.67,6.73,2.67,11.89
			C636.39,814.1,635.5,818.06,633.71,820.73z M664.15,822.27c-1.61,1.72-3.75,2.58-6.41,2.58c-2.27,0-4.13-0.72-5.6-2.17
			c-1.47-1.45-2.55-3.41-3.26-5.88c-0.71-2.47-1.06-5.23-1.06-8.29c0-3.42,0.46-6.3,1.39-8.64c0.92-2.34,2.14-4.1,3.65-5.29
			c1.51-1.19,3.14-1.78,4.89-1.78c2.03,0,3.84,0.73,5.41,2.17c1.57,1.45,2.71,3.42,3.41,5.92l3.15-0.84
			c-0.85-3.06-2.27-5.55-4.26-7.47c-1.99-1.92-4.56-2.88-7.71-2.88c-2.43,0-4.64,0.72-6.61,2.16s-3.54,3.55-4.7,6.34
			c-1.16,2.79-1.74,6.22-1.74,10.3c0,3.76,0.52,7.1,1.56,10.03c1.04,2.93,2.54,5.24,4.49,6.93c1.95,1.69,4.28,2.53,7,2.53
			c2.33,0,4.41-0.51,6.22-1.53c1.82-1.02,3.24-2.47,4.27-4.35c1.03-1.88,1.55-4.12,1.55-6.72h-3.22
			C666.56,818.26,665.76,820.55,664.15,822.27z M677.44,827.34h2.9V790.3h-2.9V827.34z M690.78,827.34h18.6v-3.03h-15.7v-14.22h14.8
			v-2.97h-14.8v-13.86h15.7v-2.97h-18.6V827.34z M713.38,793.27h10.35v34.08h2.9v-34.08h10.42v-2.97h-23.67V793.27z M759.78,790.3
			l-9.23,18.17l-9.16-18.17h-3.55l11.22,21.87v15.18h2.97v-15.18l11.25-21.87H759.78z"/>
	</g>
</g>
<g id="LCS">
	<g>
		<linearGradient id="SVGID_1_" gradientUnits="userSpaceOnUse" x1="440.0602" y1="698.4636" x2="440.0602" y2="141.5364">
			<stop  offset="0" style="stop-color:#89F7FE"/>
			<stop  offset="1" style="stop-color:#6CB3FF"/>
		</linearGradient>
		<path class="st1" d="M614.52,581.59c-11.88-10.94-27.16-18.87-45.87-23.76l-52.32-15.12c-4.27-1.32-8.24-2.71-11.9-4.17
			c3.77-3.78,7.19-7.9,10.23-12.38c8.96-13.18,13.44-28.7,13.44-46.55h-18.64c0,21.16-6.8,38.27-20.39,51.32
			c-3.27-2.05-6.09-4.21-8.47-6.47c-7.5-7.13-11.24-16.74-11.24-28.84c0-15.26,5.93-27.87,17.81-37.81
			c11.87-9.94,28.87-14.91,50.99-14.91c19.44,0,34.88,3.64,46.31,10.91c11.43,7.27,18.33,17.97,20.71,32.08h16.48
			c-2.38-16.71-10.73-30.49-25.05-41.37c-14.33-10.87-33.81-16.31-58.45-16.31c-28.2,0-49.69,6.19-64.46,18.58
			c-14.77,12.39-22.15,28.23-22.15,47.53c0,17.57,5.93,31.11,17.81,40.61c2.3,1.84,4.83,3.64,7.58,5.41
			c-13.79,8.61-30.62,12.93-50.48,12.93c-21.67,0-39.34-5.65-52.99-16.96c-13.65-11.3-23.7-26.32-30.12-45.04
			c-6.43-18.72-9.64-39.39-9.64-62c0-9.07,0.56-17.62,1.67-25.68h59.61v-13.83H337.9c2.15-9.1,5.11-17.47,8.9-25.08
			c8.74-17.57,20.16-30.89,34.24-39.97c14.09-9.07,29.22-13.61,45.4-13.61c18.64,0,35.47,5.48,50.5,16.42
			c15.03,10.95,25.86,26,32.51,45.15l17.77-4.75c-8.24-20.88-20.77-37.88-37.6-50.98c-16.83-13.1-37.89-19.66-63.18-19.66
			c-20.23,0-38.69,5.08-55.37,15.23c-16.69,10.15-29.98,25.03-39.88,44.61c-4.94,9.77-8.64,20.65-11.12,32.65h-55.81V141.54h-16.48
			v262.05h70.04c-0.99,8.12-1.48,16.68-1.48,25.68c0,25.78,4.33,49.11,13,69.99c8.67,20.88,21.2,37.48,37.6,49.8
			c16.4,12.31,36.23,18.47,59.49,18.47c19.21,0,36.48-3.6,51.8-10.8c5-2.35,9.65-5.02,13.97-8.01c8.87,4.2,19.21,8.18,31.01,11.92
			l41.86,11.45c15.59,4.47,27.72,11.2,36.4,20.2c8.68,9,13.03,20.34,13.03,34.02c0,9.51-3.01,18.62-9.02,27.33
			c-6.01,8.72-14.77,15.84-26.27,21.39c-11.5,5.55-25.49,8.32-41.97,8.32c-13.8,0-26.65-2.27-38.52-6.8
			c-11.88-4.54-21.45-11.52-28.72-20.96c-7.27-9.43-10.91-21.42-10.91-35.97h-15.59c-0.15,16.42,4.04,30.5,12.58,42.23
			c8.53,11.74,19.96,20.78,34.29,27.11c14.32,6.34,30.09,9.51,47.31,9.51c20.78,0,38.18-3.53,52.21-10.59
			c14.03-7.05,24.6-16.09,31.73-27.11c7.12-11.02,10.69-22.5,10.69-34.46C632.33,607.44,626.39,592.54,614.52,581.59z"/>
	</g>
</g>
</svg>
