<svg width="52" height="60" viewBox="0 0 52 60" fill="none" xmlns="http://www.w3.org/2000/svg">
<path d="M42.2727 20.1136L50.7954 15L51.1363 45L42.2727 39.776V20.1136Z" fill="#0A6972"/>
<path d="M17.0455 5.11364L25.5682 0V30L17.0455 34.4318V5.11364Z" fill="#0FA3B1"/>
<path d="M0 14.6591L8.52273 9.54544V39.5454L0 43.9773V14.6591Z" fill="#0FA3B1"/>
<path d="M25.5682 0L50.7954 15L42.2727 20.1136L25.5682 10.2273V0Z" fill="#2F4858"/>
<path d="M8.18182 39.5455L34.4318 54.8864L26.25 60L0 43.9773L8.18182 39.5455Z" fill="#2F4858"/>
<path d="M25.5682 30L51.1364 45L43.9773 50.4545L17.0455 34.4318L25.5682 30Z" fill="#2F4858"/>
<path d="M8.18182 19.7727L17.0455 14.6591V25.2273L8.18182 30.3409V19.7727Z" fill="#0FA3B1"/>
<path d="M25.5681 10.2273L33.4091 14.6591L25.5325 20.126L25.5681 10.2273Z" fill="#2F4858"/>
<path d="M25.5326 20.6138L33.4091 24.8864L25.5326 30L25.5326 20.6138Z" fill="#2F4858"/>
<path d="M34.4318 54.8864L24.5454 49.0909L32.7272 43.6364L34.0909 44.6591L34.4318 54.8864Z" fill="#0A6972"/>
<path d="M33.75 34.7727L25.5682 30L33.4091 24.8864L33.4091 27.9545L33.75 34.7727Z" fill="#0A6972"/>
<path d="M42.2727 39.8976L34.0909 35.1249L42.2727 30L42.2727 33.0682L42.2727 39.8976Z" fill="#0A6972"/>
<path d="M8.48709 9.54653L16.3636 15L8.52272 19.7727L8.48709 9.54653Z" fill="#2F4858"/>
<path d="M16.7045 44.6591L24.5454 38.8636L33.0682 43.6364L24.5454 49.0909L16.7045 44.6591Z" fill="#2F4858"/>
</svg>
