<svg width="50" height="50" viewBox="0 0 50 50" fill="none" xmlns="http://www.w3.org/2000/svg">
<path d="M43.6719 5.3374H6.54688C6.13662 5.3374 5.74316 5.54812 5.45307 5.92319C5.16297 6.29826 5 6.80697 5 7.3374V41.3374C5 42.3983 5.32595 43.4157 5.90614 44.1658C6.48633 44.916 7.27324 45.3374 8.09375 45.3374H42.125C42.9455 45.3374 43.7324 44.916 44.3126 44.1658C44.8928 43.4157 45.2188 42.3983 45.2188 41.3374V7.3374C45.2188 6.80697 45.0558 6.29826 44.7657 5.92319C44.4756 5.54812 44.0821 5.3374 43.6719 5.3374ZM39.6945 9.3374L25.3133 22.3687L10.5243 9.3374H39.6945ZM42.125 41.3374H8.09375V11.8849L24.2672 26.5562C24.5526 26.8949 24.9259 27.0828 25.3133 27.0828C25.7007 27.0828 26.074 26.8949 26.3594 26.5562L42.125 11.8849V41.3374Z" fill="#2B6469"/>
</svg>
