<svg width="50" height="50" viewBox="0 0 50 50" fill="none" xmlns="http://www.w3.org/2000/svg">
<path d="M24.75 4.97803C20.7728 4.97803 16.8848 6.15742 13.5778 8.36707C10.2709 10.5767 7.6934 13.7174 6.17137 17.3919C4.64934 21.0664 4.25111 25.1097 5.02703 29.0105C5.80295 32.9114 7.71819 36.4945 10.5305 39.3069C13.3429 42.1192 16.926 44.0345 20.8269 44.8104C24.7277 45.5863 28.771 45.1881 32.4455 43.666C36.12 42.144 39.2607 39.5665 41.4703 36.2596C43.68 32.9526 44.8594 29.0647 44.8594 25.0874C44.8538 19.7558 42.7333 14.6442 38.9633 10.8741C35.1932 7.10413 30.0816 4.98366 24.75 4.97803ZM26.2969 42.0315V29.728H30.9375C31.3478 29.728 31.7412 29.5651 32.0313 29.275C32.3214 28.9849 32.4844 28.5914 32.4844 28.1812C32.4844 27.7709 32.3214 27.3774 32.0313 27.0873C31.7412 26.7973 31.3478 26.6343 30.9375 26.6343H26.2969V21.9937C26.2969 21.1731 26.6228 20.3862 27.203 19.806C27.7832 19.2259 28.5701 18.8999 29.3906 18.8999H32.4844C32.8946 18.8999 33.2881 18.7369 33.5782 18.4468C33.8683 18.1567 34.0313 17.7633 34.0313 17.353C34.0313 16.9428 33.8683 16.5493 33.5782 16.2592C33.2881 15.9691 32.8946 15.8062 32.4844 15.8062H29.3906C27.7496 15.8062 26.1758 16.458 25.0154 17.6184C23.855 18.7788 23.2031 20.3526 23.2031 21.9937V26.6343H18.5625C18.1523 26.6343 17.7588 26.7973 17.4687 27.0873C17.1786 27.3774 17.0156 27.7709 17.0156 28.1812C17.0156 28.5914 17.1786 28.9849 17.4687 29.275C17.7588 29.5651 18.1523 29.728 18.5625 29.728H23.2031V42.0315C18.8425 41.6334 14.8031 39.5696 11.9253 36.2693C9.04751 32.969 7.55277 28.6863 7.75201 24.3121C7.95125 19.9378 9.82914 15.8088 12.9951 12.7838C16.161 9.75876 20.3712 8.07069 24.75 8.07069C29.1288 8.07069 33.339 9.75876 36.505 12.7838C39.6709 15.8088 41.5488 19.9378 41.748 24.3121C41.9473 28.6863 40.4525 32.969 37.5747 36.2693C34.6969 39.5696 30.6575 41.6334 26.2969 42.0315Z" fill="#2B6469"/>
</svg>
