<svg width="50" height="50" viewBox="0 0 50 50" fill="none" xmlns="http://www.w3.org/2000/svg">
<path d="M25.25 15.8062C23.4143 15.8062 21.6199 16.3505 20.0936 17.3703C18.5673 18.3902 17.3777 19.8397 16.6752 21.5356C15.9728 23.2315 15.789 25.0977 16.1471 26.8981C16.5052 28.6985 17.3892 30.3522 18.6872 31.6502C19.9852 32.9482 21.6389 33.8322 23.4393 34.1903C25.2397 34.5484 27.1059 34.3646 28.8018 33.6622C30.4977 32.9597 31.9472 31.7701 32.9671 30.2438C33.9869 28.7175 34.5312 26.9231 34.5312 25.0874C34.5287 22.6266 33.55 20.2674 31.81 18.5274C30.07 16.7874 27.7108 15.8087 25.25 15.8062ZM25.25 31.2749C24.0262 31.2749 22.8299 30.912 21.8124 30.2321C20.7949 29.5522 20.0018 28.5859 19.5335 27.4553C19.0652 26.3246 18.9426 25.0805 19.1814 23.8803C19.4201 22.68 20.0094 21.5775 20.8748 20.7122C21.7401 19.8468 22.8426 19.2575 24.0429 19.0188C25.2431 18.78 26.4872 18.9026 27.6179 19.3709C28.7485 19.8392 29.7148 20.6323 30.3947 21.6498C31.0746 22.6673 31.4375 23.8636 31.4375 25.0874C31.4375 26.7284 30.7856 28.3022 29.6252 29.4626C28.4648 30.623 26.891 31.2749 25.25 31.2749ZM34.5312 4.97803H15.9688C13.0979 4.9811 10.3455 6.1229 8.3155 8.1529C6.2855 10.1829 5.1437 12.9353 5.14062 15.8062V34.3687C5.1437 37.2395 6.2855 39.9919 8.3155 42.0219C10.3455 44.0519 13.0979 45.1937 15.9688 45.1968H34.5312C37.4021 45.1937 40.1545 44.0519 42.1845 42.0219C44.2145 39.9919 45.3563 37.2395 45.3594 34.3687V15.8062C45.3563 12.9353 44.2145 10.1829 42.1845 8.1529C40.1545 6.1229 37.4021 4.9811 34.5312 4.97803ZM42.2656 34.3687C42.2656 36.4199 41.4508 38.3872 40.0003 39.8377C38.5498 41.2882 36.5825 42.103 34.5312 42.103H15.9688C13.9175 42.103 11.9502 41.2882 10.4997 39.8377C9.04924 38.3872 8.23438 36.4199 8.23438 34.3687V15.8062C8.23438 13.7549 9.04924 11.7876 10.4997 10.3371C11.9502 8.88665 13.9175 8.07178 15.9688 8.07178H34.5312C36.5825 8.07178 38.5498 8.88665 40.0003 10.3371C41.4508 11.7876 42.2656 13.7549 42.2656 15.8062V34.3687ZM37.625 15.0327C37.625 15.4916 37.4889 15.9402 37.234 16.3218C36.979 16.7034 36.6166 17.0008 36.1926 17.1764C35.7686 17.352 35.3021 17.398 34.852 17.3084C34.4019 17.2189 33.9885 16.9979 33.664 16.6734C33.3395 16.3489 33.1185 15.9355 33.029 15.4854C32.9394 15.0353 32.9854 14.5688 33.161 14.1448C33.3366 13.7208 33.634 13.3584 34.0156 13.1034C34.3972 12.8485 34.8458 12.7124 35.3047 12.7124C35.9201 12.7124 36.5103 12.9569 36.9454 13.392C37.3805 13.8271 37.625 14.4173 37.625 15.0327Z" fill="#2B6469"/>
</svg>
