<svg width="51" height="50" viewBox="0 0 51 50" fill="none" xmlns="http://www.w3.org/2000/svg">
<path d="M42.5156 4.97803H8.48438C7.66386 4.97803 6.87695 5.30397 6.29676 5.88417C5.71657 6.46436 5.39063 7.25126 5.39062 8.07178V42.103C5.39063 42.9235 5.71657 43.7104 6.29676 44.2906C6.87695 44.8708 7.66386 45.1968 8.48438 45.1968H42.5156C43.3361 45.1968 44.123 44.8708 44.7032 44.2906C45.2834 43.7104 45.6094 42.9235 45.6094 42.103V8.07178C45.6094 7.25126 45.2834 6.46436 44.7032 5.88417C44.123 5.30397 43.3361 4.97803 42.5156 4.97803ZM42.5156 42.103H8.48438V8.07178H42.5156V42.103ZM19.3125 21.9937V34.3687C19.3125 34.7789 19.1495 35.1724 18.8594 35.4625C18.5693 35.7526 18.1759 35.9155 17.7656 35.9155C17.3554 35.9155 16.9619 35.7526 16.6718 35.4625C16.3817 35.1724 16.2188 34.7789 16.2188 34.3687V21.9937C16.2188 21.5834 16.3817 21.1899 16.6718 20.8998C16.9619 20.6098 17.3554 20.4468 17.7656 20.4468C18.1759 20.4468 18.5693 20.6098 18.8594 20.8998C19.1495 21.1899 19.3125 21.5834 19.3125 21.9937ZM36.3281 27.4077V34.3687C36.3281 34.7789 36.1652 35.1724 35.8751 35.4625C35.585 35.7526 35.1915 35.9155 34.7812 35.9155C34.371 35.9155 33.9775 35.7526 33.6874 35.4625C33.3973 35.1724 33.2344 34.7789 33.2344 34.3687V27.4077C33.2344 26.3821 32.8269 25.3984 32.1017 24.6732C31.3765 23.948 30.3928 23.5405 29.3672 23.5405C28.3415 23.5405 27.3579 23.948 26.6327 24.6732C25.9074 25.3984 25.5 26.3821 25.5 27.4077V34.3687C25.5 34.7789 25.337 35.1724 25.0469 35.4625C24.7568 35.7526 24.3634 35.9155 23.9531 35.9155C23.5429 35.9155 23.1494 35.7526 22.8593 35.4625C22.5692 35.1724 22.4062 34.7789 22.4062 34.3687V21.9937C22.4082 21.6148 22.5491 21.2497 22.8023 20.9678C23.0555 20.686 23.4033 20.5068 23.7798 20.4643C24.1563 20.4219 24.5353 20.5191 24.8449 20.7376C25.1545 20.956 25.3732 21.2805 25.4594 21.6495C26.5058 20.9396 27.7259 20.5282 28.9885 20.4594C30.2511 20.3906 31.5086 20.667 32.626 21.259C33.7434 21.851 34.6784 22.7361 35.3306 23.8194C35.9829 24.9027 36.3277 26.1432 36.3281 27.4077ZM20.0859 16.5796C20.0859 17.0385 19.9499 17.4871 19.6949 17.8687C19.4399 18.2503 19.0776 18.5477 18.6536 18.7233C18.2296 18.8989 17.7631 18.9448 17.313 18.8553C16.8629 18.7658 16.4494 18.5448 16.1249 18.2203C15.8004 17.8958 15.5794 17.4824 15.4899 17.0323C15.4004 16.5822 15.4463 16.1156 15.6219 15.6916C15.7976 15.2677 16.095 14.9053 16.4765 14.6503C16.8581 14.3954 17.3067 14.2593 17.7656 14.2593C18.381 14.2593 18.9712 14.5037 19.4063 14.9389C19.8415 15.374 20.0859 15.9642 20.0859 16.5796Z" fill="#2B6469"/>
</svg>
