<svg width="50" height="50" viewBox="0 0 50 50" fill="none" xmlns="http://www.w3.org/2000/svg">
<path d="M48.0852 13.6674C47.9682 13.3847 47.77 13.1431 47.5156 12.9731C47.2613 12.8031 46.9622 12.7123 46.6563 12.7122H40.7723C39.9497 11.3126 38.7789 10.1497 37.3738 9.33655C35.9687 8.52337 34.3771 8.08759 32.7537 8.07158C31.5443 8.05572 30.3439 8.28191 29.2232 8.73684C28.1025 9.19177 27.084 9.86625 26.2278 10.7206C25.3467 11.5854 24.6472 12.6176 24.1707 13.7565C23.6942 14.8955 23.4503 16.1182 23.4531 17.3528V18.5304C15.6685 16.4769 9.30117 10.1444 9.23349 10.0767C9.02596 9.86735 8.76293 9.72164 8.47536 9.65675C8.1878 9.59187 7.88768 9.6105 7.61035 9.71046C7.33302 9.81042 7.09003 9.98755 6.90999 10.221C6.72995 10.4544 6.62037 10.7344 6.59414 11.028C5.76076 20.2687 8.44458 26.4523 10.848 30.0121C12.02 31.7718 13.4456 33.3486 15.0787 34.6914C12.1339 38.081 7.49712 39.8618 7.44685 39.8811C7.22857 39.9629 7.0316 40.0929 6.87063 40.2615C6.70967 40.4301 6.58888 40.6328 6.5173 40.8547C6.44571 41.0765 6.42518 41.3116 6.45724 41.5425C6.48929 41.7733 6.57311 41.994 6.70242 42.1879C6.84744 42.4045 7.42751 43.1644 8.84484 43.874C10.5967 44.7519 12.9112 45.1966 15.7188 45.1966C29.3835 45.1966 40.8013 34.674 41.9673 21.1349L47.7507 15.3535C47.9669 15.137 48.1142 14.8613 48.1737 14.5612C48.2332 14.2611 48.2024 13.95 48.0852 13.6674ZM39.384 19.3541C39.1188 19.62 38.9594 19.9732 38.9354 20.348C38.1485 32.547 27.9545 42.1028 15.7188 42.1028C13.6769 42.1028 12.2383 41.8321 11.229 41.5073C13.4545 40.2988 16.5579 38.2202 18.5534 35.227C18.6705 35.051 18.7503 34.8528 18.7879 34.6448C18.8254 34.4367 18.8199 34.2232 18.7717 34.0174C18.7235 33.8115 18.6337 33.6177 18.5076 33.448C18.3816 33.2782 18.2222 33.1361 18.0391 33.0304C17.9482 32.9782 9.54867 27.9373 9.53126 14.4679C12.625 16.9816 18.2808 20.8816 24.7428 21.9683C24.9643 22.0057 25.1913 21.9943 25.4079 21.9351C25.6246 21.8759 25.8257 21.7702 25.9974 21.6254C26.1691 21.4806 26.3072 21.3001 26.402 21.0965C26.4969 20.893 26.5464 20.6712 26.5469 20.4466V17.3528C26.5452 16.5277 26.7085 15.7105 27.0273 14.9494C27.3461 14.1883 27.8139 13.4986 28.4031 12.921C28.9681 12.3551 29.6407 11.9081 30.3813 11.6065C31.1219 11.305 31.9155 11.155 32.7151 11.1653C35.163 11.1963 37.4504 12.689 38.4076 14.8798C38.5282 15.1552 38.7265 15.3895 38.9782 15.554C39.23 15.7185 39.5242 15.806 39.8249 15.806H42.9186L39.384 19.3541Z" fill="#2B6469"/>
</svg>
