<svg width="702" height="1012" viewBox="0 0 702 1012" fill="none" xmlns="http://www.w3.org/2000/svg">
<mask id="mask0_332_1625" style="mask-type:alpha" maskUnits="userSpaceOnUse" x="261" y="841" width="174" height="101">
<rect width="100" height="100" transform="matrix(0.866025 0.5 -0.866025 0.5 348.385 841.946)" fill="#D9D9D9"/>
</mask>
<g mask="url(#mask0_332_1625)">
<rect width="100" height="70" transform="matrix(0.866025 0.5 0 1 348.385 841.946)" fill="#614124"/>
<rect width="100" height="70" transform="matrix(0.866025 -0.5 0 1 261.783 891.946)" fill="#4B321B"/>
<rect width="100" height="100" transform="matrix(0.866025 0.5 -0.866025 0.5 348.385 911.946)" fill="#666666"/>
</g>
<path d="M344.656 885.431C350.547 892.807 356.989 887.998 359.474 884.672C375.086 873.087 337.466 834.783 331.24 820.824C326.26 809.658 322.69 820.363 321.528 827.112C318.964 851.125 335.879 875.997 344.656 885.431Z" fill="#E3C079"/>
<path d="M381.146 975.587C429.624 970.836 413.694 908.003 410.99 888.799C410.824 866.325 400.749 828.834 361.773 858.663C313.053 895.951 320.548 981.526 381.146 975.587Z" fill="#F1CE89"/>
<path d="M413.953 830.471C403.623 817.979 401.345 818.946 392.978 818.501C389.9 818.126 385.39 818.883 383.519 819.309C374.566 822.181 371.592 826.022 366.102 840.946C361.528 853.382 357.319 860.412 355.004 863.396C354.614 863.801 354.229 864.239 353.855 864.711C354.154 864.427 354.541 863.992 355.004 863.396C358.061 860.224 361.483 859.032 362.954 858.834C360.738 865.031 360.928 869.503 361.3 870.964C364.068 866.458 367.411 864.717 368.737 864.41C374.355 868.461 373.993 876.158 373.11 879.5C376.138 872.697 382.477 870.201 385.268 869.804C387.559 871.826 388.254 880.154 388.397 884.092C388.335 884.568 388.311 885.017 388.331 885.428C388.404 886.912 388.468 886.037 388.397 884.092C388.875 880.413 391.582 875.093 393.036 872.645L396.192 883.536C399.296 875.29 407.663 872.264 411.458 871.781C409.777 868.75 410.922 861.389 412.546 859.795C418.395 848.001 416.254 834.351 413.953 830.471Z" fill="#F0E698"/>
<ellipse cx="3.10715" cy="3.8746" rx="3.10715" ry="3.8746" transform="matrix(-0.904937 0.425546 -0.0536733 0.998559 383.397 840.744)" fill="#4A5051"/>
<ellipse cx="3.10715" cy="3.8746" rx="3.10715" ry="3.8746" transform="matrix(-0.904937 0.425546 -0.0536733 0.998559 405.545 844.571)" fill="#4A5051"/>
<path d="M388.16 846.811C392.348 844.328 395.366 847.64 396.352 849.606C399.539 857.492 393.237 864.787 386.988 868.486C386.889 867.822 385.953 865.64 383.675 861.431C381.458 857.335 382.048 856.666 381.789 855.708C382.168 853.777 383.973 849.294 388.16 846.811Z" fill="#D59B24"/>
<path d="M472.098 715.036L421.975 888.204L427.871 891.946L478.129 715.036H472.098Z" fill="#303030"/>
<path d="M217.527 715.441L267.65 888.609L261.755 892.351L211.496 715.441H217.527Z" fill="#303030"/>
<path d="M352.391 767.561L352.24 947.837L345.535 949.787L346.6 765.879L352.391 767.561Z" fill="#303030"/>
<path d="M362.265 1000.45H334.178L344.832 975.145L358.633 977.869L362.265 1000.45Z" fill="#614124"/>
<path d="M261.783 891.946L348.385 941.946V981.946C348.385 998.514 336.753 1005.23 322.404 996.946L305.084 986.946C281.169 973.138 261.783 939.56 261.783 911.946V891.946Z" fill="#704E2E"/>
<path d="M348.385 941.946L434.988 891.946V911.946C434.988 939.56 415.601 973.138 391.686 986.946L374.366 996.946C360.017 1005.23 348.385 998.514 348.385 981.946V941.946Z" fill="#4B321B"/>
<path d="M404.421 897.024C397.707 887.01 399.1 891.923 397.068 883.655C394.57 873.489 401.421 873.021 405.706 873.478C429.972 876.86 430.788 892.345 433.437 899.232C447.624 916.97 417.712 941.759 399.881 947.606C392.518 950.257 378.302 953.473 380.347 945.134C382.391 936.795 397.346 919.259 405.005 913.948C408.34 911.735 410.538 906.149 404.421 897.024Z" fill="#E3C079"/>
<mask id="mask1_332_1625" style="mask-type:alpha" maskUnits="userSpaceOnUse" x="0" y="0" width="702" height="766">
<path d="M698.199 231.65C729.167 371.625 561.144 605.949 472.907 719.703C470.849 722.358 469.113 725.126 467.61 728.131C462.671 738.009 454.73 746.218 444.44 750.23C364.611 781.349 266.679 759.349 225.479 743.351C201.684 668.794 117.029 552.309 73.9782 499.081C20.6717 414.107 -45.1676 233.722 43.4589 123.039C148.024 -7.54916 277.091 0.0835871 358.021 0.0836216C438.951 0.0836216 646.967 0.0836182 698.199 231.65Z" fill="#E1657B"/>
</mask>
<g mask="url(#mask1_332_1625)">
<path d="M698.199 231.65C728.983 370.795 563.132 603.171 474.487 717.666C471.378 721.68 468.726 725.901 466.455 730.442C462.189 738.974 459.547 748.224 458.662 757.722L456.49 781.049L448.046 800.267L400.306 825.463C348.667 834.903 242.444 835.863 230.662 764.19C218.881 692.517 121.297 557.587 73.9782 499.081C20.6717 414.107 -45.1676 233.722 43.4589 123.039C148.024 -7.54916 277.091 0.0835871 358.021 0.0836216C438.951 0.0836216 646.967 0.0836182 698.199 231.65Z" fill="url(#paint0_linear_332_1625)"/>
<path d="M504.118 -37.082C420.562 -18.7404 370.802 51.2292 356.367 83.9214C504.118 24.8209 649.746 64.391 704.092 91.5636L504.118 -37.082Z" fill="url(#paint1_linear_332_1625)"/>
<path d="M679.891 390.888C750.932 115.891 464.087 82.724 356.367 91.5636V100.498C655.875 235.749 548.942 601.011 458.037 766.735C572.422 766.025 600.921 696.58 679.891 390.888Z" fill="url(#paint2_linear_332_1625)"/>
<path d="M172.211 -43.1511C291.563 -9.73265 335.104 55.4883 341.956 83.9214C298.459 47.1315 135.522 11.2839 59.4904 -2.04111L172.211 -43.1511Z" fill="url(#paint3_linear_332_1625)"/>
<path d="M34.1155 457.121C-84.3404 106.038 221.032 73.7355 341.956 91.5636V100.498C38.5426 149.144 142.957 564.925 233.091 766.735L34.1155 457.121Z" fill="url(#paint4_linear_332_1625)"/>
<path d="M334.278 829.168C256.078 530.398 302.521 221.359 341.956 106.038C477.752 277.691 391.3 664.743 342.002 833.03C327.919 836.659 342.545 830.68 334.278 829.168Z" fill="url(#paint5_linear_332_1625)"/>
</g>
<path d="M219.572 721.46C220.783 723.303 222.297 724.935 224.031 726.297C236.362 735.983 227.12 729.701 249.869 742.835V766.314C225.672 752.343 212.223 731.587 212.223 710.27L219.572 721.46Z" fill="#666666"/>
<path d="M249.869 742.835C302.087 772.983 386.748 772.983 438.966 742.835V766.313C386.748 796.461 302.087 796.461 249.869 766.313V742.835Z" fill="#404040"/>
<path d="M468.026 723.228C467.967 723.296 467.912 723.359 467.851 723.424C467.117 724.202 461.434 729.827 439.475 742.541C439.166 742.72 438.966 743.055 438.966 743.412V766.313C462.155 752.925 476.866 734.642 478.052 714.379C478.106 713.458 476.987 713.027 476.378 713.72L468.026 723.228Z" fill="#404040"/>
<circle cx="30" cy="30" r="30" transform="matrix(0.866025 0.5 -0.866025 0.5 344.254 62.7656)" fill="#8C8C8C"/>
<path d="M307.512 92.7656C307.512 98.6235 311.624 103.927 318.273 107.766V117.766C311.624 113.927 307.512 108.623 307.512 102.766V92.7656Z" fill="#666666"/>
<path d="M318.273 107.766C332.622 116.05 355.886 116.05 370.235 107.766V117.766C355.886 126.05 332.622 126.05 318.273 117.766V107.766Z" fill="#404040"/>
<path d="M380.996 92.7656C380.996 98.6235 376.884 103.927 370.235 107.766V117.766C376.884 113.927 380.996 108.623 380.996 102.766V92.7656Z" fill="#404040"/>
<defs>
<linearGradient id="paint0_linear_332_1625" x1="350.978" y1="0" x2="350.978" y2="829.993" gradientUnits="userSpaceOnUse">
<stop stop-color="#CD455D"/>
<stop offset="1" stop-color="#942E40"/>
</linearGradient>
<linearGradient id="paint1_linear_332_1625" x1="325.885" y1="-69.2375" x2="355.701" y2="834.181" gradientUnits="userSpaceOnUse">
<stop stop-color="#F2F0F2"/>
<stop offset="1" stop-color="#D5CFCF"/>
</linearGradient>
<linearGradient id="paint2_linear_332_1625" x1="325.885" y1="-69.2375" x2="355.701" y2="834.181" gradientUnits="userSpaceOnUse">
<stop stop-color="#F2F0F2"/>
<stop offset="1" stop-color="#D5CFCF"/>
</linearGradient>
<linearGradient id="paint3_linear_332_1625" x1="325.885" y1="-69.2375" x2="355.701" y2="834.181" gradientUnits="userSpaceOnUse">
<stop stop-color="#F2F0F2"/>
<stop offset="1" stop-color="#D5CFCF"/>
</linearGradient>
<linearGradient id="paint4_linear_332_1625" x1="325.885" y1="-69.2375" x2="355.701" y2="834.181" gradientUnits="userSpaceOnUse">
<stop stop-color="#F2F0F2"/>
<stop offset="1" stop-color="#D5CFCF"/>
</linearGradient>
<linearGradient id="paint5_linear_332_1625" x1="325.885" y1="-69.2375" x2="355.701" y2="834.181" gradientUnits="userSpaceOnUse">
<stop stop-color="#F2F0F2"/>
<stop offset="1" stop-color="#D5CFCF"/>
</linearGradient>
</defs>
</svg>
