<svg width="386" height="401" viewBox="0 0 386 401" fill="none" xmlns="http://www.w3.org/2000/svg">
<circle cx="54.8198" cy="54.8198" r="54.8198" transform="matrix(0.866025 0.5 0 1 90.5435 256.59)" fill="#6DC9ED"/>
<path d="M104.449 280.675C113.719 275.322 125.869 276.985 138.019 284L171.93 264.421C159.78 257.407 147.63 255.744 138.36 261.096L104.449 280.675Z" fill="#ABE7FF"/>
<path d="M185.494 366.23C185.494 335.954 164.239 299.138 138.019 284L171.93 264.422C198.15 279.56 219.405 316.375 219.405 346.651L185.494 366.23Z" fill="#ABE7FF"/>
<path d="M171.589 396.965C180.859 391.613 185.494 380.259 185.494 366.23L219.405 346.651C219.405 360.681 214.77 372.034 205.5 377.386L171.589 396.965Z" fill="#4FB5DD"/>
<path d="M163.443 137.905L123.117 160.57L41.5801 184.118C42.4545 179.179 44.5195 176.817 47.8177 172.897C85.039 128.649 140.416 130.809 163.443 137.905Z" fill="#4FB5DD"/>
<path d="M309.15 278.312C270.979 187.768 195.114 146.785 161.953 137.612L112.025 157.398L136.905 181.712L269.785 307.241L309.15 278.312Z" fill="#ABE7FF"/>
<path d="M312.421 317.037C293.099 341.285 271.535 341.979 263.168 339.296L272.166 296.673L307.211 275.125C320.282 293.311 316.131 310.644 312.421 317.037Z" fill="#4FB5DD"/>
<path d="M43.6066 200.938C30.0359 172.44 66.2244 159.661 86.0149 156.834C133.06 150.048 178.287 185.489 197.181 200.938C234.337 231.32 294.551 309.504 278.266 329.86C261.981 350.216 245.847 331.179 239.816 319.116C230.957 297.252 203.288 248.096 163.481 226.383C123.674 204.67 100.59 220.553 86.0149 226.383C77.5333 229.776 57.1772 229.437 43.6066 200.938Z" fill="#6DC9ED"/>
<path d="M373.491 207.539L335.394 230.969C327.139 239.35 312.917 258.398 322.06 267.542C331.203 276.685 345.045 275.796 350.823 274.209C361.046 270.081 382.215 258.589 385.11 245.636C388.006 232.683 378.57 214.841 373.491 207.539Z" fill="#4FB5DD"/>
<path d="M88.8776 28.2629L134.208 1.47653C57.1133 -7.74903 14.7599 28.638 3.22009 47.9847L88.8776 28.2629Z" fill="#4FB5DD"/>
<path d="M91.7931 23.0206L130.243 0.968201C255.094 25.8477 345.866 151.188 375.647 210.748L340.023 232.235C255.433 80.6961 139.29 29.6175 91.7931 23.0206Z" fill="#ABE7FF"/>
<path d="M16.6087 33.5189C40.0271 20.3459 78.0822 20.9559 94.1824 22.9075C216.421 50.4107 304.824 167.131 333.746 222.054C341.954 232.709 355.815 256.862 345.585 268.228C335.356 279.594 322.935 269.582 318.003 263.156C276.883 184.919 206.598 125.572 176.596 105.678C151.674 91.0588 93.2744 66.4049 59.0547 84.7469C29.1961 109.044 10.0222 89.0158 4.16761 75.9649C-5.78524 48.4482 8.31463 36.2023 16.6087 33.5189Z" fill="#6DC9ED"/>
</svg>
