<svg width="932" height="2517" viewBox="0 0 932 2517" fill="none" xmlns="http://www.w3.org/2000/svg">
<circle cx="34" cy="34" r="34" transform="matrix(0.866025 0.5 -0.866025 0.5 524.984 709.13)" fill="#8C8C8C"/>
<path d="M483.343 743.13C483.343 758.342 488.004 772.114 495.539 782.083V2500.58C488.004 2490.61 483.343 2476.84 483.343 2461.63V743.13Z" fill="url(#paint0_linear_110_5)"/>
<path d="M495.539 782.083C511.801 803.596 538.167 803.596 554.429 782.083V2500.58C538.167 2522.09 511.801 2522.09 495.539 2500.58V782.083Z" fill="url(#paint1_linear_110_5)"/>
<path d="M566.625 743.13C566.625 749.769 561.965 755.779 554.429 760.13V1510.13C561.965 1505.78 566.625 1499.77 566.625 1493.13V743.13Z" fill="url(#paint2_linear_110_5)"/>
<rect width="932.856" height="133.265" transform="matrix(-0.866025 0.5 0.866025 0.5 816.183 480.091)" fill="#8C8C8C"/>
<rect width="932.856" height="33.3163" transform="matrix(-0.866025 0.5 0 1 931.594 546.723)" fill="#666666"/>
<rect width="133.265" height="33.3163" transform="matrix(-0.866025 -0.5 0 1 123.718 1013.15)" fill="#404040"/>
<rect width="909.263" height="32.4737" transform="matrix(-0.866025 0.5 0.866025 0.5 831.83 47.4875)" fill="white"/>
<rect width="909.263" height="454.632" transform="matrix(-0.866025 0.5 0 1 859.953 63.7244)" fill="#828BAC"/>
<rect width="32.4737" height="454.632" transform="matrix(-0.866025 -0.5 0 1 72.5087 518.356)" fill="#A0A6C0"/>
<rect width="909.263" height="32.4737" transform="matrix(-0.866025 0.5 0.866025 0.5 871.13 70.2383)" fill="white"/>
<rect width="909.263" height="454.632" transform="matrix(-0.866025 0.5 0 1 899.253 86.4751)" fill="#C1C1C1"/>
<path d="M111.809 541.107L899.253 86.4751V541.107L505.531 768.422L111.809 541.107Z" fill="url(#paint3_linear_110_5)" fill-opacity="0.5"/>
<rect width="32.4737" height="454.632" transform="matrix(-0.866025 -0.5 0 1 111.809 541.107)" fill="#A0A6C0"/>
<rect width="19.3166" height="57.9497" transform="matrix(-0.866025 0.5 0.866025 0.5 782.637 75.2986)" fill="#8C8C8C"/>
<rect width="19.3166" height="7.72663" transform="matrix(-0.866025 0.5 0 1 832.823 104.273)" fill="#666666"/>
<rect width="57.9497" height="7.72663" transform="matrix(-0.866025 -0.5 0 1 816.094 113.932)" fill="#404040"/>
<path d="M812.476 96.8309V109.487L825.401 101.139C825.288 98.53 825.186 95.676 825.105 92.6716C825.03 79.7359 825.921 59.2278 826.495 48.5917L819.199 42.8264C815.73 54.1888 813.272 83.5637 812.476 96.8309Z" fill="#404040"/>
<path d="M823.01 68.211L871.861 75.5051L880.649 110.493C867.714 142.815 830.184 136.548 813.035 129.374L823.01 68.211Z" fill="url(#paint4_linear_110_5)"/>
<path d="M779.472 17.1297L730.621 24.4238L721.833 59.4115C734.768 91.7341 772.298 85.4667 789.447 78.2927L779.472 17.1297Z" fill="url(#paint5_linear_110_5)"/>
<rect width="23.1799" height="38.6331" transform="matrix(-0.866025 0.5 0.866025 0.5 841.599 46.733)" fill="#8C8C8C"/>
<rect width="23.1799" height="11.5899" transform="matrix(-0.866025 0.5 0 1 875.056 66.0494)" fill="#666666"/>
<rect width="38.6331" height="11.5899" transform="matrix(-0.866025 -0.5 0 1 854.982 77.6395)" fill="#404040"/>
<path d="M853.139 63.7082C849.907 51.1418 839.836 26.8167 825.402 30.048C823.829 29.1802 820.933 32.9794 817.983 48.6699L826.039 52.0591C827.018 43.3353 828.739 37.8813 831.584 39.7424C832.008 40.032 832.46 40.4733 832.942 41.0887C835.994 45.4868 842.313 56.1681 843.175 63.7082H853.139Z" fill="#404040"/>
<rect width="23.1799" height="38.6331" transform="matrix(-0.866025 0.5 0.866025 0.5 751.204 0.329956)" fill="#8C8C8C"/>
<rect width="23.1799" height="11.5899" transform="matrix(-0.866025 0.5 0 1 784.661 19.6464)" fill="#666666"/>
<rect width="38.6331" height="11.5899" transform="matrix(-0.866025 -0.5 0 1 764.587 31.2366)" fill="#404040"/>
<path d="M791.67 78.0962V82.2744L778.899 90.7524C779.009 88.2446 779.103 85.2911 779.176 82.0467C779.245 67.0215 778.235 40.6664 777.651 29.8569L784.948 24.0917C788.417 35.454 790.875 64.829 791.67 78.0962Z" fill="#404040"/>
<path d="M778.746 11.3139C780.788 11.8889 783.216 14.2453 786.166 29.9358L778.11 33.325C777.671 29.4166 777.374 25.8792 776.98 23.329C776.476 20.7776 775.818 18.9881 775.017 19.3169L774.023 19.1553C772.715 18.9427 771.831 20.4517 772.656 21.489L764.245 23.9732C768.187 11.4802 775.899 10.5117 778.746 11.3139Z" fill="#404040"/>
<rect width="19.3166" height="57.9497" transform="matrix(-0.866025 0.5 0.866025 0.5 650.429 151.226)" fill="#8C8C8C"/>
<rect width="19.3166" height="7.72663" transform="matrix(-0.866025 0.5 0 1 700.614 180.201)" fill="#666666"/>
<rect width="57.9497" height="7.72663" transform="matrix(-0.866025 -0.5 0 1 683.886 189.859)" fill="#404040"/>
<path d="M680.268 172.759V185.415L693.193 177.067C693.079 174.458 692.977 171.604 692.896 168.599C692.821 155.664 693.712 135.156 694.287 124.519L686.99 118.754C683.521 130.116 681.063 159.491 680.268 172.759Z" fill="#404040"/>
<path d="M690.802 144.139L739.652 151.433L748.44 186.421C735.506 218.743 697.975 212.476 680.827 205.302L690.802 144.139Z" fill="url(#paint6_linear_110_5)"/>
<path d="M647.263 93.0576L598.413 100.352L589.625 135.339C602.559 167.662 640.09 161.395 657.238 154.221L647.263 93.0576Z" fill="url(#paint7_linear_110_5)"/>
<rect width="23.1799" height="38.6331" transform="matrix(-0.866025 0.5 0.866025 0.5 709.391 122.661)" fill="#8C8C8C"/>
<rect width="23.1799" height="11.5899" transform="matrix(-0.866025 0.5 0 1 742.848 141.977)" fill="#666666"/>
<rect width="38.6331" height="11.5899" transform="matrix(-0.866025 -0.5 0 1 722.774 153.567)" fill="#404040"/>
<path d="M720.93 139.636C717.699 127.07 707.627 102.745 693.194 105.976C691.621 105.108 688.724 108.907 685.774 124.598L693.831 127.987C694.81 119.263 696.531 113.809 699.376 115.67C699.799 115.96 700.252 116.401 700.734 117.017C703.786 121.415 710.105 132.096 710.967 139.636H720.93Z" fill="#404040"/>
<rect width="23.1799" height="38.6331" transform="matrix(-0.866025 0.5 0.866025 0.5 618.995 76.2578)" fill="#8C8C8C"/>
<rect width="23.1799" height="11.5899" transform="matrix(-0.866025 0.5 0 1 652.452 95.5742)" fill="#666666"/>
<rect width="38.6331" height="11.5899" transform="matrix(-0.866025 -0.5 0 1 632.378 107.164)" fill="#404040"/>
<path d="M659.462 154.024V158.202L646.691 166.68C646.8 164.172 646.895 161.219 646.967 157.975C647.036 142.949 646.027 116.594 645.443 105.785L652.739 100.02C656.209 111.382 658.667 140.757 659.462 154.024Z" fill="#404040"/>
<path d="M646.538 87.2417C648.579 87.8167 651.008 90.1731 653.957 105.864L645.901 109.253C645.462 105.344 645.165 101.807 644.772 99.2568C644.267 96.7055 643.609 94.916 642.809 95.2447L641.814 95.0831C640.506 94.8706 639.622 96.3796 640.447 97.4168L632.036 99.9011C635.978 87.408 643.69 86.4396 646.538 87.2417Z" fill="#404040"/>
<rect width="19.3166" height="57.9497" transform="matrix(-0.866025 0.5 0.866025 0.5 518.22 227.154)" fill="#8C8C8C"/>
<rect width="19.3166" height="7.72663" transform="matrix(-0.866025 0.5 0 1 568.406 256.129)" fill="#666666"/>
<rect width="57.9497" height="7.72663" transform="matrix(-0.866025 -0.5 0 1 551.677 265.787)" fill="#404040"/>
<path d="M548.059 248.686V261.343L560.984 252.995C560.871 250.386 560.769 247.532 560.688 244.527C560.613 231.592 561.504 211.083 562.078 200.447L554.782 194.682C551.313 206.044 548.855 235.419 548.059 248.686Z" fill="#404040"/>
<path d="M558.593 220.067L607.444 227.361L616.232 262.349C603.297 294.671 565.767 288.404 548.618 281.23L558.593 220.067Z" fill="url(#paint8_linear_110_5)"/>
<path d="M515.055 168.985L466.204 176.28L457.416 211.267C470.351 243.59 507.881 237.322 525.03 230.148L515.055 168.985Z" fill="url(#paint9_linear_110_5)"/>
<rect width="23.1799" height="38.6331" transform="matrix(-0.866025 0.5 0.866025 0.5 577.182 198.589)" fill="#8C8C8C"/>
<rect width="23.1799" height="11.5899" transform="matrix(-0.866025 0.5 0 1 610.639 217.905)" fill="#666666"/>
<rect width="38.6331" height="11.5899" transform="matrix(-0.866025 -0.5 0 1 590.565 229.495)" fill="#404040"/>
<path d="M588.722 215.564C585.49 202.997 575.419 178.672 560.985 181.904C559.412 181.036 556.516 184.835 553.566 200.526L561.622 203.915C562.601 195.191 564.322 189.737 567.167 191.598C567.591 191.888 568.043 192.329 568.525 192.944C571.577 197.343 577.897 208.024 578.758 215.564H588.722Z" fill="#404040"/>
<rect width="23.1799" height="38.6331" transform="matrix(-0.866025 0.5 0.866025 0.5 486.787 152.186)" fill="#8C8C8C"/>
<rect width="23.1799" height="11.5899" transform="matrix(-0.866025 0.5 0 1 520.244 171.502)" fill="#666666"/>
<rect width="38.6331" height="11.5899" transform="matrix(-0.866025 -0.5 0 1 500.17 183.092)" fill="#404040"/>
<path d="M527.253 229.952V234.13L514.482 242.608C514.592 240.1 514.686 237.147 514.758 233.902C514.828 218.877 513.818 192.522 513.234 181.713L520.531 175.947C524 187.31 526.458 216.685 527.253 229.952Z" fill="#404040"/>
<path d="M514.329 163.17C516.371 163.745 518.799 166.101 521.749 181.791L513.693 185.181C513.254 181.272 512.957 177.735 512.563 175.185C512.058 172.633 511.4 170.844 510.6 171.173L509.606 171.011C508.298 170.798 507.413 172.307 508.238 173.345L499.828 175.829C503.77 163.336 511.482 162.367 514.329 163.17Z" fill="#404040"/>
<rect width="19.3166" height="57.9497" transform="matrix(-0.866025 0.5 0.866025 0.5 386.012 303.082)" fill="#8C8C8C"/>
<rect width="19.3166" height="7.72663" transform="matrix(-0.866025 0.5 0 1 436.197 332.057)" fill="#666666"/>
<rect width="57.9497" height="7.72663" transform="matrix(-0.866025 -0.5 0 1 419.469 341.715)" fill="#404040"/>
<path d="M415.851 324.614V337.271L428.776 328.923C428.662 326.313 428.56 323.459 428.48 320.455C428.404 307.519 429.296 287.011 429.87 276.375L422.574 270.61C419.104 281.972 416.646 311.347 415.851 324.614Z" fill="#404040"/>
<path d="M426.385 295.995L475.235 303.289L484.023 338.276C471.089 370.599 433.558 364.332 416.41 357.158L426.385 295.995Z" fill="url(#paint10_linear_110_5)"/>
<path d="M382.846 244.913L333.996 252.207L325.208 287.195C338.142 319.518 375.673 313.25 392.821 306.076L382.846 244.913Z" fill="url(#paint11_linear_110_5)"/>
<rect width="23.1799" height="38.6331" transform="matrix(-0.866025 0.5 0.866025 0.5 444.974 274.517)" fill="#8C8C8C"/>
<rect width="23.1799" height="11.5899" transform="matrix(-0.866025 0.5 0 1 478.431 293.833)" fill="#666666"/>
<rect width="38.6331" height="11.5899" transform="matrix(-0.866025 -0.5 0 1 458.357 305.423)" fill="#404040"/>
<path d="M456.513 291.492C453.282 278.925 443.21 254.6 428.777 257.832C427.204 256.964 424.307 260.763 421.358 276.453L429.414 279.843C430.393 271.119 432.114 265.665 434.959 267.526C435.382 267.816 435.835 268.257 436.317 268.872C439.369 273.27 445.688 283.952 446.55 291.492H456.513Z" fill="#404040"/>
<rect width="23.1799" height="38.6331" transform="matrix(-0.866025 0.5 0.866025 0.5 354.578 228.113)" fill="#8C8C8C"/>
<rect width="23.1799" height="11.5899" transform="matrix(-0.866025 0.5 0 1 388.035 247.43)" fill="#666666"/>
<rect width="38.6331" height="11.5899" transform="matrix(-0.866025 -0.5 0 1 367.961 259.02)" fill="#404040"/>
<path d="M395.045 305.88V310.058L382.274 318.536C382.383 316.028 382.477 313.075 382.55 309.83C382.619 294.805 381.61 268.45 381.026 257.64L388.322 251.875C391.792 263.238 394.25 292.613 395.045 305.88Z" fill="#404040"/>
<path d="M382.121 239.097C384.162 239.672 386.591 242.029 389.54 257.719L381.484 261.109C381.045 257.2 380.748 253.663 380.355 251.113C379.85 248.561 379.192 246.772 378.392 247.1L377.397 246.939C376.089 246.726 375.205 248.235 376.03 249.273L367.619 251.757C371.561 239.264 379.273 238.295 382.121 239.097Z" fill="#404040"/>
<rect width="19.3166" height="57.9497" transform="matrix(-0.866025 0.5 0.866025 0.5 253.802 379.01)" fill="#8C8C8C"/>
<rect width="19.3166" height="7.72663" transform="matrix(-0.866025 0.5 0 1 303.988 407.984)" fill="#666666"/>
<rect width="57.9497" height="7.72663" transform="matrix(-0.866025 -0.5 0 1 287.259 417.643)" fill="#404040"/>
<path d="M283.641 400.542V413.198L296.567 404.85C296.453 402.241 296.351 399.387 296.27 396.383C296.195 383.447 297.086 362.939 297.661 352.303L290.364 346.537C286.895 357.9 284.437 387.275 283.641 400.542Z" fill="#404040"/>
<path d="M294.175 371.922L343.026 379.216L351.814 414.204C338.879 446.526 301.349 440.259 284.2 433.085L294.175 371.922Z" fill="url(#paint12_linear_110_5)"/>
<path d="M250.637 320.841L201.786 328.135L192.998 363.123C205.933 395.445 243.463 389.178 260.612 382.004L250.637 320.841Z" fill="url(#paint13_linear_110_5)"/>
<rect width="23.1799" height="38.6331" transform="matrix(-0.866025 0.5 0.866025 0.5 312.764 350.444)" fill="#8C8C8C"/>
<rect width="23.1799" height="11.5899" transform="matrix(-0.866025 0.5 0 1 346.221 369.76)" fill="#666666"/>
<rect width="38.6331" height="11.5899" transform="matrix(-0.866025 -0.5 0 1 326.147 381.35)" fill="#404040"/>
<path d="M324.304 367.419C321.072 354.853 311.001 330.528 296.567 333.759C294.995 332.891 292.098 336.69 289.148 352.381L297.204 355.77C298.184 347.046 299.904 341.592 302.749 343.453C303.173 343.743 303.625 344.184 304.108 344.8C307.159 349.198 313.479 359.879 314.34 367.419H324.304Z" fill="#404040"/>
<rect width="23.1799" height="38.6331" transform="matrix(-0.866025 0.5 0.866025 0.5 222.369 304.041)" fill="#8C8C8C"/>
<rect width="23.1799" height="11.5899" transform="matrix(-0.866025 0.5 0 1 255.826 323.357)" fill="#666666"/>
<rect width="38.6331" height="11.5899" transform="matrix(-0.866025 -0.5 0 1 235.752 334.948)" fill="#404040"/>
<path d="M262.835 381.807V385.985L250.064 394.463C250.174 391.956 250.268 389.002 250.34 385.758C250.41 370.733 249.4 344.377 248.816 333.568L256.113 327.803C259.582 339.165 262.04 368.54 262.835 381.807Z" fill="#404040"/>
<path d="M249.911 315.025C251.952 315.6 254.381 317.956 257.331 333.647L249.274 337.036C248.836 333.128 248.539 329.59 248.145 327.04C247.64 324.489 246.982 322.699 246.182 323.028L245.188 322.866C243.88 322.654 242.995 324.163 243.82 325.2L235.41 327.684C239.352 315.191 247.064 314.223 249.911 315.025Z" fill="#404040"/>
<rect width="19.3166" height="57.9497" transform="matrix(-0.866025 0.5 0.866025 0.5 121.595 454.938)" fill="#8C8C8C"/>
<rect width="19.3166" height="7.72663" transform="matrix(-0.866025 0.5 0 1 171.78 483.913)" fill="#666666"/>
<rect width="57.9497" height="7.72663" transform="matrix(-0.866025 -0.5 0 1 155.052 493.571)" fill="#404040"/>
<path d="M151.434 476.47V489.126L164.359 480.778C164.245 478.169 164.143 475.315 164.063 472.311C163.987 459.375 164.879 438.867 165.453 428.231L158.157 422.465C154.687 433.828 152.229 463.203 151.434 476.47Z" fill="#404040"/>
<path d="M161.968 447.85L210.818 455.144L219.606 490.132C206.672 522.455 169.141 516.187 151.993 509.013L161.968 447.85Z" fill="url(#paint14_linear_110_5)"/>
<path d="M118.429 396.769L69.5788 404.063L60.7909 439.051C73.7252 471.373 111.256 465.106 128.404 457.932L118.429 396.769Z" fill="url(#paint15_linear_110_5)"/>
<rect width="23.1799" height="38.6331" transform="matrix(-0.866025 0.5 0.866025 0.5 180.557 426.372)" fill="#8C8C8C"/>
<rect width="23.1799" height="11.5899" transform="matrix(-0.866025 0.5 0 1 214.014 445.689)" fill="#666666"/>
<rect width="38.6331" height="11.5899" transform="matrix(-0.866025 -0.5 0 1 193.94 457.279)" fill="#404040"/>
<path d="M192.096 443.347C188.865 430.781 178.793 406.456 164.36 409.687C162.787 408.819 159.89 412.619 156.941 428.309L164.997 431.698C165.976 422.974 167.697 417.521 170.542 419.382C170.965 419.671 171.418 420.112 171.9 420.728C174.952 425.126 181.271 435.807 182.133 443.347H192.096Z" fill="#404040"/>
<rect width="23.1799" height="38.6331" transform="matrix(-0.866025 0.5 0.866025 0.5 90.1611 379.969)" fill="#8C8C8C"/>
<rect width="23.1799" height="11.5899" transform="matrix(-0.866025 0.5 0 1 123.618 399.286)" fill="#666666"/>
<rect width="38.6331" height="11.5899" transform="matrix(-0.866025 -0.5 0 1 103.544 410.876)" fill="#404040"/>
<path d="M130.628 457.735V461.913L117.857 470.391C117.966 467.884 118.06 464.93 118.133 461.686C118.202 446.661 117.193 420.305 116.609 409.496L123.905 403.731C127.375 415.093 129.833 444.468 130.628 457.735Z" fill="#404040"/>
<path d="M117.704 390.953C119.745 391.528 122.174 393.884 125.123 409.575L117.067 412.964C116.628 409.056 116.331 405.518 115.938 402.968C115.433 400.417 114.775 398.627 113.975 398.956L112.98 398.794C111.672 398.582 110.788 400.091 111.613 401.128L103.202 403.612C107.144 391.119 114.856 390.151 117.704 390.953Z" fill="#404040"/>
<path d="M417.868 585.546C414.967 587.221 412.13 588.309 409.359 588.809C406.588 589.309 404.25 589.034 402.345 587.984L405.917 578.347C407.996 578.897 410.009 579.059 411.958 578.834C413.949 578.584 415.811 577.959 417.543 576.959C418.886 576.184 419.925 575.334 420.661 574.409C421.397 573.484 421.765 572.496 421.765 571.446C421.765 570.696 421.549 570.246 421.116 570.096C420.683 569.896 420.012 569.884 419.102 570.059C418.236 570.209 417.154 570.459 415.855 570.809C413.257 571.309 411.092 571.584 409.36 571.634C407.628 571.684 406.329 571.284 405.463 570.434C404.597 569.534 404.164 567.984 404.164 565.784C404.164 563.134 404.727 560.509 405.853 557.909C407.022 555.234 408.668 552.734 410.79 550.409C412.911 548.084 415.444 546.071 418.389 544.371C420.727 543.021 423 542.133 425.209 541.708C427.46 541.258 429.56 541.471 431.509 542.346L427.481 552.171C425.533 551.746 423.801 551.621 422.285 551.796C420.77 551.971 419.298 552.471 417.869 553.296C417.133 553.721 416.462 554.209 415.855 554.759C415.249 555.309 414.751 555.946 414.361 556.671C414.015 557.321 413.842 558.021 413.842 558.771C413.842 559.521 414.015 560.021 414.361 560.271C414.751 560.496 415.336 560.559 416.115 560.459C416.938 560.284 417.955 560.071 419.168 559.821C421.982 559.146 424.32 558.771 426.182 558.696C428.044 558.571 429.43 558.971 430.339 559.896C431.291 560.746 431.768 562.346 431.768 564.696C431.767 568.696 430.512 572.571 428 576.321C425.532 579.996 422.154 583.071 417.868 585.546ZM458.927 558.988C457.975 559.988 456.914 561.051 455.745 562.176C454.619 563.276 453.428 564.314 452.172 565.289C450.916 566.314 449.682 567.176 448.47 567.876C446.738 568.876 445.136 569.476 443.664 569.677C442.235 569.802 441.087 569.339 440.221 568.289C439.399 567.214 438.988 565.402 438.988 562.852L438.988 542.302L434.637 544.814L434.637 535.739L438.989 533.227L438.989 520.702L449.381 514.701L449.381 527.226L456.331 523.214L456.33 532.289L449.38 536.301L449.38 552.726C449.38 554.026 449.661 554.814 450.224 555.089C450.787 555.314 451.501 555.176 452.367 554.676C453.104 554.251 453.883 553.651 454.706 552.876C455.572 552.076 456.308 551.326 456.914 550.626L458.927 558.988ZM460.833 548.213C460.833 545.613 461.461 542.975 462.717 540.3C463.973 537.625 465.705 535.1 467.913 532.725C470.122 530.3 472.655 528.263 475.513 526.612C476.898 525.812 478.262 525.175 479.605 524.7C480.947 524.175 482.116 523.875 483.112 523.8L483.112 522.075C483.112 519.925 482.549 518.6 481.423 518.1C480.298 517.6 478.587 518.012 476.292 519.337C474.387 520.437 472.59 521.85 470.901 523.575C469.256 525.275 467.502 527.363 465.64 529.838L462.523 523.988C464.775 520.988 467.113 518.363 469.538 516.113C472.006 513.838 474.604 511.912 477.332 510.337C482.441 507.387 486.403 506.525 489.218 507.749C492.075 508.899 493.504 512.149 493.504 517.499L493.504 527.774C493.503 528.974 493.655 529.737 493.958 530.062C494.304 530.312 494.889 530.249 495.712 529.874L495.711 539.849C494.845 540.549 494.023 541.174 493.243 541.724C492.507 542.249 491.858 542.674 491.295 542.999C489.346 544.124 487.852 544.537 486.813 544.237C485.817 543.912 485.189 543.05 484.93 541.65L484.735 540.037C483.219 543.162 481.401 545.937 479.279 548.362C477.2 550.712 475.014 552.55 472.719 553.875C470.467 555.175 468.432 555.8 466.614 555.75C464.838 555.675 463.431 554.988 462.392 553.688C461.353 552.388 460.833 550.563 460.833 548.213ZM481.488 537.787C481.964 537.062 482.354 536.337 482.657 535.612C482.96 534.887 483.111 534.275 483.111 533.775L483.112 530.25C482.246 530.35 481.271 530.612 480.189 531.037C479.15 531.387 478.175 531.825 477.266 532.35C475.361 533.45 473.78 534.863 472.525 536.588C471.269 538.263 470.641 539.9 470.641 541.5C470.641 542.4 470.857 543.1 471.29 543.6C471.723 544.1 472.308 544.363 473.044 544.388C473.823 544.388 474.733 544.087 475.772 543.487C476.811 542.887 477.85 542.062 478.889 541.012C479.929 539.962 480.795 538.887 481.488 537.787ZM522.799 522.109C521.847 523.109 520.786 524.171 519.617 525.296C518.491 526.396 517.3 527.434 516.044 528.409C514.789 529.434 513.555 530.296 512.342 530.997C510.61 531.997 509.008 532.597 507.536 532.797C506.107 532.922 504.96 532.459 504.094 531.409C503.271 530.334 502.86 528.522 502.86 525.972L502.861 505.422L498.509 507.935L498.509 498.86L502.861 496.347L502.861 483.822L513.253 477.821L513.253 490.346L520.203 486.334L520.202 495.409L513.253 499.421L513.252 515.846C513.252 517.146 513.533 517.934 514.096 518.209C514.659 518.434 515.374 518.296 516.24 517.796C516.976 517.371 517.755 516.771 518.578 515.996C519.444 515.196 520.18 514.446 520.786 513.746L522.799 522.109ZM539.904 515.083C537.002 516.758 534.166 517.845 531.395 518.345C528.624 518.845 526.286 518.571 524.381 517.521L527.953 507.883C530.032 508.433 532.045 508.595 533.993 508.37C535.985 508.12 537.847 507.495 539.579 506.495C540.921 505.72 541.961 504.87 542.697 503.945C543.433 503.02 543.801 502.032 543.801 500.982C543.801 500.232 543.585 499.782 543.152 499.632C542.719 499.432 542.047 499.42 541.138 499.595C540.272 499.745 539.19 499.995 537.891 500.345C535.293 500.845 533.128 501.12 531.396 501.17C529.664 501.22 528.365 500.821 527.499 499.971C526.633 499.071 526.2 497.521 526.2 495.321C526.2 492.671 526.763 490.046 527.889 487.446C529.058 484.77 530.704 482.27 532.825 479.945C534.947 477.62 537.48 475.608 540.425 473.908C542.763 472.557 545.036 471.67 547.244 471.245C549.496 470.795 551.596 471.007 553.544 471.882L549.517 481.707C547.569 481.282 545.837 481.157 544.321 481.332C542.806 481.507 541.334 482.008 539.905 482.833C539.169 483.258 538.497 483.745 537.891 484.295C537.285 484.845 536.787 485.483 536.397 486.208C536.051 486.858 535.878 487.558 535.878 488.308C535.878 489.058 536.051 489.558 536.397 489.808C536.787 490.033 537.371 490.095 538.151 489.995C538.974 489.82 539.991 489.608 541.203 489.358C544.018 488.682 546.356 488.307 548.218 488.232C550.08 488.107 551.465 488.507 552.375 489.432C553.327 490.282 553.804 491.882 553.803 494.232C553.803 498.232 552.547 502.107 550.036 505.857C547.568 509.532 544.19 512.607 539.904 515.083ZM587.543 486.976C585.291 488.276 583.234 488.963 581.372 489.038C579.511 489.063 577.909 488.564 576.566 487.539C575.267 486.439 574.25 484.901 573.514 482.926C572.778 480.951 572.41 478.589 572.41 475.839C572.41 472.939 572.8 470.039 573.579 467.139C574.359 464.239 575.442 461.464 576.827 458.814C578.256 456.089 579.923 453.676 581.829 451.576C583.777 449.401 585.92 447.638 588.259 446.288C590.813 444.813 593.065 444.163 595.013 444.338C596.962 444.463 598.521 445.313 599.69 446.888L599.69 440.438L608.718 435.225L608.717 471.9C608.717 475.9 607.872 479.837 606.183 483.712C604.538 487.563 602.221 491.125 599.233 494.4C596.289 497.7 592.868 500.475 588.971 502.726C585.334 504.826 582.195 505.938 579.553 506.063C576.955 506.214 574.682 505.601 572.734 504.226L578.32 494.476C579.575 495.401 581.134 495.801 582.996 495.676C584.858 495.601 586.85 494.951 588.971 493.726C590.66 492.751 592.219 491.501 593.648 489.975C595.077 488.45 596.203 486.675 597.025 484.65C597.891 482.6 598.325 480.35 598.325 477.9L598.325 474.075C597.285 476.825 595.77 479.35 593.778 481.65C591.829 483.926 589.751 485.701 587.543 486.976ZM591.115 475.388C591.938 474.913 592.696 474.35 593.389 473.7C594.125 472.975 594.796 472.213 595.402 471.413C596.008 470.563 596.571 469.663 597.091 468.713C597.611 467.713 598.022 466.725 598.325 465.75L598.325 457.5C597.892 456.35 597.265 455.513 596.442 454.988C595.619 454.413 594.71 454.138 593.714 454.163C592.718 454.188 591.679 454.513 590.597 455.138C589.514 455.763 588.496 456.626 587.544 457.726C586.591 458.826 585.768 460.101 585.076 461.551C584.426 462.926 583.906 464.351 583.517 465.826C583.17 467.276 582.997 468.676 582.997 470.026C582.997 471.476 583.192 472.688 583.581 473.663C584.014 474.613 584.599 475.351 585.335 475.876C586.071 476.351 586.937 476.551 587.933 476.476C588.929 476.401 589.99 476.038 591.115 475.388ZM632.076 461.862C629.175 463.537 626.577 464.487 624.282 464.712C622.03 464.913 620.125 464.513 618.566 463.513C617.008 462.513 615.817 461.025 614.994 459.05C614.215 457.05 613.825 454.7 613.826 452C613.826 449.25 614.216 446.425 614.995 443.525C615.818 440.6 617.009 437.738 618.568 434.938C620.126 432.138 622.032 429.538 624.283 427.137C626.578 424.712 629.176 422.662 632.077 420.987C634.979 419.312 637.555 418.374 639.807 418.174C642.058 417.974 643.963 418.374 645.522 419.374C647.081 420.374 648.271 421.862 649.094 423.837C649.917 425.812 650.328 428.174 650.328 430.924C650.328 433.624 649.916 436.437 649.093 439.362C648.271 442.287 647.08 445.149 645.521 447.949C643.962 450.749 642.057 453.349 639.805 455.749C637.553 458.149 634.977 460.187 632.076 461.862ZM624.477 445.85C624.477 447.9 624.802 449.512 625.452 450.687C626.144 451.837 627.054 452.512 628.179 452.712C629.305 452.912 630.604 452.587 632.076 451.737C633.505 450.912 634.783 449.75 635.908 448.25C637.078 446.674 637.987 444.924 638.636 442.999C639.286 441.074 639.611 439.112 639.611 437.112C639.611 435.062 639.286 433.449 638.637 432.274C637.987 431.099 637.078 430.424 635.909 430.25C634.783 430.05 633.506 430.362 632.077 431.187C630.605 432.037 629.306 433.212 628.18 434.712C627.054 436.212 626.145 437.937 625.452 439.887C624.802 441.812 624.478 443.8 624.477 445.85ZM491.049 630.539L480.657 636.54L480.658 614.415C480.658 611.865 480.203 610.252 479.294 609.577C478.428 608.877 477.259 608.952 475.787 609.802C475.007 610.252 474.12 611.065 473.124 612.24C472.171 613.34 471.284 614.653 470.461 616.178C469.638 617.703 469.01 619.29 468.577 620.94L468.576 643.515L458.184 649.516L458.186 594.765L468.578 588.765L468.577 610.74C469.833 607.665 471.479 604.915 473.514 602.49C475.592 599.99 477.866 598.027 480.334 596.602C482.672 595.252 484.534 594.627 485.919 594.727C487.348 594.802 488.431 595.377 489.167 596.452C489.903 597.477 490.401 598.789 490.661 600.389C490.92 601.989 491.05 603.639 491.05 605.339L491.049 630.539ZM514.256 617.889C511.355 619.565 508.779 620.527 506.527 620.777C504.276 620.977 502.349 620.615 500.747 619.69C499.188 618.74 497.997 617.303 497.175 615.378C496.352 613.403 495.941 611.09 495.941 608.44C495.941 604.64 496.656 600.778 498.085 596.853C499.557 592.853 501.657 589.115 504.385 585.64C507.113 582.115 510.404 579.24 514.258 577.014C518.111 574.789 521.381 573.852 524.065 574.202C526.793 574.526 528.871 575.826 530.3 578.101C531.729 580.326 532.443 583.239 532.443 586.839C532.443 587.539 532.4 588.264 532.313 589.014C532.27 589.689 532.226 590.289 532.183 590.814L506.982 605.365C507.112 607.04 507.524 608.277 508.216 609.077C508.952 609.852 509.883 610.24 511.009 610.24C512.135 610.19 513.326 609.802 514.581 609.077C516.14 608.177 517.591 606.914 518.933 605.289C520.319 603.639 521.271 601.939 521.791 600.189L530.624 597.939C529.758 600.489 528.524 603.026 526.922 605.551C525.363 608.002 523.501 610.302 521.336 612.452C519.214 614.577 516.854 616.389 514.256 617.889ZM506.723 598.165L521.532 589.614C521.358 588.064 520.947 586.877 520.298 586.052C519.648 585.177 518.782 584.727 517.7 584.702C516.617 584.627 515.427 584.964 514.128 585.714C512.785 586.49 511.573 587.54 510.49 588.865C509.451 590.115 508.607 591.552 507.957 593.177C507.308 594.752 506.896 596.415 506.723 598.165ZM558.782 562.331C556.27 563.781 553.997 565.569 551.962 567.694C549.927 569.769 548.455 571.969 547.545 574.294L547.544 597.919L537.152 603.919L537.154 564.544L546.702 559.031L546.701 566.981C547.87 563.656 549.386 560.706 551.248 558.131C553.11 555.556 555.058 553.656 557.094 552.431C557.57 552.156 557.916 551.956 558.133 551.831C558.393 551.681 558.609 551.581 558.782 551.531L558.782 562.331ZM579.207 580.387C576.306 582.062 573.729 583.025 571.478 583.275C569.226 583.475 567.299 583.112 565.697 582.188C564.138 581.238 562.948 579.8 562.125 577.875C561.303 575.9 560.891 573.588 560.891 570.938C560.892 567.138 561.606 563.275 563.035 559.35C564.507 555.35 566.608 551.612 569.336 548.137C572.064 544.612 575.355 541.737 579.208 539.512C583.062 537.287 586.331 536.349 589.016 536.699C591.744 537.024 593.822 538.324 595.251 540.599C596.679 542.824 597.394 545.736 597.394 549.336C597.394 550.036 597.35 550.761 597.264 551.511C597.22 552.186 597.177 552.786 597.134 553.311L571.933 567.862C572.063 569.537 572.474 570.775 573.167 571.575C573.903 572.35 574.834 572.737 575.96 572.737C577.085 572.687 578.276 572.3 579.532 571.574C581.091 570.674 582.541 569.412 583.884 567.787C585.269 566.137 586.222 564.437 586.741 562.687L595.575 560.436C594.709 562.986 593.474 565.524 591.872 568.049C590.313 570.499 588.451 572.799 586.286 574.949C584.165 577.074 581.805 578.887 579.207 580.387ZM571.673 560.662L586.482 552.112C586.309 550.562 585.898 549.374 585.248 548.549C584.599 547.674 583.733 547.224 582.65 547.199C581.568 547.124 580.377 547.462 579.078 548.212C577.736 548.987 576.523 550.037 575.441 551.362C574.402 552.612 573.557 554.05 572.908 555.675C572.258 557.25 571.847 558.912 571.673 560.662Z" fill="#5F6364"/>
<path d="M111.518 885.947C111.518 903.944 98.2313 951.768 79.0656 932.239C48.5982 901.194 55.0382 885.947 44.9869 874.905C40.6275 867.939 45.6902 852.007 48.5982 846.969C54.5008 836.743 82.7583 825.902 102.45 837.268C111.518 860.653 111.518 871.152 111.518 885.947Z" fill="#757D9D" fill-opacity="0.5"/>
<path d="M53.8657 891.343C63.3312 874.474 75.615 861.174 82.9771 848.054C75.6087 840.991 70.318 832.043 67.6806 822.183L67.1016 820.018C59.936 827.732 51.3841 836.296 39.3276 843.05C24.257 851.493 11.313 851.271 1.69719 868.407C-5.99543 882.116 16.1855 902.707 25.8972 910.856C31.1441 914.504 44.8565 907.399 53.8657 891.343Z" fill="#F0E698"/>
<path d="M107.475 858.01C103.268 861.367 93.234 855.142 88.7428 851.61L106.838 832.346C108.803 839.502 111.682 854.653 107.475 858.01Z" fill="#E3C079"/>
<path d="M57.2309 738.642C69.9112 738.482 70.0502 742.486 74.6021 750.218C80.1985 759.724 72.6883 763.735 68.2336 764.553C42.7625 768.377 26.8855 757.023 22.131 750.867C2.46458 737.213 25.0897 703.297 41.282 692.084C47.8971 687.216 61.2439 679.733 61.7105 688.752C62.177 697.77 52.4229 719.912 46.3158 727.552C43.6265 730.777 44.5506 738.802 57.2309 738.642Z" fill="#E3C079"/>
<path d="M113.387 826.081C133.317 781.17 104.798 758.228 88.0467 752.371C69.9129 742.864 34.8624 735.67 39.7312 782.95C45.8172 842.05 88.4738 882.22 113.387 826.081Z" fill="#F1CE89"/>
<path d="M111.239 731.236C110.172 713.601 92.9622 708.253 84.4907 707.783C81.3759 707.397 76.8072 708.154 74.9121 708.581C65.8401 711.468 62.8203 715.351 57.2289 730.449C52.5695 743.031 48.2922 750.139 45.9416 753.155C45.545 753.564 45.1545 754.007 44.7748 754.484C45.0784 754.197 45.4715 753.758 45.9416 753.155C49.0432 749.95 52.5112 748.751 54.0005 748.553C51.7428 754.824 51.9252 759.352 52.2986 760.832C55.1114 756.276 58.5003 754.521 59.8432 754.213C65.5227 758.327 65.1392 766.12 64.2375 769.502C67.3187 762.62 73.7429 760.107 76.5699 759.711C78.8845 761.764 79.5696 770.197 79.7055 774.185C79.6418 774.667 79.6159 775.121 79.6354 775.538C79.7059 777.04 79.7727 776.155 79.7055 774.185C80.1983 770.461 82.9508 765.081 84.4284 762.605L87.5997 773.639C90.7611 765.298 99.239 762.252 103.083 761.772C101.388 758.699 104.259 754.71 105.906 753.1C111.996 746.444 111.999 735.751 111.239 731.236Z" fill="#F0E698"/>
<path d="M96.661 736.869C97.0962 731.959 101.603 731.436 103.802 731.789C110.99 733.97 115.373 742.654 116.665 746.724C116.061 746.413 113.67 746.054 108.941 747.109C104.211 748.164 101.146 747.72 100.205 747.367C98.8423 745.913 96.2257 741.779 96.661 736.869Z" fill="#D59B24"/>
<path d="M74.7149 785.132C70.0983 796.329 78.9047 799.567 83.885 799.786C116.157 795.904 138.369 775.888 145.441 766.366C156.952 751.883 171.908 725.729 147.319 742.169C137.239 748.908 80.7714 766.194 74.7149 785.132Z" fill="#E3C079"/>
<ellipse cx="2.65773" cy="3.50859" rx="2.65773" ry="3.50859" transform="matrix(-0.321577 0.946883 0.499035 0.866582 87.6382 729.969)" fill="#4A5051"/>
<ellipse cx="2.65773" cy="3.50859" rx="2.65773" ry="3.50859" transform="matrix(-0.321577 0.946883 0.499035 0.866582 106.983 723.888)" fill="#4A5051"/>
<defs>
<linearGradient id="paint0_linear_110_5" x1="489.441" y1="743.13" x2="489.441" y2="2500.58" gradientUnits="userSpaceOnUse">
<stop offset="0.515015" stop-color="#666666"/>
<stop offset="1" stop-color="#666666" stop-opacity="0"/>
</linearGradient>
<linearGradient id="paint1_linear_110_5" x1="524.984" y1="782.083" x2="524.984" y2="2516.71" gradientUnits="userSpaceOnUse">
<stop offset="0.310015" stop-color="#404040"/>
<stop offset="1" stop-color="#404040" stop-opacity="0"/>
</linearGradient>
<linearGradient id="paint2_linear_110_5" x1="560.527" y1="743.13" x2="560.527" y2="1510.13" gradientUnits="userSpaceOnUse">
<stop offset="0.310015" stop-color="#404040"/>
<stop offset="1" stop-color="#404040" stop-opacity="0"/>
</linearGradient>
<linearGradient id="paint3_linear_110_5" x1="367.328" y1="333.199" x2="672.089" y2="577.537" gradientUnits="userSpaceOnUse">
<stop stop-color="#7A7A7A"/>
<stop offset="1" stop-color="#B5B5B5" stop-opacity="0"/>
</linearGradient>
<linearGradient id="paint4_linear_110_5" x1="840.619" y1="66.1726" x2="848.555" y2="134.73" gradientUnits="userSpaceOnUse">
<stop stop-color="#F2F1DD"/>
<stop offset="1" stop-color="#F2F1DD" stop-opacity="0"/>
</linearGradient>
<linearGradient id="paint5_linear_110_5" x1="761.863" y1="15.0913" x2="753.927" y2="83.6485" gradientUnits="userSpaceOnUse">
<stop stop-color="#F2F1DD"/>
<stop offset="1" stop-color="#F2F1DD" stop-opacity="0"/>
</linearGradient>
<linearGradient id="paint6_linear_110_5" x1="708.41" y1="142.1" x2="716.346" y2="210.658" gradientUnits="userSpaceOnUse">
<stop stop-color="#F2F1DD"/>
<stop offset="1" stop-color="#F2F1DD" stop-opacity="0"/>
</linearGradient>
<linearGradient id="paint7_linear_110_5" x1="629.655" y1="91.0192" x2="621.719" y2="159.576" gradientUnits="userSpaceOnUse">
<stop stop-color="#F2F1DD"/>
<stop offset="1" stop-color="#F2F1DD" stop-opacity="0"/>
</linearGradient>
<linearGradient id="paint8_linear_110_5" x1="576.202" y1="218.028" x2="584.138" y2="286.585" gradientUnits="userSpaceOnUse">
<stop stop-color="#F2F1DD"/>
<stop offset="1" stop-color="#F2F1DD" stop-opacity="0"/>
</linearGradient>
<linearGradient id="paint9_linear_110_5" x1="497.447" y1="166.947" x2="489.51" y2="235.504" gradientUnits="userSpaceOnUse">
<stop stop-color="#F2F1DD"/>
<stop offset="1" stop-color="#F2F1DD" stop-opacity="0"/>
</linearGradient>
<linearGradient id="paint10_linear_110_5" x1="443.993" y1="293.956" x2="451.929" y2="362.513" gradientUnits="userSpaceOnUse">
<stop stop-color="#F2F1DD"/>
<stop offset="1" stop-color="#F2F1DD" stop-opacity="0"/>
</linearGradient>
<linearGradient id="paint11_linear_110_5" x1="365.238" y1="242.875" x2="357.302" y2="311.432" gradientUnits="userSpaceOnUse">
<stop stop-color="#F2F1DD"/>
<stop offset="1" stop-color="#F2F1DD" stop-opacity="0"/>
</linearGradient>
<linearGradient id="paint12_linear_110_5" x1="311.784" y1="369.884" x2="319.72" y2="438.441" gradientUnits="userSpaceOnUse">
<stop stop-color="#F2F1DD"/>
<stop offset="1" stop-color="#F2F1DD" stop-opacity="0"/>
</linearGradient>
<linearGradient id="paint13_linear_110_5" x1="233.028" y1="318.802" x2="225.092" y2="387.36" gradientUnits="userSpaceOnUse">
<stop stop-color="#F2F1DD"/>
<stop offset="1" stop-color="#F2F1DD" stop-opacity="0"/>
</linearGradient>
<linearGradient id="paint14_linear_110_5" x1="179.576" y1="445.812" x2="187.512" y2="514.369" gradientUnits="userSpaceOnUse">
<stop stop-color="#F2F1DD"/>
<stop offset="1" stop-color="#F2F1DD" stop-opacity="0"/>
</linearGradient>
<linearGradient id="paint15_linear_110_5" x1="100.821" y1="394.73" x2="92.8848" y2="463.288" gradientUnits="userSpaceOnUse">
<stop stop-color="#F2F1DD"/>
<stop offset="1" stop-color="#F2F1DD" stop-opacity="0"/>
</linearGradient>
</defs>
</svg>
