<svg width="177" height="263" viewBox="0 0 177 263" fill="none" xmlns="http://www.w3.org/2000/svg">
<path d="M122.518 207.947C122.518 225.944 109.231 273.768 90.0657 254.239C59.5983 223.194 66.0382 207.947 55.987 196.905C51.6275 189.939 56.6903 174.007 59.5983 168.969C65.5009 158.743 93.7584 147.902 113.45 159.268C122.518 182.653 122.518 193.152 122.518 207.947Z" fill="#757D9D" fill-opacity="0.5"/>
<path d="M64.8656 213.343C74.3311 196.474 86.6149 183.174 93.977 170.054C86.6085 162.991 81.3179 154.043 78.6805 144.183L78.1014 142.018C70.9359 149.732 62.3839 158.296 50.3275 165.05C35.2569 173.493 22.3128 173.271 12.6971 190.407C5.00445 204.116 27.1854 224.707 36.8971 232.856C42.144 236.504 55.8564 229.399 64.8656 213.343Z" fill="#F0E698"/>
<path d="M118.475 180.01C114.268 183.367 104.234 177.142 99.7427 173.61L117.838 154.346C119.803 161.502 122.682 176.653 118.475 180.01Z" fill="#E3C079"/>
<path d="M68.2308 60.6422C80.9111 60.4822 81.0501 64.4863 85.602 72.2179C91.1984 81.7237 83.6881 85.735 79.2335 86.5525C53.7624 90.3772 37.8854 79.0227 33.1308 72.8674C13.4645 59.2127 36.0896 25.2966 52.2819 14.0838C58.897 9.21546 72.2438 1.73341 72.7103 10.7518C73.1769 19.7703 63.4228 41.9123 57.3157 49.5514C54.6264 52.7767 55.5504 60.8022 68.2308 60.6422Z" fill="#E3C079"/>
<path d="M124.387 148.081C144.317 103.171 115.798 80.2286 99.0466 74.3714C80.9128 64.8643 45.8623 57.6701 50.7311 104.95C56.817 164.05 99.4737 204.22 124.387 148.081Z" fill="#F1CE89"/>
<path d="M122.239 53.2363C121.172 35.6006 103.962 30.2528 95.4907 29.7834C92.3759 29.3965 87.8072 30.1537 85.9121 30.5806C76.8401 33.468 73.8203 37.3508 68.2289 52.4491C63.5695 65.0309 59.2922 72.139 56.9416 75.1547C56.545 75.5644 56.1545 76.0068 55.7748 76.4842C56.0784 76.1973 56.4715 75.7579 56.9416 75.1547C60.0432 71.9504 63.5112 70.7507 65.0005 70.5534C62.7428 76.8236 62.9252 81.3515 63.2986 82.8317C66.1114 78.2757 69.5003 76.5209 70.8432 76.213C76.5227 80.3268 76.1392 88.1195 75.2375 91.5016C78.3187 84.6199 84.7429 82.1072 87.5699 81.7111C89.8845 83.7636 90.5696 92.1972 90.7055 96.1854C90.6418 96.6672 90.6159 97.1213 90.6354 97.5378C90.7059 99.0403 90.7727 98.1549 90.7055 96.1854C91.1983 92.4611 93.9508 87.0809 95.4284 84.6053L98.5997 95.6391C101.761 87.2978 110.239 84.252 114.083 83.7718C112.388 80.6989 115.259 76.71 116.906 75.0996C122.996 68.444 122.999 57.7509 122.239 53.2363Z" fill="#F0E698"/>
<path d="M107.661 58.869C108.096 53.9588 112.603 53.4363 114.802 53.7888C121.99 55.9696 126.373 64.654 127.665 68.7236C127.061 68.4125 124.67 68.0541 119.941 69.1092C115.211 70.1644 112.146 69.7204 111.205 69.3665C109.842 67.9132 107.226 63.7791 107.661 58.869Z" fill="#D59B24"/>
<path d="M85.7149 107.132C81.0983 118.329 89.9047 121.567 94.885 121.786C127.157 117.904 149.369 97.8885 156.441 88.366C167.952 73.8828 182.908 47.7288 158.319 64.169C148.239 70.9082 91.7714 88.1945 85.7149 107.132Z" fill="#E3C079"/>
<ellipse cx="2.65773" cy="3.50859" rx="2.65773" ry="3.50859" transform="matrix(-0.321577 0.946883 0.499035 0.866582 98.6382 51.9685)" fill="#4A5051"/>
<ellipse cx="2.65773" cy="3.50859" rx="2.65773" ry="3.50859" transform="matrix(-0.321577 0.946883 0.499035 0.866582 117.983 45.8876)" fill="#4A5051"/>
</svg>
