<svg width="583" height="3652" viewBox="0 0 583 3652" fill="none" xmlns="http://www.w3.org/2000/svg">
<rect width="175.452" height="125.323" transform="matrix(0.866025 0.5 -0.866025 0.5 159.181 442.547)" fill="url(#paint0_linear_792_1574)"/>
<rect width="175.452" height="24.8316" transform="matrix(0.866025 0.5 0 1 50.6484 505.208)" fill="url(#paint1_linear_792_1574)"/>
<rect width="125.323" height="296.597" transform="matrix(0.866025 -0.5 0 1 202.594 592.934)" fill="url(#paint2_linear_792_1574)"/>
<rect width="175.452" height="29.242" transform="matrix(0.866025 0.5 -0.866025 0.5 50.6484 526.115)" fill="url(#paint3_linear_792_1574)"/>
<rect width="175.452" height="20.7678" transform="matrix(0.866025 0.5 0 1 25.3242 540.736)" fill="url(#paint4_linear_792_1574)"/>
<rect width="29.242" height="275.71" transform="matrix(0.866025 -0.5 0 1 177.27 628.462)" fill="url(#paint5_linear_792_1574)"/>
<rect width="175.452" height="29.242" transform="matrix(0.866025 0.5 -0.866025 0.5 25.3242 561.614)" fill="url(#paint6_linear_792_1574)"/>
<rect width="175.452" height="254.823" transform="matrix(0.866025 0.5 0 1 0 576.236)" fill="url(#paint7_linear_792_1574)"/>
<rect width="29.242" height="254.823" transform="matrix(0.866025 -0.5 0 1 151.946 663.961)" fill="url(#paint8_linear_792_1574)"/>
<rect width="119.823" height="85.5882" transform="matrix(-0.866025 0.5 0.866025 0.5 474.191 482.1)" fill="url(#paint9_linear_792_1574)"/>
<rect width="119.823" height="16.9586" transform="matrix(-0.866025 0.5 0 1 548.313 524.894)" fill="url(#paint10_linear_792_1574)"/>
<rect width="85.5882" height="202.559" transform="matrix(-0.866025 -0.5 0 1 444.543 584.806)" fill="url(#paint11_linear_792_1574)"/>
<rect width="119.823" height="19.9706" transform="matrix(-0.866025 0.5 0.866025 0.5 548.313 539.172)" fill="url(#paint12_linear_792_1574)"/>
<rect width="119.823" height="14.1832" transform="matrix(-0.866025 0.5 0 1 565.608 549.157)" fill="url(#paint13_linear_792_1574)"/>
<rect width="19.9706" height="188.294" transform="matrix(-0.866025 -0.5 0 1 461.838 609.069)" fill="url(#paint14_linear_792_1574)"/>
<rect width="119.823" height="19.9706" transform="matrix(-0.866025 0.5 0.866025 0.5 565.608 563.416)" fill="url(#paint15_linear_792_1574)"/>
<rect width="119.823" height="174.029" transform="matrix(-0.866025 0.5 0 1 582.903 573.401)" fill="url(#paint16_linear_792_1574)"/>
<rect width="19.9706" height="174.029" transform="matrix(-0.866025 -0.5 0 1 479.133 633.314)" fill="url(#paint17_linear_792_1574)"/>
<rect width="210.3" height="150.214" transform="matrix(0.866025 0.5 -0.866025 0.5 309.381 40.998)" fill="url(#paint18_linear_792_1574)"/>
<rect width="210.3" height="29.7636" transform="matrix(0.866025 0.5 0 1 179.292 116.106)" fill="url(#paint19_linear_792_1574)"/>
<rect width="150.214" height="355.507" transform="matrix(0.866025 -0.5 0 1 361.417 221.255)" fill="url(#paint20_linear_792_1574)"/>
<rect width="210.3" height="35.05" transform="matrix(0.866025 0.5 -0.866025 0.5 179.291 141.164)" fill="url(#paint21_linear_792_1574)"/>
<rect width="210.3" height="24.8927" transform="matrix(0.866025 0.5 0 1 148.937 158.69)" fill="url(#paint22_linear_792_1574)"/>
<rect width="35.05" height="330.471" transform="matrix(0.866025 -0.5 0 1 331.062 263.839)" fill="url(#paint23_linear_792_1574)"/>
<rect width="210.3" height="35.05" transform="matrix(0.866025 0.5 -0.866025 0.5 148.937 183.715)" fill="url(#paint24_linear_792_1574)"/>
<rect width="210.3" height="305.436" transform="matrix(0.866025 0.5 0 1 118.583 201.24)" fill="url(#paint25_linear_792_1574)"/>
<rect width="35.05" height="305.436" transform="matrix(0.866025 -0.5 0 1 300.708 306.39)" fill="url(#paint26_linear_792_1574)"/>
<mask id="mask0_792_1574" style="mask-type:alpha" maskUnits="userSpaceOnUse" x="455" y="180" width="27" height="76">
<rect width="30" height="60" transform="matrix(0.866025 -0.5 0 1 455.99 195.752)" fill="#D9D9D9"/>
</mask>
<g mask="url(#mask0_792_1574)">
<rect width="10" height="60" transform="matrix(0.866025 0.5 0 1 473.31 175.752)" fill="#F49C86"/>
<rect width="30" height="10" transform="matrix(0.866025 -0.5 0.866025 0.5 447.33 250.752)" fill="#FBBEAE"/>
<rect width="30" height="60" transform="matrix(0.866025 -0.5 0 1 447.33 190.752)" fill="#DE846E"/>
</g>
<mask id="mask1_792_1574" style="mask-type:alpha" maskUnits="userSpaceOnUse" x="416" y="202" width="27" height="76">
<rect width="30" height="60" transform="matrix(0.866025 -0.5 0 1 416.204 217.854)" fill="#D9D9D9"/>
</mask>
<g mask="url(#mask1_792_1574)">
<rect width="10" height="60" transform="matrix(0.866025 0.5 0 1 433.524 197.854)" fill="#F49C86"/>
<rect width="30" height="10" transform="matrix(0.866025 -0.5 0.866025 0.5 407.544 272.854)" fill="#FBBEAE"/>
<rect width="30" height="60" transform="matrix(0.866025 -0.5 0 1 407.544 212.854)" fill="#DE846E"/>
</g>
<mask id="mask2_792_1574" style="mask-type:alpha" maskUnits="userSpaceOnUse" x="376" y="224" width="27" height="76">
<rect width="30" height="60" transform="matrix(0.866025 -0.5 0 1 376.419 239.957)" fill="#D9D9D9"/>
</mask>
<g mask="url(#mask2_792_1574)">
<rect width="10" height="60" transform="matrix(0.866025 0.5 0 1 393.739 219.957)" fill="#F49C86"/>
<rect width="30" height="10" transform="matrix(0.866025 -0.5 0.866025 0.5 367.759 294.957)" fill="#FBBEAE"/>
<rect width="30" height="60" transform="matrix(0.866025 -0.5 0 1 367.759 234.957)" fill="#DE846E"/>
</g>
<mask id="mask3_792_1574" style="mask-type:alpha" maskUnits="userSpaceOnUse" x="442" y="299" width="27" height="76">
<rect width="30" height="60" transform="matrix(0.866025 -0.5 0 1 443 314.956)" fill="#D9D9D9"/>
</mask>
<g mask="url(#mask3_792_1574)">
<rect width="10" height="60" transform="matrix(0.866025 0.5 0 1 460.32 294.956)" fill="#F49C86" fill-opacity="0.75"/>
<rect width="30" height="10" transform="matrix(0.866025 -0.5 0.866025 0.5 434.339 369.956)" fill="#FBBEAE" fill-opacity="0.75"/>
<rect width="30" height="60" transform="matrix(0.866025 -0.5 0 1 434.339 309.956)" fill="#DE846E" fill-opacity="0.75"/>
</g>
<mask id="mask4_792_1574" style="mask-type:alpha" maskUnits="userSpaceOnUse" x="403" y="322" width="27" height="76">
<rect width="30" height="60" transform="matrix(0.866025 -0.5 0 1 403.214 337.06)" fill="#D9D9D9"/>
</mask>
<g mask="url(#mask4_792_1574)">
<rect width="10" height="60" transform="matrix(0.866025 0.5 0 1 420.534 317.06)" fill="#F49C86" fill-opacity="0.75"/>
<rect width="30" height="10" transform="matrix(0.866025 -0.5 0.866025 0.5 394.554 392.06)" fill="#FBBEAE" fill-opacity="0.75"/>
<rect width="30" height="60" transform="matrix(0.866025 -0.5 0 1 394.554 332.06)" fill="#DE846E" fill-opacity="0.75"/>
</g>
<mask id="mask5_792_1574" style="mask-type:alpha" maskUnits="userSpaceOnUse" x="363" y="344" width="27" height="76">
<rect width="30" height="60" transform="matrix(0.866025 -0.5 0 1 363.429 359.163)" fill="#D9D9D9"/>
</mask>
<g mask="url(#mask5_792_1574)">
<rect width="10" height="60" transform="matrix(0.866025 0.5 0 1 380.749 339.163)" fill="#F49C86" fill-opacity="0.75"/>
<rect width="30" height="10" transform="matrix(0.866025 -0.5 0.866025 0.5 354.769 414.163)" fill="#FBBEAE" fill-opacity="0.75"/>
<rect width="30" height="60" transform="matrix(0.866025 -0.5 0 1 354.769 354.163)" fill="#DE846E" fill-opacity="0.75"/>
</g>
<mask id="mask6_792_1574" style="mask-type:alpha" maskUnits="userSpaceOnUse" x="430" y="412" width="26" height="76">
<rect width="30" height="60" transform="matrix(0.866025 -0.5 0 1 430.009 427.988)" fill="#D9D9D9"/>
</mask>
<g mask="url(#mask6_792_1574)">
<rect width="10" height="60" transform="matrix(0.866025 0.5 0 1 447.329 407.988)" fill="#F49C86" fill-opacity="0.5"/>
<rect width="30" height="10" transform="matrix(0.866025 -0.5 0.866025 0.5 421.349 482.988)" fill="#FBBEAE" fill-opacity="0.5"/>
<rect width="30" height="60" transform="matrix(0.866025 -0.5 0 1 421.349 422.988)" fill="#DE846E" fill-opacity="0.5"/>
</g>
<mask id="mask7_792_1574" style="mask-type:alpha" maskUnits="userSpaceOnUse" x="390" y="435" width="27" height="76">
<rect width="30" height="60" transform="matrix(0.866025 -0.5 0 1 390.224 450.091)" fill="#D9D9D9"/>
</mask>
<g mask="url(#mask7_792_1574)">
<rect width="10" height="60" transform="matrix(0.866025 0.5 0 1 407.544 430.091)" fill="#F49C86" fill-opacity="0.5"/>
<rect width="30" height="10" transform="matrix(0.866025 -0.5 0.866025 0.5 381.563 505.091)" fill="#FBBEAE" fill-opacity="0.5"/>
<rect width="30" height="60" transform="matrix(0.866025 -0.5 0 1 381.563 445.091)" fill="#DE846E" fill-opacity="0.5"/>
</g>
<mask id="mask8_792_1574" style="mask-type:alpha" maskUnits="userSpaceOnUse" x="350" y="457" width="27" height="76">
<rect width="30" height="60" transform="matrix(0.866025 -0.5 0 1 350.438 472.193)" fill="#D9D9D9"/>
</mask>
<g mask="url(#mask8_792_1574)">
<rect width="10" height="60" transform="matrix(0.866025 0.5 0 1 367.758 452.193)" fill="#F49C86" fill-opacity="0.5"/>
<rect width="30" height="10" transform="matrix(0.866025 -0.5 0.866025 0.5 341.778 527.193)" fill="#FBBEAE" fill-opacity="0.5"/>
<rect width="30" height="60" transform="matrix(0.866025 -0.5 0 1 341.778 467.193)" fill="#DE846E" fill-opacity="0.5"/>
</g>
<path d="M296.198 608.042L236.443 573.542L228.057 568.691V600.699C228.057 603.575 230.125 607.059 232.614 608.359C246.717 615.728 289.148 638.424 296.5 648.5C305.344 660.621 305.593 736.054 305.344 813.347C305.094 890.64 305.24 2730.16 305.344 3640.25L323.045 3650.47V654.542C323.045 637.422 311.026 616.603 296.198 608.042Z" fill="#1B97A3" fill-opacity="0.75"/>
<rect width="60" height="2997.36" transform="matrix(0.866025 -0.5 0 1 323.045 654.535)" fill="url(#paint27_linear_792_1574)" fill-opacity="0.75"/>
<rect width="68.5856" height="60" transform="matrix(0.866025 0.5 -0.866025 0.5 288.763 543.742)" fill="url(#paint28_linear_792_1574)" fill-opacity="0.75"/>
<path d="M323.046 654.535C323.046 637.414 311.026 616.596 296.199 608.035L348.16 578.035C362.987 586.596 375.007 607.414 375.007 624.535L323.046 654.535Z" fill="#20A1B0" fill-opacity="0.75"/>
<path d="M288.622 434C288.622 417.431 276.99 410.716 262.641 419V419C248.292 427.284 236.66 447.431 236.66 464V574L288.622 544V434Z" fill="url(#paint29_linear_792_1574)"/>
<rect width="10" height="110.237" transform="matrix(-0.866025 -0.5 0 1 236.66 464)" fill="#55C2CD" fill-opacity="0.5"/>
<path d="M281.012 417.181C275.939 414.252 269.29 415.162 262.641 419L253.98 414C260.629 410.162 267.278 409.252 272.351 412.181L281.012 417.181Z" fill="#7BE0EC" fill-opacity="0.5"/>
<path d="M236.66 464C236.66 447.431 248.292 427.284 262.641 419L253.98 414C239.632 422.284 228 442.431 228 459L236.66 464Z" fill="#55C2CD" fill-opacity="0.5"/>
<circle cx="5" cy="5" r="5" transform="matrix(-0.866025 0.5 0 1 256.713 501.619)" fill="#666666"/>
<path d="M255.445 503.816C254.6 503.328 253.492 503.479 252.383 504.119L248.053 501.619C249.162 500.979 250.27 500.828 251.115 501.316L255.445 503.816Z" fill="#8C8C8C"/>
<path d="M248.053 511.619C248.053 508.858 249.992 505.5 252.383 504.119L248.053 501.619C245.662 503 243.723 506.358 243.723 509.119L248.053 511.619Z" fill="#8C8C8C"/>
<path d="M249.321 514.422C248.476 513.934 248.053 512.899 248.053 511.619L243.723 509.119C243.723 510.399 244.146 511.434 244.991 511.922L249.321 514.422Z" fill="#404040"/>
<path d="M323.161 121.717C300.872 124.173 290.942 146.369 266.229 139.764C241.515 133.159 229.817 119.458 240.101 109.163C250.385 98.8678 284.529 82.7845 309.243 89.3897C311.431 97.5351 347.002 103.59 349.652 109.163C359.304 116.024 349.652 118.799 323.161 121.717Z" fill="#BCBCBC" fill-opacity="0.5"/>
<path d="M337.008 96.7956C324.812 95.2197 302.122 77.354 292.301 68.6182C293.157 82.7212 296.155 110.071 301.294 106.645C307.717 102.363 325.703 106.731 341.376 112.554C353.914 117.214 355.108 113.925 354.137 111.698C353.509 107.387 349.204 98.3715 337.008 96.7956Z" fill="#F0E698"/>
<path d="M289.644 135.311C284.295 136.621 277.722 127.957 275.105 123.461L300.214 113.826C298.92 120.441 294.994 134 289.644 135.311Z" fill="#E3C079"/>
<path d="M235.548 117.983C234.32 115.432 240.536 109.89 243.797 107.439L252 115.007C247.028 117.062 236.775 120.534 235.548 117.983Z" fill="#E3C079"/>
<path d="M239.258 52.2066C243.698 58.4018 238.548 62.3537 235.418 63.5552C222.99 73.1472 201.474 35.51 191.992 27.6104C184.406 21.2907 193.509 20.8645 199.008 21.4414C218.233 24.716 233.852 43.316 239.258 52.2066Z" fill="#E3C079"/>
<path d="M259.644 120.454C219.226 101.844 224.89 69.185 232.774 55.1815C239.415 37.8693 258.94 12.0089 283.916 47.0654C315.136 90.8861 310.167 143.716 259.644 120.454Z" fill="#F1CE89"/>
<path d="M225.36 27.5471C226.317 11.7442 241.738 6.95219 249.329 6.53154C252.12 6.18485 256.214 6.86334 257.913 7.24592C266.042 9.8332 268.748 13.3125 273.758 26.8418C277.933 38.116 281.766 44.4854 283.872 47.1878C284.228 47.5549 284.578 47.9514 284.918 48.3791C284.646 48.1221 284.294 47.7283 283.872 47.1878C281.093 44.3165 277.985 43.2414 276.651 43.0646C278.674 48.6832 278.511 52.7406 278.176 54.067C275.655 49.9844 272.619 48.412 271.415 48.1361C266.326 51.8224 266.67 58.8053 267.478 61.8359C264.717 55.6694 258.96 53.4178 256.427 53.0628C254.353 54.902 253.739 62.4592 253.617 66.033C253.674 66.4647 253.698 66.8716 253.68 67.2448C253.617 68.5912 253.557 67.7978 253.617 66.033C253.176 62.6957 250.709 57.8746 249.385 55.6562L246.543 65.5434C243.711 58.0689 236.114 55.3397 232.669 54.9094C234.188 52.1558 231.616 48.5814 230.14 47.1384C224.682 41.1745 224.68 31.5926 225.36 27.5471Z" fill="#F0E698"/>
<ellipse cx="2.38153" cy="3.14397" rx="2.38153" ry="3.14397" transform="matrix(0.539632 0.841901 -0.27624 0.961089 249.43 29.1738)" fill="#4A5051"/>
<ellipse cx="2.38153" cy="3.14397" rx="2.38153" ry="3.14397" transform="matrix(0.539632 0.841901 -0.27624 0.961089 233.104 27.001)" fill="#4A5051"/>
<path d="M243.949 38.8016C242.673 34.5729 238.624 34.9352 236.759 35.6449C230.849 38.8674 228.586 47.2851 228.192 51.0911C228.666 50.7081 230.698 49.9582 235.04 50.0226C239.382 50.087 241.99 49.1393 242.751 48.6574C243.682 47.1341 245.225 43.0304 243.949 38.8016Z" fill="#D59B24"/>
<path d="M275.936 56.8495C266.842 54.1079 264.993 61.2297 265.205 65.1333C270.717 90.02 288.046 105.815 296.022 110.602C308.21 118.472 329.771 128.131 315.05 110.206C309.015 102.858 291.181 60.1194 275.936 56.8495Z" fill="#E3C079"/>
<defs>
<linearGradient id="paint0_linear_792_1574" x1="87.7259" y1="0" x2="87.7259" y2="125.323" gradientUnits="userSpaceOnUse">
<stop stop-color="#F5D0C7"/>
<stop offset="1" stop-color="#ED9F8C"/>
</linearGradient>
<linearGradient id="paint1_linear_792_1574" x1="87.7259" y1="0" x2="87.7259" y2="24.8316" gradientUnits="userSpaceOnUse">
<stop stop-color="#ED9F8C"/>
<stop offset="1" stop-color="#DD7C64"/>
</linearGradient>
<linearGradient id="paint2_linear_792_1574" x1="62.6613" y1="0" x2="62.6613" y2="296.597" gradientUnits="userSpaceOnUse">
<stop stop-color="#ED9F8C"/>
<stop offset="1" stop-color="#ED9F8C" stop-opacity="0"/>
</linearGradient>
<linearGradient id="paint3_linear_792_1574" x1="87.7259" y1="0" x2="87.7259" y2="29.242" gradientUnits="userSpaceOnUse">
<stop stop-color="#F5D0C7"/>
<stop offset="1" stop-color="#ED9F8C"/>
</linearGradient>
<linearGradient id="paint4_linear_792_1574" x1="87.7259" y1="0" x2="87.7259" y2="20.7678" gradientUnits="userSpaceOnUse">
<stop stop-color="#ED9F8C"/>
<stop offset="1" stop-color="#DD7C64"/>
</linearGradient>
<linearGradient id="paint5_linear_792_1574" x1="14.621" y1="0" x2="14.621" y2="275.71" gradientUnits="userSpaceOnUse">
<stop stop-color="#ED9F8C"/>
<stop offset="1" stop-color="#ED9F8C" stop-opacity="0"/>
</linearGradient>
<linearGradient id="paint6_linear_792_1574" x1="87.7259" y1="0" x2="87.7259" y2="29.242" gradientUnits="userSpaceOnUse">
<stop stop-color="#F5D0C7"/>
<stop offset="1" stop-color="#ED9F8C"/>
</linearGradient>
<linearGradient id="paint7_linear_792_1574" x1="87.7259" y1="0" x2="87.7259" y2="254.823" gradientUnits="userSpaceOnUse">
<stop stop-color="#ED9F8C"/>
<stop offset="1" stop-color="#ED9F8C" stop-opacity="0"/>
</linearGradient>
<linearGradient id="paint8_linear_792_1574" x1="14.621" y1="0" x2="14.621" y2="254.823" gradientUnits="userSpaceOnUse">
<stop stop-color="#ED9F8C"/>
<stop offset="1" stop-color="#ED9F8C" stop-opacity="0"/>
</linearGradient>
<linearGradient id="paint9_linear_792_1574" x1="59.9117" y1="0" x2="59.9117" y2="85.5882" gradientUnits="userSpaceOnUse">
<stop stop-color="#F5D0C7"/>
<stop offset="1" stop-color="#ED9F8C"/>
</linearGradient>
<linearGradient id="paint10_linear_792_1574" x1="59.9117" y1="0" x2="59.9117" y2="16.9586" gradientUnits="userSpaceOnUse">
<stop stop-color="#ED9F8C"/>
<stop offset="1" stop-color="#DD7C64"/>
</linearGradient>
<linearGradient id="paint11_linear_792_1574" x1="42.7941" y1="0" x2="42.7941" y2="202.559" gradientUnits="userSpaceOnUse">
<stop stop-color="#ED9F8C"/>
<stop offset="1" stop-color="#ED9F8C" stop-opacity="0"/>
</linearGradient>
<linearGradient id="paint12_linear_792_1574" x1="59.9117" y1="0" x2="59.9117" y2="19.9706" gradientUnits="userSpaceOnUse">
<stop stop-color="#F5D0C7"/>
<stop offset="1" stop-color="#ED9F8C"/>
</linearGradient>
<linearGradient id="paint13_linear_792_1574" x1="59.9117" y1="0" x2="59.9117" y2="14.1832" gradientUnits="userSpaceOnUse">
<stop stop-color="#ED9F8C"/>
<stop offset="1" stop-color="#DD7C64"/>
</linearGradient>
<linearGradient id="paint14_linear_792_1574" x1="9.98529" y1="0" x2="9.98529" y2="188.294" gradientUnits="userSpaceOnUse">
<stop stop-color="#ED9F8C"/>
<stop offset="1" stop-color="#ED9F8C" stop-opacity="0"/>
</linearGradient>
<linearGradient id="paint15_linear_792_1574" x1="59.9117" y1="0" x2="59.9117" y2="19.9706" gradientUnits="userSpaceOnUse">
<stop stop-color="#F5D0C7"/>
<stop offset="1" stop-color="#ED9F8C"/>
</linearGradient>
<linearGradient id="paint16_linear_792_1574" x1="59.9117" y1="0" x2="59.9117" y2="174.029" gradientUnits="userSpaceOnUse">
<stop stop-color="#ED9F8C"/>
<stop offset="1" stop-color="#ED9F8C" stop-opacity="0"/>
</linearGradient>
<linearGradient id="paint17_linear_792_1574" x1="9.98529" y1="0" x2="9.98529" y2="174.029" gradientUnits="userSpaceOnUse">
<stop stop-color="#ED9F8C"/>
<stop offset="1" stop-color="#ED9F8C" stop-opacity="0"/>
</linearGradient>
<linearGradient id="paint18_linear_792_1574" x1="105.15" y1="0" x2="105.15" y2="150.214" gradientUnits="userSpaceOnUse">
<stop stop-color="#F5D0C7"/>
<stop offset="1" stop-color="#ED9F8C"/>
</linearGradient>
<linearGradient id="paint19_linear_792_1574" x1="105.15" y1="0" x2="105.15" y2="29.7636" gradientUnits="userSpaceOnUse">
<stop stop-color="#ED9F8C"/>
<stop offset="1" stop-color="#DD7C64"/>
</linearGradient>
<linearGradient id="paint20_linear_792_1574" x1="75.1071" y1="0" x2="75.1071" y2="355.507" gradientUnits="userSpaceOnUse">
<stop stop-color="#ED9F8C"/>
<stop offset="1" stop-color="#ED9F8C" stop-opacity="0"/>
</linearGradient>
<linearGradient id="paint21_linear_792_1574" x1="105.15" y1="0" x2="105.15" y2="35.05" gradientUnits="userSpaceOnUse">
<stop stop-color="#F5D0C7"/>
<stop offset="1" stop-color="#ED9F8C"/>
</linearGradient>
<linearGradient id="paint22_linear_792_1574" x1="105.15" y1="0" x2="105.15" y2="24.8927" gradientUnits="userSpaceOnUse">
<stop stop-color="#ED9F8C"/>
<stop offset="1" stop-color="#DD7C64"/>
</linearGradient>
<linearGradient id="paint23_linear_792_1574" x1="17.525" y1="0" x2="17.525" y2="330.471" gradientUnits="userSpaceOnUse">
<stop stop-color="#ED9F8C"/>
<stop offset="1" stop-color="#ED9F8C" stop-opacity="0"/>
</linearGradient>
<linearGradient id="paint24_linear_792_1574" x1="105.15" y1="0" x2="105.15" y2="35.05" gradientUnits="userSpaceOnUse">
<stop stop-color="#F5D0C7"/>
<stop offset="1" stop-color="#ED9F8C"/>
</linearGradient>
<linearGradient id="paint25_linear_792_1574" x1="105.15" y1="0" x2="105.15" y2="305.436" gradientUnits="userSpaceOnUse">
<stop stop-color="#ED9F8C"/>
<stop offset="1" stop-color="#ED9F8C" stop-opacity="0"/>
</linearGradient>
<linearGradient id="paint26_linear_792_1574" x1="17.525" y1="0" x2="17.525" y2="305.436" gradientUnits="userSpaceOnUse">
<stop stop-color="#ED9F8C"/>
<stop offset="1" stop-color="#ED9F8C" stop-opacity="0"/>
</linearGradient>
<linearGradient id="paint27_linear_792_1574" x1="30" y1="0" x2="30" y2="2997.36" gradientUnits="userSpaceOnUse">
<stop stop-color="#20A1B0"/>
<stop offset="1" stop-color="#137C88"/>
</linearGradient>
<linearGradient id="paint28_linear_792_1574" x1="-7.74703" y1="30.4247" x2="38.8667" y2="-23.5181" gradientUnits="userSpaceOnUse">
<stop stop-color="#1EA1AD"/>
<stop offset="1" stop-color="#45D7E5"/>
</linearGradient>
<linearGradient id="paint29_linear_792_1574" x1="262.641" y1="419" x2="323.263" y2="524" gradientUnits="userSpaceOnUse">
<stop stop-color="#FFF5ED"/>
<stop offset="1" stop-color="#E6B9A0"/>
</linearGradient>
</defs>
</svg>
