<svg width="924" height="2517" viewBox="0 0 924 2517" fill="none" xmlns="http://www.w3.org/2000/svg">
<circle cx="34" cy="34" r="34" transform="matrix(0.866025 0.5 -0.866025 0.5 516.984 709.13)" fill="#8C8C8C"/>
<path d="M475.343 743.13C475.343 758.342 480.004 772.114 487.539 782.083V2500.58C480.004 2490.61 475.343 2476.84 475.343 2461.63V743.13Z" fill="url(#paint0_linear_62_4602)"/>
<path d="M487.539 782.083C503.801 803.596 530.167 803.596 546.429 782.083V2500.58C530.167 2522.09 503.801 2522.09 487.539 2500.58V782.083Z" fill="url(#paint1_linear_62_4602)"/>
<path d="M558.625 743.13C558.625 749.769 553.965 755.779 546.429 760.13V1510.13C553.965 1505.78 558.625 1499.77 558.625 1493.13V743.13Z" fill="url(#paint2_linear_62_4602)"/>
<rect width="932.856" height="133.265" transform="matrix(-0.866025 0.5 0.866025 0.5 808.183 480.091)" fill="#8C8C8C"/>
<rect width="932.856" height="33.3163" transform="matrix(-0.866025 0.5 0 1 923.594 546.723)" fill="#666666"/>
<rect width="133.265" height="33.3163" transform="matrix(-0.866025 -0.5 0 1 115.718 1013.15)" fill="#404040"/>
<rect width="909.263" height="32.4737" transform="matrix(-0.866025 0.5 0.866025 0.5 823.83 47.4875)" fill="white"/>
<rect width="909.263" height="454.632" transform="matrix(-0.866025 0.5 0 1 851.953 63.7244)" fill="#828BAC"/>
<rect width="32.4737" height="454.632" transform="matrix(-0.866025 -0.5 0 1 64.5088 518.356)" fill="#A0A6C0"/>
<rect width="909.263" height="32.4737" transform="matrix(-0.866025 0.5 0.866025 0.5 863.13 70.2383)" fill="white"/>
<rect width="909.263" height="454.632" transform="matrix(-0.866025 0.5 0 1 891.253 86.4751)" fill="#C1C1C1"/>
<path d="M103.809 541.107L891.253 86.4751V541.107L497.531 768.422L103.809 541.107Z" fill="url(#paint3_linear_62_4602)" fill-opacity="0.5"/>
<rect width="32.4737" height="454.632" transform="matrix(-0.866025 -0.5 0 1 103.809 541.107)" fill="#A0A6C0"/>
<rect width="19.3166" height="57.9497" transform="matrix(-0.866025 0.5 0.866025 0.5 774.638 75.2986)" fill="#8C8C8C"/>
<rect width="19.3166" height="7.72663" transform="matrix(-0.866025 0.5 0 1 824.823 104.273)" fill="#666666"/>
<rect width="57.9497" height="7.72663" transform="matrix(-0.866025 -0.5 0 1 808.094 113.932)" fill="#404040"/>
<path d="M804.476 96.8309V109.487L817.401 101.139C817.288 98.53 817.186 95.676 817.105 92.6716C817.03 79.7359 817.921 59.2278 818.495 48.5917L811.199 42.8264C807.73 54.1888 805.272 83.5637 804.476 96.8309Z" fill="#404040"/>
<path d="M815.01 68.211L863.861 75.5051L872.649 110.493C859.715 142.815 822.184 136.548 805.035 129.374L815.01 68.211Z" fill="url(#paint4_linear_62_4602)"/>
<path d="M771.472 17.1297L722.621 24.4238L713.833 59.4115C726.768 91.7341 764.298 85.4667 781.447 78.2927L771.472 17.1297Z" fill="url(#paint5_linear_62_4602)"/>
<rect width="23.1799" height="38.6331" transform="matrix(-0.866025 0.5 0.866025 0.5 833.599 46.733)" fill="#8C8C8C"/>
<rect width="23.1799" height="11.5899" transform="matrix(-0.866025 0.5 0 1 867.056 66.0494)" fill="#666666"/>
<rect width="38.6331" height="11.5899" transform="matrix(-0.866025 -0.5 0 1 846.982 77.6395)" fill="#404040"/>
<path d="M845.139 63.7082C841.907 51.1418 831.836 26.8167 817.402 30.048C815.829 29.1802 812.933 32.9794 809.983 48.6699L818.039 52.0591C819.018 43.3353 820.739 37.8813 823.584 39.7424C824.008 40.032 824.46 40.4733 824.942 41.0887C827.994 45.4868 834.313 56.1681 835.175 63.7082H845.139Z" fill="#404040"/>
<rect width="23.1799" height="38.6331" transform="matrix(-0.866025 0.5 0.866025 0.5 743.204 0.329956)" fill="#8C8C8C"/>
<rect width="23.1799" height="11.5899" transform="matrix(-0.866025 0.5 0 1 776.661 19.6464)" fill="#666666"/>
<rect width="38.6331" height="11.5899" transform="matrix(-0.866025 -0.5 0 1 756.587 31.2366)" fill="#404040"/>
<path d="M783.671 78.0962V82.2744L770.899 90.7524C771.009 88.2446 771.103 85.2911 771.176 82.0467C771.245 67.0215 770.235 40.6664 769.651 29.8569L776.948 24.0917C780.417 35.454 782.875 64.829 783.671 78.0962Z" fill="#404040"/>
<path d="M770.746 11.3139C772.788 11.8889 775.216 14.2453 778.166 29.9358L770.11 33.325C769.671 29.4166 769.374 25.8792 768.98 23.329C768.476 20.7776 767.818 18.9881 767.018 19.3169L766.023 19.1553C764.715 18.9427 763.831 20.4517 764.656 21.489L756.245 23.9732C760.187 11.4802 767.899 10.5117 770.746 11.3139Z" fill="#404040"/>
<rect width="19.3166" height="57.9497" transform="matrix(-0.866025 0.5 0.866025 0.5 642.429 151.226)" fill="#8C8C8C"/>
<rect width="19.3166" height="7.72663" transform="matrix(-0.866025 0.5 0 1 692.614 180.201)" fill="#666666"/>
<rect width="57.9497" height="7.72663" transform="matrix(-0.866025 -0.5 0 1 675.886 189.859)" fill="#404040"/>
<path d="M672.268 172.759V185.415L685.193 177.067C685.079 174.458 684.977 171.604 684.896 168.599C684.821 155.664 685.713 135.156 686.287 124.519L678.991 118.754C675.521 130.116 673.063 159.491 672.268 172.759Z" fill="#404040"/>
<path d="M682.802 144.139L731.652 151.433L740.44 186.421C727.506 218.743 689.975 212.476 672.827 205.302L682.802 144.139Z" fill="url(#paint6_linear_62_4602)"/>
<path d="M639.263 93.0576L590.413 100.352L581.625 135.339C594.559 167.662 632.09 161.395 649.238 154.221L639.263 93.0576Z" fill="url(#paint7_linear_62_4602)"/>
<rect width="23.1799" height="38.6331" transform="matrix(-0.866025 0.5 0.866025 0.5 701.391 122.661)" fill="#8C8C8C"/>
<rect width="23.1799" height="11.5899" transform="matrix(-0.866025 0.5 0 1 734.848 141.977)" fill="#666666"/>
<rect width="38.6331" height="11.5899" transform="matrix(-0.866025 -0.5 0 1 714.774 153.567)" fill="#404040"/>
<path d="M712.93 139.636C709.699 127.07 699.627 102.745 685.194 105.976C683.621 105.108 680.724 108.907 677.775 124.598L685.831 127.987C686.81 119.263 688.531 113.809 691.376 115.67C691.799 115.96 692.252 116.401 692.734 117.017C695.786 121.415 702.105 132.096 702.967 139.636H712.93Z" fill="#404040"/>
<rect width="23.1799" height="38.6331" transform="matrix(-0.866025 0.5 0.866025 0.5 610.995 76.2578)" fill="#8C8C8C"/>
<rect width="23.1799" height="11.5899" transform="matrix(-0.866025 0.5 0 1 644.452 95.5742)" fill="#666666"/>
<rect width="38.6331" height="11.5899" transform="matrix(-0.866025 -0.5 0 1 624.378 107.164)" fill="#404040"/>
<path d="M651.462 154.024V158.202L638.691 166.68C638.8 164.172 638.895 161.219 638.967 157.975C639.036 142.949 638.027 116.594 637.443 105.785L644.739 100.02C648.209 111.382 650.667 140.757 651.462 154.024Z" fill="#404040"/>
<path d="M638.538 87.2417C640.579 87.8167 643.008 90.1731 645.957 105.864L637.901 109.253C637.462 105.344 637.165 101.807 636.772 99.2568C636.267 96.7055 635.609 94.916 634.809 95.2447L633.814 95.0831C632.506 94.8706 631.622 96.3796 632.447 97.4168L624.036 99.9011C627.978 87.408 635.69 86.4396 638.538 87.2417Z" fill="#404040"/>
<rect width="19.3166" height="57.9497" transform="matrix(-0.866025 0.5 0.866025 0.5 510.22 227.154)" fill="#8C8C8C"/>
<rect width="19.3166" height="7.72663" transform="matrix(-0.866025 0.5 0 1 560.406 256.129)" fill="#666666"/>
<rect width="57.9497" height="7.72663" transform="matrix(-0.866025 -0.5 0 1 543.677 265.787)" fill="#404040"/>
<path d="M540.059 248.686V261.343L552.985 252.995C552.871 250.386 552.769 247.532 552.688 244.527C552.613 231.592 553.504 211.083 554.078 200.447L546.782 194.682C543.313 206.044 540.855 235.419 540.059 248.686Z" fill="#404040"/>
<path d="M550.593 220.067L599.444 227.361L608.232 262.349C595.298 294.671 557.767 288.404 540.618 281.23L550.593 220.067Z" fill="url(#paint8_linear_62_4602)"/>
<path d="M507.055 168.985L458.204 176.28L449.416 211.267C462.351 243.59 499.881 237.322 517.03 230.148L507.055 168.985Z" fill="url(#paint9_linear_62_4602)"/>
<rect width="23.1799" height="38.6331" transform="matrix(-0.866025 0.5 0.866025 0.5 569.182 198.589)" fill="#8C8C8C"/>
<rect width="23.1799" height="11.5899" transform="matrix(-0.866025 0.5 0 1 602.639 217.905)" fill="#666666"/>
<rect width="38.6331" height="11.5899" transform="matrix(-0.866025 -0.5 0 1 582.565 229.495)" fill="#404040"/>
<path d="M580.722 215.564C577.49 202.997 567.419 178.672 552.985 181.904C551.413 181.036 548.516 184.835 545.566 200.526L553.622 203.915C554.602 195.191 556.322 189.737 559.167 191.598C559.591 191.888 560.043 192.329 560.526 192.944C563.577 197.343 569.897 208.024 570.758 215.564H580.722Z" fill="#404040"/>
<rect width="23.1799" height="38.6331" transform="matrix(-0.866025 0.5 0.866025 0.5 478.787 152.186)" fill="#8C8C8C"/>
<rect width="23.1799" height="11.5899" transform="matrix(-0.866025 0.5 0 1 512.244 171.502)" fill="#666666"/>
<rect width="38.6331" height="11.5899" transform="matrix(-0.866025 -0.5 0 1 492.17 183.092)" fill="#404040"/>
<path d="M519.253 229.952V234.13L506.482 242.608C506.592 240.1 506.686 237.147 506.758 233.902C506.828 218.877 505.818 192.522 505.234 181.713L512.531 175.947C516 187.31 518.458 216.685 519.253 229.952Z" fill="#404040"/>
<path d="M506.329 163.17C508.371 163.745 510.799 166.101 513.749 181.791L505.693 185.181C505.254 181.272 504.957 177.735 504.563 175.185C504.059 172.633 503.401 170.844 502.6 171.173L501.606 171.011C500.298 170.798 499.414 172.307 500.238 173.345L491.828 175.829C495.77 163.336 503.482 162.367 506.329 163.17Z" fill="#404040"/>
<rect width="19.3166" height="57.9497" transform="matrix(-0.866025 0.5 0.866025 0.5 378.012 303.082)" fill="#8C8C8C"/>
<rect width="19.3166" height="7.72663" transform="matrix(-0.866025 0.5 0 1 428.197 332.057)" fill="#666666"/>
<rect width="57.9497" height="7.72663" transform="matrix(-0.866025 -0.5 0 1 411.469 341.715)" fill="#404040"/>
<path d="M407.851 324.614V337.271L420.776 328.923C420.662 326.313 420.56 323.459 420.48 320.455C420.404 307.519 421.296 287.011 421.87 276.375L414.574 270.61C411.104 281.972 408.646 311.347 407.851 324.614Z" fill="#404040"/>
<path d="M418.385 295.995L467.235 303.289L476.023 338.276C463.089 370.599 425.558 364.332 408.41 357.158L418.385 295.995Z" fill="url(#paint10_linear_62_4602)"/>
<path d="M374.846 244.913L325.996 252.207L317.208 287.195C330.142 319.518 367.673 313.25 384.821 306.076L374.846 244.913Z" fill="url(#paint11_linear_62_4602)"/>
<rect width="23.1799" height="38.6331" transform="matrix(-0.866025 0.5 0.866025 0.5 436.974 274.517)" fill="#8C8C8C"/>
<rect width="23.1799" height="11.5899" transform="matrix(-0.866025 0.5 0 1 470.431 293.833)" fill="#666666"/>
<rect width="38.6331" height="11.5899" transform="matrix(-0.866025 -0.5 0 1 450.357 305.423)" fill="#404040"/>
<path d="M448.513 291.492C445.282 278.925 435.21 254.6 420.777 257.832C419.204 256.964 416.307 260.763 413.358 276.453L421.414 279.843C422.393 271.119 424.114 265.665 426.959 267.526C427.382 267.816 427.835 268.257 428.317 268.872C431.369 273.27 437.688 283.952 438.55 291.492H448.513Z" fill="#404040"/>
<rect width="23.1799" height="38.6331" transform="matrix(-0.866025 0.5 0.866025 0.5 346.578 228.113)" fill="#8C8C8C"/>
<rect width="23.1799" height="11.5899" transform="matrix(-0.866025 0.5 0 1 380.035 247.43)" fill="#666666"/>
<rect width="38.6331" height="11.5899" transform="matrix(-0.866025 -0.5 0 1 359.961 259.02)" fill="#404040"/>
<path d="M387.045 305.88V310.058L374.274 318.536C374.383 316.028 374.478 313.075 374.55 309.83C374.619 294.805 373.61 268.45 373.026 257.64L380.322 251.875C383.792 263.238 386.25 292.613 387.045 305.88Z" fill="#404040"/>
<path d="M374.121 239.097C376.162 239.672 378.591 242.029 381.54 257.719L373.484 261.109C373.045 257.2 372.748 253.663 372.355 251.113C371.85 248.561 371.192 246.772 370.392 247.1L369.397 246.939C368.089 246.726 367.205 248.235 368.03 249.273L359.619 251.757C363.561 239.264 371.273 238.295 374.121 239.097Z" fill="#404040"/>
<rect width="19.3166" height="57.9497" transform="matrix(-0.866025 0.5 0.866025 0.5 245.803 379.01)" fill="#8C8C8C"/>
<rect width="19.3166" height="7.72663" transform="matrix(-0.866025 0.5 0 1 295.988 407.985)" fill="#666666"/>
<rect width="57.9497" height="7.72663" transform="matrix(-0.866025 -0.5 0 1 279.259 417.643)" fill="#404040"/>
<path d="M275.642 400.542V413.198L288.567 404.85C288.453 402.241 288.351 399.387 288.27 396.383C288.195 383.447 289.086 362.939 289.661 352.303L282.364 346.537C278.895 357.9 276.437 387.275 275.642 400.542Z" fill="#404040"/>
<path d="M286.175 371.922L335.026 379.216L343.814 414.204C330.88 446.527 293.349 440.259 276.201 433.085L286.175 371.922Z" fill="url(#paint12_linear_62_4602)"/>
<path d="M242.637 320.841L193.787 328.135L184.999 363.123C197.933 395.445 235.464 389.178 252.612 382.004L242.637 320.841Z" fill="url(#paint13_linear_62_4602)"/>
<rect width="23.1799" height="38.6331" transform="matrix(-0.866025 0.5 0.866025 0.5 304.765 350.444)" fill="#8C8C8C"/>
<rect width="23.1799" height="11.5899" transform="matrix(-0.866025 0.5 0 1 338.222 369.761)" fill="#666666"/>
<rect width="38.6331" height="11.5899" transform="matrix(-0.866025 -0.5 0 1 318.147 381.351)" fill="#404040"/>
<path d="M316.304 367.419C313.073 354.853 303.001 330.528 288.568 333.759C286.995 332.891 284.098 336.691 281.148 352.381L289.205 355.77C290.184 347.046 291.905 341.593 294.75 343.454C295.173 343.743 295.626 344.184 296.108 344.8C299.16 349.198 305.479 359.879 306.341 367.419H316.304Z" fill="#404040"/>
<rect width="23.1799" height="38.6331" transform="matrix(-0.866025 0.5 0.866025 0.5 214.369 304.041)" fill="#8C8C8C"/>
<rect width="23.1799" height="11.5899" transform="matrix(-0.866025 0.5 0 1 247.826 323.358)" fill="#666666"/>
<rect width="38.6331" height="11.5899" transform="matrix(-0.866025 -0.5 0 1 227.752 334.948)" fill="#404040"/>
<path d="M254.836 381.807V385.986L242.064 394.464C242.174 391.956 242.268 389.002 242.341 385.758C242.41 370.733 241.4 344.378 240.816 333.568L248.113 327.803C251.582 339.165 254.04 368.54 254.836 381.807Z" fill="#404040"/>
<path d="M241.912 315.025C243.953 315.6 246.381 317.956 249.331 333.647L241.275 337.036C240.836 333.128 240.539 329.59 240.145 327.04C239.641 324.489 238.983 322.699 238.183 323.028L237.188 322.866C235.88 322.654 234.996 324.163 235.821 325.2L227.41 327.684C231.352 315.191 239.064 314.223 241.912 315.025Z" fill="#404040"/>
<rect width="19.3166" height="57.9497" transform="matrix(-0.866025 0.5 0.866025 0.5 113.595 454.938)" fill="#8C8C8C"/>
<rect width="19.3166" height="7.72663" transform="matrix(-0.866025 0.5 0 1 163.78 483.913)" fill="#666666"/>
<rect width="57.9497" height="7.72663" transform="matrix(-0.866025 -0.5 0 1 147.052 493.571)" fill="#404040"/>
<path d="M143.434 476.47V489.126L156.359 480.778C156.245 478.169 156.143 475.315 156.063 472.311C155.987 459.375 156.879 438.867 157.453 428.231L150.157 422.465C146.687 433.828 144.229 463.203 143.434 476.47Z" fill="#404040"/>
<path d="M153.968 447.85L202.818 455.144L211.606 490.132C198.672 522.455 161.141 516.187 143.993 509.013L153.968 447.85Z" fill="url(#paint14_linear_62_4602)"/>
<path d="M110.43 396.769L61.5789 404.063L52.791 439.051C65.7253 471.373 103.256 465.106 120.404 457.932L110.43 396.769Z" fill="url(#paint15_linear_62_4602)"/>
<rect width="23.1799" height="38.6331" transform="matrix(-0.866025 0.5 0.866025 0.5 172.557 426.372)" fill="#8C8C8C"/>
<rect width="23.1799" height="11.5899" transform="matrix(-0.866025 0.5 0 1 206.014 445.689)" fill="#666666"/>
<rect width="38.6331" height="11.5899" transform="matrix(-0.866025 -0.5 0 1 185.94 457.279)" fill="#404040"/>
<path d="M184.096 443.347C180.865 430.781 170.793 406.456 156.36 409.687C154.787 408.819 151.89 412.619 148.941 428.309L156.997 431.698C157.976 422.974 159.697 417.521 162.542 419.382C162.965 419.671 163.418 420.112 163.9 420.728C166.952 425.126 173.271 435.807 174.133 443.347H184.096Z" fill="#404040"/>
<rect width="23.1799" height="38.6331" transform="matrix(-0.866025 0.5 0.866025 0.5 82.1611 379.969)" fill="#8C8C8C"/>
<rect width="23.1799" height="11.5899" transform="matrix(-0.866025 0.5 0 1 115.618 399.286)" fill="#666666"/>
<rect width="38.6331" height="11.5899" transform="matrix(-0.866025 -0.5 0 1 95.5442 410.876)" fill="#404040"/>
<path d="M122.628 457.735V461.913L109.857 470.391C109.966 467.884 110.06 464.93 110.133 461.686C110.202 446.661 109.192 420.305 108.609 409.496L115.905 403.731C119.374 415.093 121.832 444.468 122.628 457.735Z" fill="#404040"/>
<path d="M109.704 390.953C111.745 391.528 114.173 393.884 117.123 409.575L109.067 412.964C108.628 409.056 108.331 405.518 107.938 402.968C107.433 400.417 106.775 398.627 105.975 398.956L104.98 398.794C103.672 398.582 102.788 400.091 103.613 401.128L95.2021 403.612C99.144 391.119 106.856 390.151 109.704 390.953Z" fill="#404040"/>
<path d="M409.868 585.546C406.966 587.221 404.13 588.309 401.359 588.809C398.588 589.309 396.25 589.034 394.345 587.984L397.917 578.347C399.996 578.897 402.009 579.059 403.957 578.834C405.949 578.584 407.811 577.959 409.543 576.959C410.885 576.184 411.925 575.334 412.661 574.409C413.397 573.484 413.765 572.496 413.765 571.446C413.765 570.696 413.549 570.246 413.116 570.096C412.683 569.896 412.011 569.884 411.102 570.059C410.236 570.209 409.154 570.459 407.855 570.809C405.257 571.309 403.092 571.584 401.36 571.634C399.628 571.684 398.329 571.284 397.463 570.434C396.597 569.534 396.164 567.984 396.164 565.784C396.164 563.134 396.727 560.509 397.853 557.909C399.022 555.234 400.668 552.734 402.789 550.409C404.911 548.084 407.444 546.071 410.389 544.371C412.727 543.021 415 542.133 417.208 541.708C419.46 541.258 421.56 541.471 423.508 542.346L419.481 552.171C417.533 551.746 415.801 551.621 414.285 551.796C412.77 551.971 411.298 552.471 409.869 553.296C409.133 553.721 408.461 554.209 407.855 554.759C407.249 555.309 406.751 555.946 406.361 556.671C406.015 557.321 405.842 558.021 405.842 558.771C405.842 559.521 406.015 560.021 406.361 560.271C406.751 560.496 407.335 560.559 408.115 560.459C408.938 560.284 409.955 560.071 411.167 559.821C413.982 559.146 416.32 558.771 418.182 558.696C420.044 558.571 421.429 558.971 422.339 559.896C423.291 560.746 423.768 562.346 423.767 564.696C423.767 568.696 422.511 572.571 420 576.321C417.532 579.996 414.154 583.071 409.868 585.546ZM450.927 558.988C449.974 559.988 448.914 561.051 447.744 562.176C446.619 563.276 445.428 564.314 444.172 565.289C442.916 566.314 441.682 567.176 440.47 567.876C438.738 568.876 437.136 569.476 435.664 569.677C434.235 569.802 433.087 569.339 432.221 568.289C431.399 567.214 430.987 565.402 430.987 562.852L430.988 542.302L426.637 544.814L426.637 535.739L430.989 533.227L430.989 520.702L441.381 514.701L441.381 527.226L448.33 523.214L448.33 532.289L441.38 536.301L441.38 552.726C441.38 554.026 441.661 554.814 442.224 555.089C442.787 555.314 443.501 555.176 444.367 554.676C445.103 554.251 445.883 553.651 446.706 552.876C447.572 552.076 448.308 551.326 448.914 550.626L450.927 558.988ZM452.833 548.213C452.833 545.613 453.461 542.975 454.717 540.3C455.973 537.625 457.705 535.1 459.913 532.725C462.122 530.3 464.655 528.263 467.513 526.612C468.898 525.812 470.262 525.175 471.604 524.7C472.947 524.175 474.116 523.875 475.112 523.8L475.112 522.075C475.112 519.925 474.549 518.6 473.423 518.1C472.297 517.6 470.587 518.012 468.292 519.337C466.387 520.437 464.59 521.85 462.901 523.575C461.256 525.275 459.502 527.363 457.64 529.838L454.523 523.988C456.775 520.988 459.113 518.363 461.538 516.113C464.006 513.838 466.604 511.912 469.332 510.337C474.441 507.387 478.403 506.525 481.218 507.749C484.075 508.899 485.504 512.149 485.504 517.499L485.503 527.774C485.503 528.974 485.655 529.737 485.958 530.062C486.304 530.312 486.889 530.249 487.712 529.874L487.711 539.849C486.845 540.549 486.023 541.174 485.243 541.724C484.507 542.249 483.857 542.674 483.295 542.999C481.346 544.124 479.852 544.537 478.813 544.237C477.817 543.912 477.189 543.05 476.93 541.65L476.735 540.037C475.219 543.162 473.401 545.937 471.279 548.362C469.2 550.712 467.014 552.55 464.719 553.875C462.467 555.175 460.432 555.8 458.613 555.75C456.838 555.675 455.431 554.988 454.392 553.688C453.353 552.388 452.833 550.563 452.833 548.213ZM473.487 537.787C473.964 537.062 474.354 536.337 474.657 535.612C474.96 534.887 475.111 534.275 475.111 533.775L475.111 530.25C474.245 530.35 473.271 530.612 472.189 531.037C471.15 531.387 470.175 531.825 469.266 532.35C467.361 533.45 465.78 534.863 464.525 536.588C463.269 538.263 462.641 539.9 462.641 541.5C462.641 542.4 462.857 543.1 463.29 543.6C463.723 544.1 464.308 544.363 465.044 544.388C465.823 544.388 466.733 544.087 467.772 543.487C468.811 542.887 469.85 542.062 470.889 541.012C471.929 539.962 472.795 538.887 473.487 537.787ZM514.799 522.109C513.847 523.109 512.786 524.171 511.617 525.296C510.491 526.396 509.3 527.434 508.044 528.409C506.789 529.434 505.554 530.296 504.342 530.997C502.61 531.997 501.008 532.597 499.536 532.797C498.107 532.922 496.959 532.459 496.094 531.409C495.271 530.334 494.86 528.522 494.86 525.972L494.86 505.422L490.509 507.935L490.509 498.86L494.861 496.347L494.861 483.822L505.253 477.821L505.253 490.346L512.203 486.334L512.202 495.409L505.253 499.421L505.252 515.846C505.252 517.146 505.533 517.934 506.096 518.209C506.659 518.434 507.374 518.296 508.24 517.796C508.976 517.371 509.755 516.771 510.578 515.996C511.444 515.196 512.18 514.446 512.786 513.746L514.799 522.109ZM531.903 515.083C529.002 516.758 526.166 517.845 523.395 518.345C520.624 518.845 518.286 518.571 516.38 517.521L519.953 507.883C522.031 508.433 524.045 508.595 525.993 508.37C527.985 508.12 529.847 507.495 531.579 506.495C532.921 505.72 533.961 504.87 534.697 503.945C535.433 503.02 535.801 502.032 535.801 500.982C535.801 500.232 535.584 499.782 535.151 499.632C534.718 499.432 534.047 499.42 533.138 499.595C532.272 499.745 531.19 499.995 529.891 500.345C527.293 500.845 525.128 501.12 523.396 501.17C521.664 501.22 520.365 500.821 519.499 499.971C518.633 499.071 518.2 497.521 518.2 495.321C518.2 492.671 518.763 490.046 519.889 487.446C521.058 484.77 522.704 482.27 524.825 479.945C526.947 477.62 529.48 475.608 532.425 473.908C534.763 472.557 537.036 471.67 539.244 471.245C541.496 470.795 543.596 471.007 545.544 471.882L541.517 481.707C539.569 481.282 537.837 481.157 536.321 481.332C534.806 481.507 533.334 482.008 531.905 482.833C531.169 483.258 530.497 483.745 529.891 484.295C529.285 484.845 528.787 485.483 528.397 486.208C528.051 486.858 527.878 487.558 527.878 488.308C527.878 489.058 528.051 489.558 528.397 489.808C528.787 490.033 529.371 490.095 530.151 489.995C530.973 489.82 531.991 489.608 533.203 489.358C536.018 488.682 538.356 488.307 540.218 488.232C542.08 488.107 543.465 488.507 544.375 489.432C545.327 490.282 545.803 491.882 545.803 494.232C545.803 498.232 544.547 502.107 542.036 505.857C539.568 509.532 536.19 512.607 531.903 515.083ZM579.543 486.976C577.291 488.276 575.234 488.963 573.372 489.038C571.51 489.063 569.908 488.564 568.566 487.539C567.267 486.439 566.25 484.901 565.514 482.926C564.778 480.951 564.41 478.589 564.41 475.839C564.41 472.939 564.8 470.039 565.579 467.139C566.359 464.239 567.441 461.464 568.827 458.814C570.256 456.089 571.923 453.676 573.828 451.576C575.777 449.401 577.92 447.638 580.259 446.288C582.813 444.813 585.065 444.163 587.013 444.338C588.962 444.463 590.521 445.313 591.69 446.888L591.69 440.438L600.718 435.225L600.717 471.9C600.716 475.9 599.872 479.837 598.183 483.712C596.538 487.563 594.221 491.125 591.233 494.4C588.289 497.7 584.868 500.475 580.971 502.726C577.334 504.826 574.194 505.938 571.553 506.063C568.955 506.214 566.682 505.601 564.734 504.226L570.32 494.476C571.575 495.401 573.134 495.801 574.996 495.676C576.858 495.601 578.85 494.951 580.971 493.726C582.66 492.751 584.219 491.501 585.648 489.975C587.077 488.45 588.202 486.675 589.025 484.65C589.891 482.6 590.324 480.35 590.324 477.9L590.325 474.075C589.285 476.825 587.77 479.35 585.778 481.65C583.829 483.926 581.751 485.701 579.543 486.976ZM583.115 475.388C583.938 474.913 584.696 474.35 585.389 473.7C586.125 472.975 586.796 472.213 587.402 471.413C588.008 470.563 588.571 469.663 589.091 468.713C589.61 467.713 590.022 466.725 590.325 465.75L590.325 457.5C589.892 456.35 589.265 455.513 588.442 454.988C587.619 454.413 586.71 454.138 585.714 454.163C584.718 454.188 583.679 454.513 582.596 455.138C581.514 455.763 580.496 456.626 579.544 457.726C578.591 458.826 577.768 460.101 577.075 461.551C576.426 462.926 575.906 464.351 575.517 465.826C575.17 467.276 574.997 468.676 574.997 470.026C574.997 471.476 575.192 472.688 575.581 473.663C576.014 474.613 576.599 475.351 577.335 475.876C578.071 476.351 578.937 476.551 579.933 476.476C580.929 476.401 581.989 476.038 583.115 475.388ZM624.076 461.862C621.175 463.537 618.577 464.487 616.282 464.712C614.03 464.913 612.125 464.513 610.566 463.513C609.008 462.513 607.817 461.025 606.994 459.05C606.215 457.05 605.825 454.7 605.825 452C605.826 449.25 606.215 446.425 606.995 443.525C607.818 440.6 609.009 437.738 610.567 434.938C612.126 432.138 614.032 429.538 616.283 427.137C618.578 424.712 621.176 422.662 624.077 420.987C626.978 419.312 629.555 418.374 631.806 418.174C634.058 417.974 635.963 418.374 637.522 419.374C639.081 420.374 640.271 421.862 641.094 423.837C641.917 425.812 642.328 428.174 642.328 430.924C642.328 433.624 641.916 436.437 641.093 439.362C640.271 442.287 639.08 445.149 637.521 447.949C635.962 450.749 634.057 453.349 631.805 455.749C629.553 458.149 626.977 460.187 624.076 461.862ZM616.477 445.85C616.477 447.9 616.802 449.512 617.451 450.687C618.144 451.837 619.053 452.512 620.179 452.712C621.305 452.912 622.604 452.587 624.076 451.737C625.505 450.912 626.782 449.75 627.908 448.25C629.077 446.674 629.987 444.924 630.636 442.999C631.286 441.074 631.611 439.112 631.611 437.112C631.611 435.062 631.286 433.449 630.637 432.274C629.987 431.099 629.078 430.424 627.909 430.25C626.783 430.05 625.506 430.362 624.077 431.187C622.605 432.037 621.306 433.212 620.18 434.712C619.054 436.212 618.145 437.937 617.452 439.887C616.802 441.812 616.477 443.8 616.477 445.85ZM483.049 630.539L472.657 636.54L472.658 614.415C472.658 611.865 472.203 610.252 471.294 609.577C470.428 608.877 469.259 608.952 467.787 609.802C467.007 610.252 466.12 611.065 465.124 612.24C464.171 613.34 463.283 614.653 462.461 616.178C461.638 617.703 461.01 619.29 460.577 620.94L460.576 643.515L450.184 649.516L450.186 594.765L460.578 588.765L460.577 610.74C461.833 607.665 463.479 604.915 465.514 602.49C467.592 599.99 469.866 598.027 472.334 596.602C474.672 595.252 476.534 594.627 477.919 594.727C479.348 594.802 480.431 595.377 481.167 596.452C481.903 597.477 482.401 598.789 482.66 600.389C482.92 601.989 483.05 603.639 483.05 605.339L483.049 630.539ZM506.256 617.889C503.355 619.565 500.779 620.527 498.527 620.777C496.275 620.977 494.349 620.615 492.747 619.69C491.188 618.74 489.997 617.303 489.175 615.378C488.352 613.403 487.941 611.09 487.941 608.44C487.941 604.64 488.656 600.778 490.085 596.853C491.557 592.853 493.657 589.115 496.385 585.64C499.113 582.115 502.404 579.24 506.258 577.014C510.111 574.789 513.38 573.852 516.065 574.202C518.793 574.526 520.871 575.826 522.3 578.101C523.729 580.326 524.443 583.239 524.443 586.839C524.443 587.539 524.4 588.264 524.313 589.014C524.27 589.689 524.226 590.289 524.183 590.814L498.982 605.365C499.112 607.04 499.523 608.277 500.216 609.077C500.952 609.852 501.883 610.24 503.009 610.24C504.135 610.19 505.325 609.802 506.581 609.077C508.14 608.177 509.591 606.914 510.933 605.289C512.319 603.639 513.271 601.939 513.791 600.189L522.624 597.939C521.758 600.489 520.524 603.026 518.922 605.551C517.363 608.002 515.501 610.302 513.336 612.452C511.214 614.577 508.854 616.389 506.256 617.889ZM498.723 598.165L513.531 589.614C513.358 588.064 512.947 586.877 512.298 586.052C511.648 585.177 510.782 584.727 509.7 584.702C508.617 584.627 507.426 584.964 506.127 585.714C504.785 586.49 503.573 587.54 502.49 588.865C501.451 590.115 500.607 591.552 499.957 593.177C499.307 594.752 498.896 596.415 498.723 598.165ZM550.782 562.331C548.27 563.781 545.997 565.569 543.962 567.694C541.927 569.769 540.455 571.969 539.545 574.294L539.544 597.919L529.152 603.919L529.154 564.544L538.701 559.031L538.701 566.981C539.87 563.656 541.386 560.706 543.248 558.131C545.11 555.556 547.058 553.656 549.093 552.431C549.57 552.156 549.916 551.956 550.133 551.831C550.392 551.681 550.609 551.581 550.782 551.531L550.782 562.331ZM571.207 580.387C568.305 582.062 565.729 583.025 563.478 583.275C561.226 583.475 559.299 583.112 557.697 582.188C556.138 581.238 554.948 579.8 554.125 577.875C553.302 575.9 552.891 573.588 552.891 570.938C552.891 567.138 553.606 563.275 555.035 559.35C556.507 555.35 558.608 551.612 561.336 548.137C564.064 544.612 567.354 541.737 571.208 539.512C575.062 537.287 578.331 536.349 581.016 536.699C583.743 537.024 585.822 538.324 587.251 540.599C588.679 542.824 589.394 545.736 589.393 549.336C589.393 550.036 589.35 550.761 589.264 551.511C589.22 552.186 589.177 552.786 589.134 553.311L563.933 567.862C564.063 569.537 564.474 570.775 565.167 571.575C565.903 572.35 566.834 572.737 567.959 572.737C569.085 572.687 570.276 572.3 571.532 571.574C573.09 570.674 574.541 569.412 575.883 567.787C577.269 566.137 578.222 564.437 578.741 562.687L587.574 560.436C586.708 562.986 585.474 565.524 583.872 568.049C582.313 570.499 580.451 572.799 578.286 574.949C576.164 577.074 573.805 578.887 571.207 580.387ZM563.673 560.662L578.482 552.112C578.309 550.562 577.898 549.374 577.248 548.549C576.599 547.674 575.733 547.224 574.65 547.199C573.568 547.124 572.377 547.462 571.078 548.212C569.736 548.987 568.523 550.037 567.441 551.362C566.401 552.612 565.557 554.05 564.907 555.675C564.258 557.25 563.846 558.912 563.673 560.662Z" fill="#5F6364"/>
<defs>
<linearGradient id="paint0_linear_62_4602" x1="481.441" y1="743.13" x2="481.441" y2="2500.58" gradientUnits="userSpaceOnUse">
<stop offset="0.515015" stop-color="#666666"/>
<stop offset="1" stop-color="#666666" stop-opacity="0"/>
</linearGradient>
<linearGradient id="paint1_linear_62_4602" x1="516.984" y1="782.083" x2="516.984" y2="2516.71" gradientUnits="userSpaceOnUse">
<stop offset="0.310015" stop-color="#404040"/>
<stop offset="1" stop-color="#404040" stop-opacity="0"/>
</linearGradient>
<linearGradient id="paint2_linear_62_4602" x1="552.527" y1="743.13" x2="552.527" y2="1510.13" gradientUnits="userSpaceOnUse">
<stop offset="0.310015" stop-color="#404040"/>
<stop offset="1" stop-color="#404040" stop-opacity="0"/>
</linearGradient>
<linearGradient id="paint3_linear_62_4602" x1="359.328" y1="333.199" x2="664.089" y2="577.537" gradientUnits="userSpaceOnUse">
<stop stop-color="#7A7A7A"/>
<stop offset="1" stop-color="#B5B5B5" stop-opacity="0"/>
</linearGradient>
<linearGradient id="paint4_linear_62_4602" x1="832.619" y1="66.1726" x2="840.555" y2="134.73" gradientUnits="userSpaceOnUse">
<stop stop-color="#F2F1DD"/>
<stop offset="1" stop-color="#F2F1DD" stop-opacity="0"/>
</linearGradient>
<linearGradient id="paint5_linear_62_4602" x1="753.863" y1="15.0913" x2="745.927" y2="83.6485" gradientUnits="userSpaceOnUse">
<stop stop-color="#F2F1DD"/>
<stop offset="1" stop-color="#F2F1DD" stop-opacity="0"/>
</linearGradient>
<linearGradient id="paint6_linear_62_4602" x1="700.41" y1="142.1" x2="708.346" y2="210.658" gradientUnits="userSpaceOnUse">
<stop stop-color="#F2F1DD"/>
<stop offset="1" stop-color="#F2F1DD" stop-opacity="0"/>
</linearGradient>
<linearGradient id="paint7_linear_62_4602" x1="621.655" y1="91.0192" x2="613.719" y2="159.576" gradientUnits="userSpaceOnUse">
<stop stop-color="#F2F1DD"/>
<stop offset="1" stop-color="#F2F1DD" stop-opacity="0"/>
</linearGradient>
<linearGradient id="paint8_linear_62_4602" x1="568.202" y1="218.028" x2="576.138" y2="286.585" gradientUnits="userSpaceOnUse">
<stop stop-color="#F2F1DD"/>
<stop offset="1" stop-color="#F2F1DD" stop-opacity="0"/>
</linearGradient>
<linearGradient id="paint9_linear_62_4602" x1="489.447" y1="166.947" x2="481.51" y2="235.504" gradientUnits="userSpaceOnUse">
<stop stop-color="#F2F1DD"/>
<stop offset="1" stop-color="#F2F1DD" stop-opacity="0"/>
</linearGradient>
<linearGradient id="paint10_linear_62_4602" x1="435.993" y1="293.956" x2="443.929" y2="362.513" gradientUnits="userSpaceOnUse">
<stop stop-color="#F2F1DD"/>
<stop offset="1" stop-color="#F2F1DD" stop-opacity="0"/>
</linearGradient>
<linearGradient id="paint11_linear_62_4602" x1="357.238" y1="242.875" x2="349.302" y2="311.432" gradientUnits="userSpaceOnUse">
<stop stop-color="#F2F1DD"/>
<stop offset="1" stop-color="#F2F1DD" stop-opacity="0"/>
</linearGradient>
<linearGradient id="paint12_linear_62_4602" x1="303.784" y1="369.884" x2="311.72" y2="438.441" gradientUnits="userSpaceOnUse">
<stop stop-color="#F2F1DD"/>
<stop offset="1" stop-color="#F2F1DD" stop-opacity="0"/>
</linearGradient>
<linearGradient id="paint13_linear_62_4602" x1="225.029" y1="318.803" x2="217.093" y2="387.36" gradientUnits="userSpaceOnUse">
<stop stop-color="#F2F1DD"/>
<stop offset="1" stop-color="#F2F1DD" stop-opacity="0"/>
</linearGradient>
<linearGradient id="paint14_linear_62_4602" x1="171.576" y1="445.812" x2="179.512" y2="514.369" gradientUnits="userSpaceOnUse">
<stop stop-color="#F2F1DD"/>
<stop offset="1" stop-color="#F2F1DD" stop-opacity="0"/>
</linearGradient>
<linearGradient id="paint15_linear_62_4602" x1="92.8211" y1="394.73" x2="84.8849" y2="463.288" gradientUnits="userSpaceOnUse">
<stop stop-color="#F2F1DD"/>
<stop offset="1" stop-color="#F2F1DD" stop-opacity="0"/>
</linearGradient>
</defs>
</svg>
