<svg width="1887" height="283" viewBox="0 0 1887 283" fill="none" xmlns="http://www.w3.org/2000/svg">
<circle cx="34.7056" cy="34.7056" r="34.7056" transform="matrix(0.866025 -0.5 0 1 1035.63 94.8834)" fill="#FFF1DB"/>
<path d="M1035.63 129.588C1035.63 138.47 1038.56 145.658 1044.43 149.046L1029.4 140.37C1023.53 136.981 1020.6 129.794 1020.6 120.912L1035.63 129.588Z" fill="#E2AE60" fill-opacity="0.5"/>
<path d="M1035.63 129.589C1035.63 110.422 1049.09 87.1142 1065.68 77.5305L1050.66 68.8541C1034.06 78.4378 1020.6 101.745 1020.6 120.913L1035.63 129.589Z" fill="#E2AE60" fill-opacity="0.5"/>
<path d="M1086.94 75.4248C1081.07 72.0365 1073.38 73.0891 1065.68 77.5301L1050.66 68.8537C1058.35 64.4127 1066.04 63.3601 1071.91 66.7484L1086.94 75.4248Z" fill="#E2AE60" fill-opacity="0.5"/>
<circle cx="55.155" cy="55.155" r="55.155" transform="matrix(0.866025 -0.5 0 1 972.835 91.1541)" fill="#FFF1DB"/>
<path d="M972.835 146.31C972.835 160.425 977.498 171.848 986.825 177.233L962.942 163.444C953.616 158.06 948.952 146.637 948.952 132.521L972.835 146.31Z" fill="#E2AE60" fill-opacity="0.5"/>
<path d="M972.835 146.31C972.835 115.849 994.22 78.8082 1020.6 63.5776L996.718 49.7888C970.338 65.0195 948.952 102.06 948.952 132.521L972.835 146.31Z" fill="#E2AE60" fill-opacity="0.5"/>
<path d="M1054.38 60.2314C1045.05 54.8466 1032.82 56.5194 1020.6 63.5771L996.718 49.7884C1008.94 42.7307 1021.17 41.0578 1030.49 46.4427L1054.38 60.2314Z" fill="#E2AE60" fill-opacity="0.5"/>
<circle cx="34.7056" cy="34.7056" r="34.7056" transform="matrix(0.866025 -0.5 0 1 938.032 118.495)" fill="#FFF1DB"/>
<path d="M938.032 153.199C938.032 162.081 940.966 169.269 946.835 172.658L931.807 163.981C925.938 160.593 923.004 153.405 923.004 144.523L938.032 153.199Z" fill="#E2AE60" fill-opacity="0.5"/>
<path d="M938.032 153.2C938.032 134.033 951.488 110.726 968.088 101.142L953.06 92.4655C936.46 102.049 923.004 125.357 923.004 144.524L938.032 153.2Z" fill="#E2AE60" fill-opacity="0.5"/>
<path d="M989.341 99.0352C983.472 95.6468 975.78 96.6995 968.088 101.14L953.06 92.464C960.752 88.0231 968.444 86.9704 974.313 90.3588L989.341 99.0352Z" fill="#E2AE60" fill-opacity="0.5"/>
<circle cx="23.9846" cy="23.9846" r="23.9846" transform="matrix(-0.866025 -0.5 0 1 1808.31 40.6924)" fill="#FFF1DB"/>
<path d="M1808.31 64.6768C1808.31 70.815 1806.28 75.7824 1802.22 78.124L1812.61 72.1279C1816.66 69.7862 1818.69 64.8189 1818.69 58.6807L1808.31 64.6768Z" fill="#E2AE60" fill-opacity="0.5"/>
<path d="M1808.31 64.6771C1808.31 51.4308 1799.01 35.3234 1787.54 28.7002L1797.92 22.7041C1809.39 29.3273 1818.69 45.4347 1818.69 58.681L1808.31 64.6771Z" fill="#E2AE60" fill-opacity="0.5"/>
<path d="M1772.85 27.2455C1776.9 24.9038 1782.22 25.6313 1787.54 28.7004L1797.92 22.7042C1792.61 19.6351 1787.29 18.9077 1783.23 21.2493L1772.85 27.2455Z" fill="#E2AE60" fill-opacity="0.5"/>
<circle cx="38.1169" cy="38.1169" r="38.1169" transform="matrix(-0.866025 -0.5 0 1 1851.7 38.1169)" fill="#FFF1DB"/>
<path d="M1851.7 76.2321C1851.7 85.9871 1848.48 93.8813 1842.03 97.6027L1858.54 88.0735C1864.98 84.3521 1868.21 76.4578 1868.21 66.7029L1851.7 76.2321Z" fill="#E2AE60" fill-opacity="0.5"/>
<path d="M1851.7 76.2336C1851.7 55.1822 1836.92 29.584 1818.69 19.0583L1835.2 9.52905C1853.43 20.0547 1868.21 45.653 1868.21 66.7044L1851.7 76.2336Z" fill="#E2AE60" fill-opacity="0.5"/>
<path d="M1795.35 16.745C1801.8 13.0236 1810.24 14.1797 1818.69 19.0572L1835.2 9.52799C1826.75 4.6505 1818.3 3.49441 1811.86 7.21581L1795.35 16.745Z" fill="#E2AE60" fill-opacity="0.5"/>
<circle cx="23.9846" cy="23.9846" r="23.9846" transform="matrix(-0.866025 -0.5 0 1 1875.75 57.0107)" fill="#FFF1DB"/>
<path d="M1875.75 80.995C1875.75 87.1332 1873.73 92.1006 1869.67 94.4423L1880.06 88.4461C1884.11 86.1045 1886.14 81.1371 1886.14 74.9989L1875.75 80.995Z" fill="#E2AE60" fill-opacity="0.5"/>
<path d="M1875.75 80.9955C1875.75 67.7492 1866.45 51.6418 1854.98 45.0186L1865.37 39.0225C1876.84 45.6456 1886.14 61.753 1886.14 74.9994L1875.75 80.9955Z" fill="#E2AE60" fill-opacity="0.5"/>
<path d="M1840.3 43.5641C1844.35 41.2224 1849.67 41.9499 1854.98 45.019L1865.37 39.0228C1860.05 35.9537 1854.74 35.2263 1850.68 37.5679L1840.3 43.5641Z" fill="#E2AE60" fill-opacity="0.5"/>
<circle cx="30.2296" cy="30.2296" r="30.2296" transform="matrix(-0.866025 -0.5 0 1 52.3591 188.288)" fill="#FFF1DB"/>
<path d="M52.3594 218.517C52.3594 226.254 49.8035 232.514 44.6916 235.466L57.7814 227.908C62.8933 224.957 65.4492 218.696 65.4492 210.96L52.3594 218.517Z" fill="#E2AE60" fill-opacity="0.5"/>
<path d="M52.3594 218.518C52.3594 201.822 40.6384 181.521 26.1798 173.173L39.2696 165.616C53.7282 173.964 65.4492 194.265 65.4492 210.96L52.3594 218.518Z" fill="#E2AE60" fill-opacity="0.5"/>
<path d="M7.66771 171.34C12.7796 168.388 19.4795 169.305 26.1795 173.173L39.2693 165.616C32.5693 161.748 25.8694 160.831 20.7575 163.782L7.66771 171.34Z" fill="#E2AE60" fill-opacity="0.5"/>
<circle cx="48.0416" cy="48.0416" r="48.0416" transform="matrix(-0.866025 -0.5 0 1 107.054 185.042)" fill="#FFF1DB"/>
<path d="M107.054 233.083C107.054 245.378 102.992 255.328 94.8684 260.018L115.671 248.008C123.795 243.318 127.857 233.368 127.857 221.073L107.054 233.083Z" fill="#E2AE60" fill-opacity="0.5"/>
<path d="M107.054 233.083C107.054 206.551 88.427 174.287 65.449 161.021L86.2517 149.01C109.23 162.277 127.857 194.54 127.857 221.073L107.054 233.083Z" fill="#E2AE60" fill-opacity="0.5"/>
<path d="M36.0297 158.105C44.1536 153.415 54.8014 154.872 65.4491 161.019L86.2517 149.009C75.604 142.862 64.9563 141.404 56.8323 146.095L36.0297 158.105Z" fill="#E2AE60" fill-opacity="0.5"/>
<circle cx="30.2296" cy="30.2296" r="30.2296" transform="matrix(-0.866025 -0.5 0 1 137.369 208.855)" fill="#FFF1DB"/>
<path d="M137.369 239.085C137.369 246.822 134.813 253.083 129.701 256.034L142.791 248.477C147.903 245.525 150.458 239.265 150.458 231.528L137.369 239.085Z" fill="#E2AE60" fill-opacity="0.5"/>
<path d="M137.369 239.085C137.369 222.39 125.648 202.088 111.189 193.741L124.279 186.183C138.737 194.531 150.458 214.832 150.458 231.528L137.369 239.085Z" fill="#E2AE60" fill-opacity="0.5"/>
<path d="M92.6772 191.907C97.7891 188.956 104.489 189.873 111.189 193.741L124.279 186.183C117.579 182.315 110.879 181.398 105.767 184.35L92.6772 191.907Z" fill="#E2AE60" fill-opacity="0.5"/>
<circle cx="23.9846" cy="23.9846" r="23.9846" transform="matrix(0.866025 -0.5 0 1 1342.83 208.693)" fill="#FFF1DB"/>
<path d="M1342.83 232.678C1342.83 238.816 1344.86 243.783 1348.92 246.125L1338.53 240.129C1334.48 237.787 1332.45 232.82 1332.45 226.682L1342.83 232.678Z" fill="#E2AE60" fill-opacity="0.5"/>
<path d="M1342.83 232.678C1342.83 219.431 1352.13 203.324 1363.6 196.701L1353.22 190.705C1341.75 197.328 1332.45 213.435 1332.45 226.682L1342.83 232.678Z" fill="#E2AE60" fill-opacity="0.5"/>
<path d="M1378.29 195.246C1374.24 192.904 1368.92 193.632 1363.6 196.701L1353.22 190.705C1358.53 187.636 1363.85 186.908 1367.91 189.25L1378.29 195.246Z" fill="#E2AE60" fill-opacity="0.5"/>
<circle cx="38.1169" cy="38.1169" r="38.1169" transform="matrix(0.866025 -0.5 0 1 1299.44 206.117)" fill="#FFF1DB"/>
<path d="M1299.44 244.234C1299.44 253.989 1302.66 261.883 1309.11 265.604L1292.6 256.075C1286.16 252.354 1282.93 244.46 1282.93 234.705L1299.44 244.234Z" fill="#E2AE60" fill-opacity="0.5"/>
<path d="M1299.44 244.234C1299.44 223.182 1314.22 197.584 1332.45 187.059L1315.94 177.529C1297.71 188.055 1282.93 213.653 1282.93 234.705L1299.44 244.234Z" fill="#E2AE60" fill-opacity="0.5"/>
<path d="M1355.79 184.746C1349.34 181.025 1340.9 182.181 1332.45 187.058L1315.94 177.529C1324.39 172.652 1332.84 171.496 1339.28 175.217L1355.79 184.746Z" fill="#E2AE60" fill-opacity="0.5"/>
<circle cx="23.9846" cy="23.9846" r="23.9846" transform="matrix(0.866025 -0.5 0 1 1275.39 225.011)" fill="#FFF1DB"/>
<path d="M1275.39 248.996C1275.39 255.134 1277.41 260.101 1281.47 262.443L1271.08 256.447C1267.03 254.105 1265 249.138 1265 243L1275.39 248.996Z" fill="#E2AE60" fill-opacity="0.5"/>
<path d="M1275.39 248.996C1275.39 235.75 1284.69 219.642 1296.16 213.019L1285.77 207.023C1274.3 213.646 1265 229.753 1265 243L1275.39 248.996Z" fill="#E2AE60" fill-opacity="0.5"/>
<path d="M1310.84 211.564C1306.79 209.222 1301.47 209.95 1296.16 213.019L1285.77 207.023C1291.09 203.954 1296.4 203.226 1300.46 205.568L1310.84 211.564Z" fill="#E2AE60" fill-opacity="0.5"/>
<circle cx="20.1125" cy="20.1125" r="20.1125" transform="matrix(0.866025 -0.5 0 1 146.268 61.1257)" fill="#FFF1DB"/>
<path d="M146.268 81.2388C146.268 86.3861 147.968 90.5515 151.369 92.5151L142.66 87.487C139.259 85.5234 137.559 81.3579 137.559 76.2107L146.268 81.2388Z" fill="#E2AE60" fill-opacity="0.5"/>
<path d="M146.268 81.2387C146.268 70.1309 154.066 56.6238 163.686 51.0699L154.977 46.0417C145.357 51.5957 137.559 65.1027 137.559 76.2106L146.268 81.2387Z" fill="#E2AE60" fill-opacity="0.5"/>
<path d="M176.002 49.85C172.601 47.8864 168.144 48.4964 163.686 51.0701L154.977 46.0419C159.435 43.4683 163.892 42.8583 167.293 44.8219L176.002 49.85Z" fill="#E2AE60" fill-opacity="0.5"/>
<circle cx="31.9633" cy="31.9633" r="31.9633" transform="matrix(0.866025 -0.5 0 1 109.878 58.9634)" fill="#FFF1DB"/>
<path d="M109.878 90.9269C109.878 99.107 112.58 105.727 117.985 108.847L104.145 100.857C98.7399 97.736 96.0374 91.1162 96.0374 82.936L109.878 90.9269Z" fill="#E2AE60" fill-opacity="0.5"/>
<path d="M109.878 90.9285C109.878 73.2757 122.271 51.8099 137.559 42.9835L123.718 34.9927C108.431 43.8191 96.0374 65.2848 96.0374 82.9377L109.878 90.9285Z" fill="#E2AE60" fill-opacity="0.5"/>
<path d="M157.133 41.0429C151.727 37.9223 144.643 38.8917 137.559 42.9818L123.719 34.991C130.803 30.9009 137.887 29.9314 143.292 33.0521L157.133 41.0429Z" fill="#E2AE60" fill-opacity="0.5"/>
<circle cx="20.1125" cy="20.1125" r="20.1125" transform="matrix(0.866025 -0.5 0 1 89.709 74.8083)" fill="#FFF1DB"/>
<path d="M89.709 94.9212C89.709 100.068 91.4095 104.234 94.8106 106.198L86.1016 101.169C82.7005 99.2058 81 95.0403 81 89.8931L89.709 94.9212Z" fill="#E2AE60" fill-opacity="0.5"/>
<path d="M89.709 94.9213C89.709 83.8135 97.5073 70.3064 107.127 64.7525L98.418 59.7244C88.7983 65.2783 81 78.7853 81 89.8932L89.709 94.9213Z" fill="#E2AE60" fill-opacity="0.5"/>
<path d="M119.443 63.5324C116.042 61.5688 111.585 62.1788 107.127 64.7524L98.418 59.7243C102.876 57.1507 107.333 56.5407 110.734 58.5043L119.443 63.5324Z" fill="#E2AE60" fill-opacity="0.5"/>
</svg>
