<svg width="844" height="1463" viewBox="0 0 844 1463" fill="none" xmlns="http://www.w3.org/2000/svg">
<rect width="150" height="50" transform="matrix(-0.866025 0.5 0.866025 0.5 152.904 0)" fill="#F2F1F0"/>
<rect width="150" height="25" transform="matrix(-0.866025 0.5 0 1 196.205 25)" fill="#D9D9D9"/>
<rect width="50" height="25" transform="matrix(-0.866025 -0.5 0 1 66.3013 100)" fill="#B3B3B3"/>
<rect width="150" height="50" transform="matrix(-0.866025 0.5 0.866025 0.5 208.251 55.3477)" fill="#F2F1F0"/>
<rect width="150" height="25" transform="matrix(-0.866025 0.5 0 1 251.553 80.3477)" fill="#D9D9D9"/>
<rect width="50" height="25" transform="matrix(-0.866025 -0.5 0 1 121.649 155.348)" fill="#B3B3B3"/>
<rect width="150" height="50" transform="matrix(-0.866025 0.5 0.866025 0.5 263.599 110.695)" fill="#F2F1F0"/>
<rect width="150" height="25" transform="matrix(-0.866025 0.5 0 1 306.9 135.695)" fill="#D9D9D9"/>
<rect width="50" height="25" transform="matrix(-0.866025 -0.5 0 1 176.997 210.695)" fill="#B3B3B3"/>
<rect width="150" height="50" transform="matrix(-0.866025 0.5 0.866025 0.5 318.947 166.043)" fill="#F2F1F0"/>
<rect width="150" height="25" transform="matrix(-0.866025 0.5 0 1 362.248 191.043)" fill="#D9D9D9"/>
<rect width="50" height="25" transform="matrix(-0.866025 -0.5 0 1 232.344 266.043)" fill="#B3B3B3"/>
<rect width="150" height="50" transform="matrix(-0.866025 0.5 0.866025 0.5 374.294 221.391)" fill="#F2F1F0"/>
<rect width="150" height="25" transform="matrix(-0.866025 0.5 0 1 417.596 246.391)" fill="#D9D9D9"/>
<rect width="50" height="25" transform="matrix(-0.866025 -0.5 0 1 287.692 321.391)" fill="#B3B3B3"/>
<rect width="150" height="50" transform="matrix(-0.866025 0.5 0.866025 0.5 429.642 276.738)" fill="#F2F1F0"/>
<rect width="150" height="25" transform="matrix(-0.866025 0.5 0 1 472.943 301.738)" fill="#D9D9D9"/>
<rect width="50" height="25" transform="matrix(-0.866025 -0.5 0 1 343.04 376.738)" fill="#B3B3B3"/>
<rect width="414.964" height="296.403" transform="matrix(0.866025 0.5 -0.866025 0.5 484.48 335.887)" fill="url(#paint0_linear_2_274)"/>
<rect width="414.964" height="58.7296" transform="matrix(0.866025 0.5 0 1 227.79 484.089)" fill="url(#paint1_linear_2_274)"/>
<rect width="296.403" height="701.486" transform="matrix(0.866025 -0.5 0 1 587.158 691.57)" fill="url(#paint2_linear_2_274)"/>
<rect width="414.964" height="69.1606" transform="matrix(0.866025 0.5 -0.866025 0.5 227.79 533.535)" fill="url(#paint3_linear_2_274)"/>
<rect width="414.964" height="49.1183" transform="matrix(0.866025 0.5 0 1 167.895 568.115)" fill="url(#paint4_linear_2_274)"/>
<rect width="69.1606" height="652.086" transform="matrix(0.866025 -0.5 0 1 527.264 775.597)" fill="url(#paint5_linear_2_274)"/>
<rect width="414.964" height="69.1606" transform="matrix(0.866025 0.5 -0.866025 0.5 167.895 617.494)" fill="url(#paint6_linear_2_274)"/>
<rect width="414.964" height="602.685" transform="matrix(0.866025 0.5 0 1 108 652.075)" fill="url(#paint7_linear_2_274)"/>
<rect width="69.1606" height="602.685" transform="matrix(0.866025 -0.5 0 1 467.369 859.556)" fill="url(#paint8_linear_2_274)"/>
<path d="M413.77 408.406L388.145 393.612L362.52 171.693L388.145 186.488L413.77 408.406Z" fill="#BDCBFD"/>
<path d="M362.52 437.996L336.895 423.201L362.52 171.693L388.145 186.488L362.52 437.996Z" fill="#75B346"/>
<path d="M413.77 407.713L362.52 437.302L388.145 185.795L413.77 407.713Z" fill="#4D8E43"/>
<path d="M361.757 437.226L413.766 407.796H479.679L427.621 437.226H361.757Z" fill="#54A7AE" fill-opacity="0.5"/>
<path d="M253.1 500.721L305.109 471.291H371.022L318.965 500.721H253.1Z" fill="#54A7AE" fill-opacity="0.5"/>
<path d="M304.875 471.291L279.25 456.497L253.625 234.578L279.25 249.373L304.875 471.291Z" fill="#BDCBFD"/>
<path d="M253.625 500.88L228 486.086L253.625 234.578L279.25 249.373L253.625 500.88Z" fill="#75B346"/>
<path d="M304.875 471.291L253.625 500.88L279.25 249.373L304.875 471.291Z" fill="#4D8E43"/>
<path d="M701.833 384.733C701.833 348.429 676.345 333.713 644.904 351.866V351.866C613.464 370.018 587.976 414.164 587.976 450.468V691.497L701.833 625.762V384.733Z" fill="url(#paint9_linear_2_274)"/>
<rect width="21.9117" height="241.548" transform="matrix(-0.866025 -0.5 0 1 587.977 450.468)" fill="#55C2CD" fill-opacity="0.5"/>
<path d="M685.159 347.878C674.043 341.46 659.474 343.454 644.905 351.866L625.929 340.91C640.498 332.498 655.067 330.504 666.183 336.922L685.159 347.878Z" fill="#7BE0EC" fill-opacity="0.5"/>
<path d="M587.976 450.468C587.976 414.163 613.464 370.017 644.904 351.865L625.928 340.909C594.488 359.061 569 403.207 569 439.512L587.976 450.468Z" fill="#55C2CD" fill-opacity="0.5"/>
<circle cx="10.9558" cy="10.9558" r="10.9558" transform="matrix(-0.866025 0.5 0 1 631.915 532.896)" fill="#666666"/>
<path d="M629.136 537.709C627.284 536.64 624.855 536.972 622.427 538.374L612.939 532.896C615.367 531.494 617.796 531.162 619.648 532.232L629.136 537.709Z" fill="#8C8C8C"/>
<path d="M612.939 554.807C612.939 548.756 617.187 541.399 622.427 538.373L612.939 532.896C607.699 535.921 603.451 543.279 603.451 549.329L612.939 554.807Z" fill="#8C8C8C"/>
<path d="M615.718 560.951C613.865 559.881 612.939 557.612 612.939 554.808L603.451 549.33C603.451 552.134 604.377 554.403 606.23 555.473L615.718 560.951Z" fill="#404040"/>
<path d="M500.732 531.209C488.83 535.768 491.69 536.792 467.763 537.639C421.106 539.29 433.344 530.318 429.416 524.041C425.602 517.945 430.032 504.005 432.576 499.597C437.741 490.649 467.765 489.824 484.995 499.769C502.225 509.715 510.226 527.573 500.732 531.209Z" fill="#BCBCBC" fill-opacity="0.5"/>
<path d="M454.548 520.264C454.548 507.625 458.226 496.118 458.226 486.288L457.969 486.239C449.444 484.594 441.419 480.989 434.527 475.71L434.107 475.389C431.943 482.076 429.084 489.69 422.776 497.394C414.891 507.023 404.919 511.035 404.919 523.875C404.919 534.146 430.661 538.787 441.561 540.325C447.126 540.726 454.548 532.293 454.548 520.264Z" fill="#F0E698"/>
<path d="M480.392 507.853C476.42 510.383 468.268 504.036 464.688 500.546L482.22 485.466C483.266 491.874 484.364 505.323 480.392 507.853Z" fill="#E3C079"/>
<path d="M454.094 412.105C461.904 416.542 460.25 418.871 459.672 424.896C458.962 432.305 452.636 431.906 449.561 430.781C432.352 423.862 427.589 411.731 427.359 406.53C421.282 391.735 449.268 386.838 464.021 386.238C470.173 385.829 481.569 386.337 477.938 391.636C474.307 396.936 459.31 402.594 452.266 404.761C449.224 405.637 446.283 407.668 454.094 412.105Z" fill="#E3C079"/>
<path d="M489.266 481.32C506.704 442.024 481.75 421.95 467.093 416.825C451.226 408.506 420.558 402.212 424.818 443.581C430.143 495.293 467.467 530.44 489.266 481.32Z" fill="#F1CE89"/>
<path d="M505.731 379.392C505.731 378.287 504.955 376.944 503.998 376.392L490.268 368.464C488.355 367.359 486.804 368.254 486.804 370.463L486.805 396.95C486.805 399.16 488.356 401.846 490.269 402.951L502.268 409.878C504.181 410.983 505.732 410.088 505.732 407.879L505.731 379.392Z" fill="#27292E"/>
<path d="M504.625 380.769C504.625 379.664 503.849 378.321 502.892 377.768L491.374 371.118C489.461 370.013 487.91 370.909 487.91 373.118L487.911 395.574C487.911 397.783 489.462 400.469 491.375 401.574L501.162 407.224C503.075 408.329 504.626 407.434 504.626 405.224L504.625 380.769Z" fill="#0C6974"/>
<ellipse cx="4.72016" cy="6.95782" rx="4.72016" ry="6.95782" transform="matrix(-0.866007 -0.500033 3.76613e-05 1 500.355 384.573)" fill="#F0E698"/>
<path d="M479.443 396.179C478.833 391.91 482.568 390.565 484.512 390.426C491.071 390.849 496.538 397.372 498.452 400.58C497.875 400.436 495.767 400.608 491.949 402.451C488.13 404.295 485.43 404.528 484.558 404.415C483.107 403.449 480.052 400.449 479.443 396.179Z" fill="#D59B24"/>
<path d="M487.387 398.332C486.453 382.901 471.394 378.222 463.982 377.811C461.257 377.473 457.259 378.135 455.601 378.509C447.663 381.035 445.021 384.433 440.128 397.643C436.051 408.652 432.309 414.872 430.252 417.511C429.905 417.869 429.563 418.256 429.231 418.674C429.497 418.423 429.841 418.038 430.252 417.511C432.966 414.707 436 413.657 437.303 413.484C435.328 418.971 435.488 422.933 435.814 424.228C438.275 420.241 441.241 418.706 442.416 418.437C447.385 422.036 447.05 428.855 446.261 431.814C448.957 425.792 454.578 423.594 457.051 423.247C459.077 425.043 459.676 432.423 459.795 435.912C459.739 436.334 459.717 436.731 459.734 437.095C459.795 438.41 459.854 437.635 459.795 435.912C460.226 432.653 462.635 427.946 463.927 425.78L466.702 435.434C469.468 428.136 476.887 425.471 480.25 425.05C478.766 422.362 481.279 418.871 482.72 417.462C488.049 411.639 488.051 402.282 487.387 398.332Z" fill="#F0E698"/>
<ellipse cx="2.32548" cy="3.06997" rx="2.32548" ry="3.06997" transform="matrix(-0.539632 0.841901 0.27624 0.961089 479.887 389.171)" fill="#4A5051"/>
<path d="M485.901 431.787C476.04 427.685 474.69 430.779 468.734 435.408C461.412 441.1 466.038 446.598 469.266 448.635C487.989 459.618 503.919 455.701 509.544 452.37C529.15 447.84 521.984 414.176 512.806 400.314C509.145 394.426 501.033 384.38 497.872 391.299C494.711 398.217 495.468 418.622 497.872 426.521C498.974 429.891 495.763 435.888 485.901 431.787Z" fill="#E3C079"/>
<rect width="150" height="50" transform="matrix(0.866025 0.5 -0.866025 0.5 320.04 812)" fill="#F2F1F0"/>
<rect width="150" height="25" transform="matrix(0.866025 0.5 0 1 276.738 837)" fill="#D9D9D9"/>
<rect width="50" height="25" transform="matrix(0.866025 -0.5 0 1 406.642 912)" fill="#B3B3B3"/>
<rect width="150" height="50" transform="matrix(0.866025 0.5 -0.866025 0.5 264.692 867.348)" fill="#F2F1F0"/>
<rect width="150" height="25" transform="matrix(0.866025 0.5 0 1 221.391 892.348)" fill="#D9D9D9"/>
<rect width="50" height="25" transform="matrix(0.866025 -0.5 0 1 351.294 967.348)" fill="#B3B3B3"/>
<rect width="150" height="50" transform="matrix(0.866025 0.5 -0.866025 0.5 209.344 922.695)" fill="#F2F1F0"/>
<rect width="150" height="25" transform="matrix(0.866025 0.5 0 1 166.043 947.695)" fill="#D9D9D9"/>
<rect width="50" height="25" transform="matrix(0.866025 -0.5 0 1 295.947 1022.7)" fill="#B3B3B3"/>
<rect width="150" height="50" transform="matrix(0.866025 0.5 -0.866025 0.5 153.997 978.043)" fill="#F2F1F0"/>
<rect width="150" height="25" transform="matrix(0.866025 0.5 0 1 110.695 1003.04)" fill="#D9D9D9"/>
<rect width="50" height="25" transform="matrix(0.866025 -0.5 0 1 240.599 1078.04)" fill="#B3B3B3"/>
<rect width="150" height="50" transform="matrix(0.866025 0.5 -0.866025 0.5 98.6489 1033.39)" fill="#F2F1F0"/>
<rect width="150" height="25" transform="matrix(0.866025 0.5 0 1 55.3477 1058.39)" fill="#D9D9D9"/>
<rect width="50" height="25" transform="matrix(0.866025 -0.5 0 1 185.251 1133.39)" fill="#B3B3B3"/>
<rect width="150" height="50" transform="matrix(0.866025 0.5 -0.866025 0.5 43.3013 1088.74)" fill="#F2F1F0"/>
<rect width="150" height="25" transform="matrix(0.866025 0.5 0 1 0 1113.74)" fill="#D9D9D9"/>
<rect width="50" height="25" transform="matrix(0.866025 -0.5 0 1 129.904 1188.74)" fill="#B3B3B3"/>
<defs>
<linearGradient id="paint0_linear_2_274" x1="207.482" y1="0" x2="207.482" y2="296.403" gradientUnits="userSpaceOnUse">
<stop stop-color="#8DC8CD"/>
<stop offset="1" stop-color="#45AEB8"/>
</linearGradient>
<linearGradient id="paint1_linear_2_274" x1="207.482" y1="0" x2="207.482" y2="58.7296" gradientUnits="userSpaceOnUse">
<stop stop-color="#70C0C8"/>
<stop offset="1" stop-color="#05919E"/>
</linearGradient>
<linearGradient id="paint2_linear_2_274" x1="148.201" y1="0" x2="148.201" y2="701.486" gradientUnits="userSpaceOnUse">
<stop offset="0.202485" stop-color="#4BAEB8"/>
<stop offset="1" stop-color="#5DBAC4" stop-opacity="0"/>
</linearGradient>
<linearGradient id="paint3_linear_2_274" x1="207.482" y1="0" x2="207.482" y2="69.1606" gradientUnits="userSpaceOnUse">
<stop stop-color="#8DC8CD"/>
<stop offset="1" stop-color="#45AEB8"/>
</linearGradient>
<linearGradient id="paint4_linear_2_274" x1="207.482" y1="0" x2="207.482" y2="49.1183" gradientUnits="userSpaceOnUse">
<stop stop-color="#70C0C8"/>
<stop offset="1" stop-color="#05919E"/>
</linearGradient>
<linearGradient id="paint5_linear_2_274" x1="34.5803" y1="0" x2="34.5803" y2="652.086" gradientUnits="userSpaceOnUse">
<stop offset="0.147064" stop-color="#4BAEB8"/>
<stop offset="1" stop-color="#5DBAC4" stop-opacity="0"/>
</linearGradient>
<linearGradient id="paint6_linear_2_274" x1="207.482" y1="0" x2="207.482" y2="69.1606" gradientUnits="userSpaceOnUse">
<stop stop-color="#8DC8CD"/>
<stop offset="1" stop-color="#45AEB8"/>
</linearGradient>
<linearGradient id="paint7_linear_2_274" x1="189.918" y1="251.27" x2="206.648" y2="602.725" gradientUnits="userSpaceOnUse">
<stop stop-color="#66BDC6"/>
<stop offset="1" stop-color="#5DBAC4" stop-opacity="0"/>
</linearGradient>
<linearGradient id="paint8_linear_2_274" x1="34.5803" y1="0" x2="34.5803" y2="602.685" gradientUnits="userSpaceOnUse">
<stop offset="0.115448" stop-color="#4BAEB8"/>
<stop offset="1" stop-color="#5DBAC4" stop-opacity="0"/>
</linearGradient>
<linearGradient id="paint9_linear_2_274" x1="644.904" y1="351.866" x2="777.737" y2="581.938" gradientUnits="userSpaceOnUse">
<stop stop-color="#FFF5ED"/>
<stop offset="1" stop-color="#E6B9A0"/>
</linearGradient>
</defs>
</svg>
