<svg width="1706" height="1110" viewBox="0 0 1706 1110" fill="none" xmlns="http://www.w3.org/2000/svg">
<mask id="mask0_1_61" style="mask-type:alpha" maskUnits="userSpaceOnUse" x="1265" y="842" width="174" height="101">
<path d="M1438.49 892.285L1351.89 842.285L1265.28 892.285L1351.89 942.285L1438.49 892.285Z" fill="#D9D9D9"/>
</mask>
<g mask="url(#mask0_1_61)">
<path d="M1438.49 892.285L1351.89 842.285V912.285L1438.49 962.285V892.285Z" fill="#614124"/>
<path d="M1351.89 842.285L1265.28 892.285V962.285L1351.89 912.285V842.285Z" fill="#4B321B"/>
<path d="M1438.49 962.285L1351.89 912.285L1265.28 962.285L1351.89 1012.28L1438.49 962.285Z" fill="#666666"/>
</g>
<path d="M1348.16 885.771C1354.05 893.146 1360.49 888.338 1362.97 885.011C1378.59 873.426 1340.97 835.122 1334.74 821.164C1329.76 809.997 1326.19 820.702 1325.03 827.451C1322.46 851.465 1339.38 876.336 1348.16 885.771Z" fill="#E3C079"/>
<path d="M1384.65 975.927C1433.12 971.176 1417.2 908.344 1414.49 889.139C1414.32 866.665 1404.25 829.174 1365.27 859.004C1316.55 896.291 1324.05 981.867 1384.65 975.927Z" fill="#F1CE89"/>
<path d="M1417.45 830.811C1407.12 818.319 1404.84 819.285 1396.48 818.84C1393.4 818.465 1388.89 819.223 1387.02 819.648C1378.07 822.52 1375.09 826.361 1369.6 841.285C1365.03 853.722 1360.82 860.751 1358.5 863.735C1358.11 864.14 1357.73 864.578 1357.35 865.05C1357.65 864.766 1358.04 864.332 1358.5 863.735C1361.56 860.563 1364.98 859.371 1366.45 859.173C1364.24 865.37 1364.43 869.842 1364.8 871.303C1367.57 866.797 1370.91 865.057 1372.24 864.75C1377.85 868.8 1377.49 876.497 1376.61 879.84C1379.64 873.036 1385.98 870.541 1388.77 870.143C1391.06 872.165 1391.75 880.493 1391.9 884.432C1391.83 884.908 1391.81 885.356 1391.83 885.767C1391.9 887.251 1391.97 886.377 1391.9 884.432C1392.37 880.752 1395.08 875.432 1396.54 872.984L1399.69 883.875C1402.8 875.63 1411.16 872.603 1414.96 872.12C1413.28 869.089 1414.42 861.728 1416.05 860.134C1421.89 848.34 1419.75 834.69 1417.45 830.811Z" fill="#F0E698"/>
<path d="M1383.67 850.145C1382.12 850.876 1380.95 849.735 1381.07 847.599C1381.18 845.462 1382.53 843.138 1384.09 842.407C1385.64 841.677 1386.8 842.817 1386.69 844.954C1386.57 847.091 1385.22 849.415 1383.67 850.145Z" fill="#4A5051"/>
<path d="M1405.82 853.97C1404.26 854.7 1403.1 853.56 1403.21 851.423C1403.33 849.287 1404.68 846.962 1406.23 846.232C1407.79 845.502 1408.95 846.642 1408.84 848.779C1408.72 850.916 1407.37 853.24 1405.82 853.97Z" fill="#4A5051"/>
<path d="M1391.66 847.151C1395.85 844.668 1398.87 847.98 1399.85 849.946C1403.04 857.832 1396.74 865.127 1390.49 868.826C1390.39 868.163 1389.45 865.98 1387.18 861.771C1384.96 857.675 1385.55 857.006 1385.29 856.048C1385.67 854.117 1387.47 849.635 1391.66 847.151Z" fill="#D59B24"/>
<path d="M1475.6 715.375L1425.48 888.543L1431.37 892.285L1481.63 715.375H1475.6Z" fill="#303030"/>
<path d="M1221.03 715.78L1271.15 888.949L1265.26 892.69L1215 715.78H1221.03Z" fill="#303030"/>
<path d="M1355.89 767.9L1355.74 948.177L1349.04 950.126L1350.1 766.219L1355.89 767.9Z" fill="#303030"/>
<path d="M1365.76 1000.79H1337.68L1348.33 975.484L1362.13 978.208L1365.76 1000.79Z" fill="#614124"/>
<path d="M1265.28 892.285L1351.88 942.285V982.285C1351.88 998.854 1340.25 1005.57 1325.9 997.285L1308.58 987.285C1284.67 973.478 1265.28 939.899 1265.28 912.285V892.285Z" fill="#704E2E"/>
<path d="M1351.89 942.285L1438.49 892.285V912.285C1438.49 939.899 1419.1 973.478 1395.19 987.285L1377.87 997.285C1363.52 1005.57 1351.89 998.854 1351.89 982.285V942.285Z" fill="#4B321B"/>
<path d="M1407.92 897.362C1401.21 887.349 1402.6 892.262 1400.57 883.994C1398.07 873.828 1404.92 873.36 1409.21 873.816C1433.47 877.199 1434.29 892.684 1436.94 899.571C1451.12 917.308 1421.21 942.098 1403.38 947.945C1396.02 950.596 1381.8 953.812 1383.85 945.473C1385.89 937.134 1400.85 919.597 1408.51 914.286C1411.84 912.074 1414.04 906.488 1407.92 897.362Z" fill="#E3C079"/>
<mask id="mask1_1_61" style="mask-type:alpha" maskUnits="userSpaceOnUse" x="1003" y="0" width="703" height="767">
<path d="M1701.7 231.988C1732.67 371.963 1564.64 606.287 1476.41 720.041C1474.35 722.695 1472.61 725.464 1471.11 728.469C1466.17 738.347 1458.23 746.556 1447.94 750.568C1368.11 781.687 1270.18 759.687 1228.98 743.689C1205.18 669.132 1120.53 552.647 1077.48 499.419C1024.17 414.445 958.332 234.06 1046.96 123.377C1151.52 -7.21127 1280.59 0.421478 1361.52 0.421512C1442.45 0.421512 1650.47 0.421509 1701.7 231.988Z" fill="#E1657B"/>
</mask>
<g mask="url(#mask1_1_61)">
<path d="M1701.7 231.988C1732.48 371.133 1566.63 603.509 1477.99 718.003C1474.88 722.018 1472.23 726.238 1469.95 730.78C1465.69 739.312 1463.05 748.562 1462.16 758.059L1459.99 781.387L1451.55 800.605L1403.81 825.801C1352.17 835.241 1245.94 836.201 1234.16 764.528C1222.38 692.855 1124.8 557.925 1077.48 499.419C1024.17 414.445 958.332 234.06 1046.96 123.377C1151.52 -7.21127 1280.59 0.421478 1361.52 0.421512C1442.45 0.421512 1650.47 0.421509 1701.7 231.988Z" fill="url(#paint0_linear_1_61)"/>
<path d="M1507.62 -36.7444C1424.06 -18.4028 1374.3 51.5669 1359.87 84.259C1507.62 25.1585 1653.25 64.7287 1707.59 91.9013L1507.62 -36.7444Z" fill="url(#paint1_linear_1_61)"/>
<path d="M1683.39 391.225C1754.43 116.229 1467.59 83.0616 1359.87 91.9013V100.835C1659.37 236.087 1552.44 601.348 1461.54 767.073C1575.92 766.363 1604.42 696.918 1683.39 391.225Z" fill="url(#paint2_linear_1_61)"/>
<path d="M1175.71 -42.8135C1295.06 -9.39498 1338.6 55.8259 1345.46 84.259C1301.96 47.4691 1139.02 11.6216 1062.99 -1.70344L1175.71 -42.8135Z" fill="url(#paint3_linear_1_61)"/>
<path d="M1037.62 457.459C919.16 106.376 1224.53 74.0731 1345.46 91.9013V100.835C1042.04 149.481 1146.46 565.263 1236.59 767.073L1037.62 457.459Z" fill="url(#paint4_linear_1_61)"/>
<path d="M1337.78 829.506C1259.58 530.736 1306.02 221.697 1345.46 106.376C1481.25 278.029 1394.8 665.081 1345.5 833.368C1331.42 836.997 1346.05 831.018 1337.78 829.506Z" fill="url(#paint5_linear_1_61)"/>
</g>
<path d="M1223.07 721.798C1224.28 723.641 1225.8 725.273 1227.53 726.635C1239.86 736.321 1230.62 730.039 1253.37 743.173V766.651C1229.17 752.681 1215.72 731.925 1215.72 710.607L1223.07 721.798Z" fill="#666666"/>
<path d="M1253.37 743.173C1305.59 773.321 1390.25 773.321 1442.47 743.173V766.651C1390.25 796.799 1305.59 796.799 1253.37 766.651V743.173Z" fill="#404040"/>
<path d="M1471.53 723.566C1471.47 723.633 1471.41 723.697 1471.35 723.762C1470.62 724.54 1464.93 730.164 1442.98 742.878C1442.67 743.057 1442.47 743.393 1442.47 743.75V766.651C1465.66 753.263 1480.37 734.98 1481.55 714.717C1481.61 713.796 1480.49 713.364 1479.88 714.057L1471.53 723.566Z" fill="#404040"/>
<path d="M1321.77 108.104C1336.12 116.388 1359.39 116.388 1373.73 108.104C1388.08 99.8192 1388.08 86.3878 1373.73 78.1035C1359.39 69.8192 1336.12 69.8192 1321.77 78.1035C1307.42 86.3878 1307.42 99.8192 1321.77 108.104Z" fill="#8C8C8C"/>
<path d="M1311.01 93.1035C1311.01 98.9614 1315.12 104.265 1321.77 108.104V118.104C1315.12 114.265 1311.01 108.961 1311.01 103.104V93.1035Z" fill="#666666"/>
<path d="M1321.77 108.104C1336.12 116.388 1359.39 116.388 1373.73 108.104V118.104C1359.39 126.388 1336.12 126.388 1321.77 118.104V108.104Z" fill="#404040"/>
<path d="M1384.5 93.1035C1384.5 98.9614 1380.38 104.265 1373.73 108.104V118.104C1380.38 114.265 1384.5 108.961 1384.5 103.104V93.1035Z" fill="#404040"/>
<path d="M1111 760.295C1129 816.128 1276.1 923.895 1398.5 940.295M1398.5 940.295C1324.1 931.095 1137 941.295 1109 977.295M1398.5 940.295C1318.5 935.495 1136.83 863.295 1102 849.795" stroke="#84551D" stroke-width="4" stroke-linecap="round" stroke-linejoin="round"/>
<path fill-rule="evenodd" clip-rule="evenodd" d="M2.56359 809.976C1.09113 810.193 0 811.456 0 812.944V852.295V864.295V940.295V952.295V1045.54C0 1047.05 1.12012 1048.32 2.61621 1048.52L46.4584 1054.17C92.9167 1060.17 185.833 1072.15 278.75 1060.17C331.845 1053.32 384.94 1038.64 438.036 1023.96C477.857 1012.95 517.679 1001.94 557.5 994.237C650.417 976.256 743.333 976.256 836.25 976.256C870.31 976.256 891.459 974.582 908.92 973.199C939.095 970.81 958.257 969.293 1014 978.795L1039.5 983.295L1071.5 986.295H1078.97C1089.9 986.295 1100.73 984.284 1110.92 980.363L1113.08 979.535C1114.24 979.089 1115 977.976 1115 976.735V952.295V940.295V864.295V852.295V759.049C1115 757.54 1113.88 756.267 1112.38 756.074L1068.54 750.417C1022.08 744.424 929.167 732.437 836.25 744.424C803.72 748.621 763.53 752.746 721.044 757.106C642.173 765.202 555.387 774.109 495 785.795C445.607 795.353 407.258 798.695 368.612 802.062C342.21 804.362 315.668 806.675 285.372 810.99C267.13 813.589 248.705 815.398 230.284 815.002C190.32 814.144 160.481 811.551 134.977 809.334C113.001 807.425 94.2437 805.795 75 805.795H45.6979C35.9124 805.795 26.1399 806.51 16.4585 807.933L2.56359 809.976Z" fill="white"/>
<g filter="url(#filter0_d_1_61)">
<path d="M173.184 979.04L171.741 932.533L155.97 966.918L146.075 967.225L128.202 933.884L129.645 980.391L111.614 980.951L109.191 902.888L128.762 902.281L150.258 942.444L169.332 901.022L188.793 900.418L191.216 978.481L173.184 979.04Z" fill="#2B6469"/>
<path d="M238.202 976.539C233.3 976.87 228.894 976.396 224.986 975.117C221.072 973.764 217.67 971.826 214.78 969.302C211.963 966.773 209.741 963.799 208.113 960.381C206.481 956.89 205.533 953.206 205.271 949.328C204.895 943.767 205.761 938.637 207.869 933.938C210.045 929.16 213.344 925.225 217.765 922.133C222.182 918.968 227.646 917.165 234.158 916.725C240.67 916.285 246.288 917.302 251.012 919.775C255.809 922.244 259.569 925.665 262.29 930.038C265.006 934.338 266.542 939.122 266.898 944.39C266.968 945.414 266.964 946.443 266.887 947.477C266.878 948.434 266.862 949.28 266.838 950.017L224.255 952.896C224.648 955.442 225.489 957.553 226.778 959.23C228.141 960.902 229.805 962.149 231.772 962.971C233.734 963.721 235.775 964.024 237.897 963.88C240.531 963.702 242.94 962.915 245.124 961.517C247.381 960.115 248.877 958.324 249.612 956.142L264.82 959.304C263.559 962.403 261.655 965.214 259.106 967.738C256.625 970.185 253.6 972.19 250.031 973.754C246.535 975.314 242.592 976.242 238.202 976.539ZM223.089 942.17L248.112 940.478C247.656 938.083 246.82 936.045 245.604 934.363C244.382 932.608 242.825 931.317 240.932 930.49C239.033 929.589 236.987 929.213 234.792 929.361C232.523 929.515 230.509 930.165 228.749 931.313C227.058 932.383 225.725 933.87 224.751 935.773C223.772 937.603 223.218 939.735 223.089 942.17Z" fill="#2B6469"/>
<path d="M310.372 970.546C305.483 971.027 301.065 970.688 297.119 969.529C293.166 968.296 289.707 966.463 286.741 964.028C283.848 961.586 281.536 958.682 279.805 955.315C278.066 951.876 277.007 948.222 276.626 944.354C276.081 938.807 276.789 933.653 278.753 928.891C280.782 924.049 283.959 920.016 288.284 916.79C292.602 913.492 298.008 911.523 304.504 910.884C310.999 910.245 316.645 911.09 321.443 913.418C326.314 915.739 330.176 919.043 333.029 923.331C335.875 927.546 337.557 932.281 338.074 937.536C338.174 938.557 338.202 939.586 338.156 940.622C338.177 941.578 338.186 942.425 338.185 943.162L295.71 947.34C296.18 949.873 297.085 951.957 298.425 953.594C299.838 955.224 301.54 956.419 303.531 957.182C305.515 957.871 307.565 958.111 309.681 957.903C312.309 957.644 314.693 956.784 316.833 955.32C319.046 953.85 320.487 952.014 321.154 949.811L336.452 952.506C335.286 955.642 333.468 958.511 330.998 961.112C328.593 963.632 325.631 965.729 322.111 967.402C318.664 969.067 314.751 970.115 310.372 970.546ZM294.217 936.655L319.176 934.2C318.648 931.82 317.75 929.808 316.483 928.164C315.209 926.447 313.613 925.204 311.695 924.435C309.77 923.593 307.712 923.279 305.523 923.495C303.261 923.717 301.267 924.429 299.543 925.63C297.885 926.751 296.598 928.278 295.683 930.21C294.761 932.07 294.272 934.218 294.217 936.655Z" fill="#2B6469"/>
<path d="M391.463 957.029C389.944 957.883 388.243 958.76 386.36 959.66C384.549 960.55 382.611 961.309 380.546 961.936C378.49 962.635 376.444 963.112 374.406 963.366C371.495 963.728 368.744 963.591 366.152 962.953C363.623 962.233 361.491 960.836 359.754 958.762C358.091 956.678 357.028 953.781 356.565 950.069L352.84 920.16L345.526 921.071L343.881 907.863L351.194 906.952L348.924 888.723L366.389 886.548L368.659 904.777L380.339 903.322L381.984 916.53L370.305 917.985L373.283 941.89C373.518 943.782 374.164 945.106 375.218 945.861C376.264 946.544 377.515 946.794 378.97 946.613C380.207 946.459 381.49 946.078 382.818 945.469C384.219 944.851 385.397 944.224 386.353 943.587L391.463 957.029Z" fill="#2B6469"/>
<path d="M480.597 945.247C479.108 946.153 477.438 947.088 475.586 948.052C473.808 949.004 471.897 949.829 469.855 950.527C467.824 951.296 465.795 951.843 463.767 952.167C460.871 952.629 458.116 952.586 455.504 952.038C452.952 951.405 450.773 950.082 448.966 948.069C447.232 946.043 446.07 943.184 445.48 939.491L440.729 909.728L433.451 910.889L431.353 897.746L438.631 896.584L435.735 878.444L453.115 875.669L456.011 893.81L467.634 891.954L469.732 905.098L458.109 906.953L461.907 930.742C462.207 932.625 462.898 933.926 463.978 934.644C465.046 935.291 466.305 935.498 467.753 935.267C468.984 935.071 470.253 934.645 471.56 933.991C472.938 933.325 474.094 932.658 475.027 931.989L480.597 945.247Z" fill="#2B6469"/>
<path d="M548.559 935.968L531.257 939.195L525.307 907.295C524.622 903.619 523.361 901.056 521.524 899.609C519.759 898.147 517.652 897.645 515.201 898.102C513.903 898.344 512.506 899.053 511.009 900.227C509.571 901.316 508.308 902.745 507.221 904.514C506.134 906.283 505.418 908.245 505.073 910.398L511.144 942.946L493.842 946.173L479.12 867.234L496.421 864.007L502.33 895.691C503.789 891.913 506.044 888.807 509.097 886.373C512.207 883.853 515.817 882.21 519.926 881.444C523.819 880.717 527.04 880.788 529.589 881.656C532.21 882.509 534.335 883.903 535.964 885.838C537.579 887.7 538.839 889.852 539.742 892.294C540.645 894.737 541.325 897.184 541.782 899.635L548.559 935.968Z" fill="#2B6469"/>
<path d="M593.148 927.625C588.348 928.674 583.92 928.854 579.866 928.163C575.796 927.401 572.146 925.984 568.916 923.913C565.758 921.826 563.122 919.211 561.01 916.07C558.881 912.857 557.402 909.352 556.573 905.555C555.383 900.11 555.485 894.908 556.878 889.95C558.328 884.904 561.012 880.527 564.93 876.818C568.833 873.038 573.973 870.451 580.349 869.057C586.725 867.664 592.432 867.843 597.468 869.595C602.577 871.331 606.799 874.162 610.133 878.087C613.453 881.941 615.676 886.447 616.803 891.605C617.022 892.608 617.17 893.626 617.246 894.661C617.378 895.608 617.486 896.447 617.571 897.179L575.875 906.291C576.638 908.752 577.78 910.716 579.302 912.185C580.896 913.639 582.726 914.627 584.792 915.152C586.843 915.604 588.907 915.604 590.984 915.15C593.563 914.586 595.83 913.453 597.785 911.749C599.812 910.03 601.028 908.038 601.433 905.773L616.941 906.663C616.15 909.913 614.68 912.974 612.53 915.846C610.436 918.631 607.739 921.059 604.438 923.131C601.21 925.188 597.446 926.686 593.148 927.625ZM573.144 895.854L597.645 890.499C596.842 888.198 595.715 886.305 594.265 884.82C592.799 883.264 591.069 882.216 589.074 881.676C587.064 881.064 584.984 880.993 582.835 881.463C580.614 881.948 578.717 882.888 577.146 884.282C575.63 885.589 574.53 887.256 573.847 889.282C573.148 891.236 572.913 893.427 573.144 895.854Z" fill="#2B6469"/>
<path d="M705.756 843.474L682.138 846.062L688.922 907.952L670.989 909.917L664.205 848.028L640.477 850.629L638.751 834.883L704.03 827.728L705.756 843.474Z" fill="#2B6469"/>
<path d="M752.68 903.526C747.779 903.866 743.373 903.4 739.462 902.128C735.546 900.783 732.14 898.851 729.246 896.333C726.424 893.809 724.196 890.839 722.562 887.424C720.923 883.936 719.969 880.253 719.7 876.376C719.313 870.816 720.17 865.685 722.269 860.981C724.436 856.199 727.727 852.258 732.143 849.158C736.554 845.985 742.015 844.172 748.526 843.72C755.037 843.268 760.657 844.274 765.385 846.739C770.187 849.198 773.953 852.612 776.682 856.98C779.407 861.275 780.952 866.056 781.318 871.324C781.389 872.348 781.387 873.377 781.312 874.411C781.304 875.368 781.29 876.214 781.267 876.951L738.69 879.909C739.087 882.454 739.932 884.564 741.225 886.238C742.59 887.907 744.257 889.152 746.225 889.97C748.189 890.716 750.231 891.015 752.352 890.868C754.986 890.685 757.394 889.893 759.575 888.492C761.83 887.085 763.322 885.291 764.053 883.109L779.266 886.242C778.012 889.343 776.112 892.158 773.568 894.687C771.092 897.138 768.071 899.149 764.504 900.72C761.011 902.285 757.07 903.221 752.68 903.526ZM737.504 869.185L762.524 867.447C762.063 865.053 761.224 863.016 760.004 861.337C758.78 859.584 757.22 858.296 755.325 857.472C753.425 856.575 751.378 856.202 749.183 856.355C746.915 856.512 744.902 857.167 743.144 858.318C741.455 859.391 740.125 860.88 739.154 862.785C738.179 864.617 737.629 866.75 737.504 869.185Z" fill="#2B6469"/>
<path d="M792.265 882.577C792.149 878.765 793.109 875.397 795.147 872.474C797.185 869.55 800.049 867.224 803.738 865.497C807.424 863.697 811.687 862.722 816.524 862.574C818.87 862.502 821.185 862.652 823.471 863.022C825.755 863.319 827.751 863.808 829.459 864.489L829.381 861.96C829.285 858.808 828.258 856.419 826.3 854.791C824.343 853.164 821.422 852.409 817.537 852.529C814.312 852.627 811.287 853.27 808.462 854.457C805.71 855.642 802.79 857.309 799.701 859.458L794.08 848.405C797.815 845.796 801.716 843.806 805.782 842.434C809.922 841.06 814.301 840.302 818.919 840.16C827.568 839.895 834.339 841.779 839.231 845.811C844.195 849.767 846.797 855.667 847.037 863.51L847.499 878.573C847.553 880.332 847.847 881.57 848.383 882.288C848.99 882.929 849.991 883.302 851.389 883.406L851.837 898.029C850.38 898.367 848.994 898.63 847.679 898.817C846.437 899.002 845.34 899.109 844.387 899.138C841.089 899.239 838.54 898.657 836.74 897.391C835.014 896.124 833.896 894.36 833.386 892.102L832.979 889.583C830.515 892.96 827.514 895.583 823.976 897.452C820.509 899.246 816.834 900.202 812.949 900.321C809.137 900.438 805.667 899.738 802.539 898.219C799.485 896.699 797.035 894.573 795.191 891.841C793.346 889.11 792.371 886.022 792.265 882.577ZM827.296 883.704C828.083 883.02 828.72 882.267 829.208 881.445C829.697 880.623 829.929 879.845 829.907 879.112L829.749 873.945C828.265 873.403 826.602 873.014 824.761 872.777C822.99 872.464 821.335 872.331 819.796 872.379C816.571 872.477 813.918 873.292 811.837 874.824C809.754 876.281 808.749 878.183 808.821 880.529C808.861 881.848 809.265 883.046 810.031 884.123C810.798 885.2 811.814 886.05 813.081 886.671C814.42 887.29 815.97 887.573 817.729 887.519C819.488 887.465 821.237 887.081 822.976 886.368C824.715 885.654 826.155 884.766 827.296 883.704Z" fill="#2B6469"/>
<path d="M957.076 899.176L939.479 898.86L940.06 866.415C940.127 862.676 939.48 859.914 938.118 858.129C936.756 856.345 934.976 855.433 932.776 855.393C930.43 855.351 928.103 856.263 925.796 858.129C923.489 859.994 921.832 862.422 920.825 865.411L920.232 898.515L902.635 898.2L903.216 865.755C903.284 861.943 902.637 859.181 901.274 857.469C899.912 855.685 898.132 854.773 895.932 854.733C893.659 854.692 891.369 855.605 889.062 857.471C886.755 859.336 885.061 861.763 883.981 864.751L883.388 897.855L865.79 897.54L866.825 839.799L882.662 840.083L882.489 849.762C884.677 846.354 887.584 843.765 891.209 841.997C894.91 840.156 899.179 839.279 904.019 839.366C908.785 839.451 912.43 840.653 914.956 842.972C917.483 845.218 919.086 847.85 919.765 850.869C922.029 847.316 924.975 844.618 928.602 842.776C932.303 840.862 936.427 839.946 940.973 840.028C944.639 840.093 947.596 840.843 949.844 842.277C952.093 843.637 953.785 845.428 954.918 847.649C956.052 849.869 956.816 852.267 957.21 854.841C957.605 857.342 957.781 859.802 957.738 862.221L957.076 899.176Z" fill="#2B6469"/>
<path d="M978.453 869.713L981.266 821.946L998.836 822.981L996.023 870.748L978.453 869.713ZM976.629 900.68L977.703 882.451L995.272 883.486L994.199 901.714L976.629 900.68Z" fill="#2B6469"/>
</g>
<defs>
<filter id="filter0_d_1_61" x="105.191" y="821.946" width="897.645" height="167.005" filterUnits="userSpaceOnUse" color-interpolation-filters="sRGB">
<feFlood flood-opacity="0" result="BackgroundImageFix"/>
<feColorMatrix in="SourceAlpha" type="matrix" values="0 0 0 0 0 0 0 0 0 0 0 0 0 0 0 0 0 0 127 0" result="hardAlpha"/>
<feOffset dy="4"/>
<feGaussianBlur stdDeviation="2"/>
<feComposite in2="hardAlpha" operator="out"/>
<feColorMatrix type="matrix" values="0 0 0 0 0 0 0 0 0 0 0 0 0 0 0 0 0 0 0.25 0"/>
<feBlend mode="normal" in2="BackgroundImageFix" result="effect1_dropShadow_1_61"/>
<feBlend mode="normal" in="SourceGraphic" in2="effect1_dropShadow_1_61" result="shape"/>
</filter>
<linearGradient id="paint0_linear_1_61" x1="1354.48" y1="0.337891" x2="1354.48" y2="830.331" gradientUnits="userSpaceOnUse">
<stop stop-color="#CD455D"/>
<stop offset="1" stop-color="#942E40"/>
</linearGradient>
<linearGradient id="paint1_linear_1_61" x1="1329.38" y1="-68.8998" x2="1359.2" y2="834.518" gradientUnits="userSpaceOnUse">
<stop stop-color="#F2F0F2"/>
<stop offset="1" stop-color="#D5CFCF"/>
</linearGradient>
<linearGradient id="paint2_linear_1_61" x1="1329.38" y1="-68.8998" x2="1359.2" y2="834.518" gradientUnits="userSpaceOnUse">
<stop stop-color="#F2F0F2"/>
<stop offset="1" stop-color="#D5CFCF"/>
</linearGradient>
<linearGradient id="paint3_linear_1_61" x1="1329.39" y1="-68.8998" x2="1359.2" y2="834.518" gradientUnits="userSpaceOnUse">
<stop stop-color="#F2F0F2"/>
<stop offset="1" stop-color="#D5CFCF"/>
</linearGradient>
<linearGradient id="paint4_linear_1_61" x1="1329.38" y1="-68.8998" x2="1359.2" y2="834.518" gradientUnits="userSpaceOnUse">
<stop stop-color="#F2F0F2"/>
<stop offset="1" stop-color="#D5CFCF"/>
</linearGradient>
<linearGradient id="paint5_linear_1_61" x1="1329.38" y1="-68.8998" x2="1359.2" y2="834.518" gradientUnits="userSpaceOnUse">
<stop stop-color="#F2F0F2"/>
<stop offset="1" stop-color="#D5CFCF"/>
</linearGradient>
</defs>
</svg>
