<svg xmlns="http://www.w3.org/2000/svg" width="462" height="3762" viewBox="0 0 462 3762" fill="none">
  <g id="Group 286">
    <g id="top left buildings">
      <g id="random building">
        <g id="cube-group">
          <rect id="top-face" width="175.452" height="125.323"
            transform="matrix(0.866025 0.5 -0.866025 0.5 159.181 442.547)" fill="url(#paint0_linear_909_832)" />
          <rect id="left-face" width="175.452" height="24.8316" transform="matrix(0.866025 0.5 0 1 50.6484 505.208)"
            fill="url(#paint1_linear_909_832)" />
          <rect id="right-face" width="125.323" height="296.597" transform="matrix(0.866025 -0.5 0 1 202.594 592.934)"
            fill="url(#paint2_linear_909_832)" />
        </g>
        <g id="cube-group_2">
          <rect id="top-face_2" width="175.452" height="29.242"
            transform="matrix(0.866025 0.5 -0.866025 0.5 50.6487 526.115)" fill="url(#paint3_linear_909_832)" />
          <rect id="left-face_2" width="175.452" height="20.7678" transform="matrix(0.866025 0.5 0 1 25.3242 540.736)"
            fill="url(#paint4_linear_909_832)" />
          <rect id="right-face_2" width="29.242" height="275.71" transform="matrix(0.866025 -0.5 0 1 177.27 628.462)"
            fill="url(#paint5_linear_909_832)" />
        </g>
        <g id="cube-group_3">
          <rect id="top-face_3" width="175.452" height="29.242"
            transform="matrix(0.866025 0.5 -0.866025 0.5 25.3242 561.614)" fill="url(#paint6_linear_909_832)" />
          <rect id="left-face_3" width="175.452" height="254.823" transform="matrix(0.866025 0.5 0 1 0 576.235)"
            fill="url(#paint7_linear_909_832)" />
          <rect id="right-face_3" width="29.242" height="254.823" transform="matrix(0.866025 -0.5 0 1 151.946 663.961)"
            fill="url(#paint8_linear_909_832)" />
        </g>
      </g>
      <g id="random building_2">
        <g id="cube-group_4">
          <rect id="top-face_4" width="119.823" height="85.5882"
            transform="matrix(-0.866025 0.5 0.866025 0.5 474.192 482.1)" fill="url(#paint9_linear_909_832)" />
          <rect id="left-face_4" width="119.823" height="16.9586" transform="matrix(-0.866025 0.5 0 1 548.313 524.894)"
            fill="url(#paint10_linear_909_832)" />
          <rect id="right-face_4" width="85.5882" height="202.559"
            transform="matrix(-0.866025 -0.5 0 1 444.543 584.806)" fill="url(#paint11_linear_909_832)" />
        </g>
        <g id="cube-group_5">
          <rect id="top-face_5" width="119.823" height="19.9706"
            transform="matrix(-0.866025 0.5 0.866025 0.5 548.313 539.172)" fill="url(#paint12_linear_909_832)" />
          <rect id="left-face_5" width="119.823" height="14.1832" transform="matrix(-0.866025 0.5 0 1 565.608 549.157)"
            fill="url(#paint13_linear_909_832)" />
          <rect id="right-face_5" width="19.9706" height="188.294"
            transform="matrix(-0.866025 -0.5 0 1 461.838 609.069)" fill="url(#paint14_linear_909_832)" />
        </g>
        <g id="cube-group_6">
          <rect id="top-face_6" width="119.823" height="19.9706"
            transform="matrix(-0.866025 0.5 0.866025 0.5 565.608 563.416)" fill="url(#paint15_linear_909_832)" />
          <rect id="right-face_6" width="19.9706" height="174.029"
            transform="matrix(-0.866025 -0.5 0 1 479.133 633.313)" fill="url(#paint16_linear_909_832)" />
        </g>
      </g>
      <g id="random building_3">
        <g id="random building_4">
          <g id="cube-group_7">
            <rect id="top-face_7" width="210.3" height="150.214"
              transform="matrix(0.866025 0.5 -0.866025 0.5 309.381 40.998)" fill="url(#paint17_linear_909_832)" />
            <rect id="left-face_6" width="210.3" height="29.7636" transform="matrix(0.866025 0.5 0 1 179.292 116.105)"
              fill="url(#paint18_linear_909_832)" />
            <rect id="right-face_7" width="150.214" height="355.507"
              transform="matrix(0.866025 -0.5 0 1 361.417 221.255)" fill="url(#paint19_linear_909_832)" />
          </g>
          <g id="cube-group_8">
            <rect id="top-face_8" width="210.3" height="35.05"
              transform="matrix(0.866025 0.5 -0.866025 0.5 179.291 141.164)" fill="url(#paint20_linear_909_832)" />
            <rect id="left-face_7" width="210.3" height="24.8927" transform="matrix(0.866025 0.5 0 1 148.937 158.689)"
              fill="url(#paint21_linear_909_832)" />
            <rect id="right-face_8" width="35.05" height="330.471" transform="matrix(0.866025 -0.5 0 1 331.062 263.839)"
              fill="url(#paint22_linear_909_832)" />
          </g>
          <g id="cube-group_9">
            <rect id="top-face_9" width="210.3" height="35.05"
              transform="matrix(0.866025 0.5 -0.866025 0.5 148.937 183.715)" fill="url(#paint23_linear_909_832)" />
            <rect id="left-face_8" width="210.3" height="305.436" transform="matrix(0.866025 0.5 0 1 118.583 201.24)"
              fill="url(#paint24_linear_909_832)" />
            <rect id="right-face_9" width="35.05" height="305.436" transform="matrix(0.866025 -0.5 0 1 300.708 306.39)"
              fill="url(#paint25_linear_909_832)" />
          </g>
        </g>
        <g id="windows">
          <g id="Group 221">
            <g id="Group">
              <mask id="mask0_909_832" style="mask-type:alpha" maskUnits="userSpaceOnUse" x="455" y="180" width="27"
                height="76">
                <rect id="mask-face" width="30" height="60" transform="matrix(0.866025 -0.5 0 1 455.99 195.752)"
                  fill="#D9D9D9" />
              </mask>
              <g mask="url(#mask0_909_832)">
                <rect id="bottom-inner-face" width="30" height="10"
                  transform="matrix(0.866025 -0.5 0.866025 0.5 447.33 250.752)" fill="#FBBEAE" />
                <rect id="inner-face" width="30" height="60" transform="matrix(0.866025 -0.5 0 1 447.33 190.752)"
                  fill="#DE846E" />
              </g>
            </g>
            <g id="Group_2">
              <mask id="mask1_909_832" style="mask-type:alpha" maskUnits="userSpaceOnUse" x="416" y="202" width="27"
                height="76">
                <rect id="mask-face_2" width="30" height="60" transform="matrix(0.866025 -0.5 0 1 416.204 217.854)"
                  fill="#D9D9D9" />
              </mask>
              <g mask="url(#mask1_909_832)">
                <rect id="right-inner-face" width="10" height="60" transform="matrix(0.866025 0.5 0 1 433.525 197.854)"
                  fill="#F49C86" />
                <rect id="bottom-inner-face_2" width="30" height="10"
                  transform="matrix(0.866025 -0.5 0.866025 0.5 407.544 272.854)" fill="#FBBEAE" />
                <rect id="inner-face_2" width="30" height="60" transform="matrix(0.866025 -0.5 0 1 407.544 212.854)"
                  fill="#DE846E" />
              </g>
            </g>
            <g id="Group_3">
              <mask id="mask2_909_832" style="mask-type:alpha" maskUnits="userSpaceOnUse" x="376" y="224" width="27"
                height="76">
                <rect id="mask-face_3" width="30" height="60" transform="matrix(0.866025 -0.5 0 1 376.419 239.957)"
                  fill="#D9D9D9" />
              </mask>
              <g mask="url(#mask2_909_832)">
                <rect id="right-inner-face_2" width="10" height="60" transform="matrix(0.866025 0.5 0 1 393.74 219.957)"
                  fill="#F49C86" />
                <rect id="bottom-inner-face_3" width="30" height="10"
                  transform="matrix(0.866025 -0.5 0.866025 0.5 367.759 294.957)" fill="#FBBEAE" />
                <rect id="inner-face_3" width="30" height="60" transform="matrix(0.866025 -0.5 0 1 367.759 234.957)"
                  fill="#DE846E" />
              </g>
            </g>
          </g>
          <g id="Group 220">
            <g id="Group_4">
              <mask id="mask3_909_832" style="mask-type:alpha" maskUnits="userSpaceOnUse" x="442" y="299" width="27"
                height="76">
                <rect id="mask-face_4" width="30" height="60" transform="matrix(0.866025 -0.5 0 1 442.999 314.956)"
                  fill="#D9D9D9" />
              </mask>
              <g mask="url(#mask3_909_832)">
                <rect id="right-inner-face_3" width="10" height="60" transform="matrix(0.866025 0.5 0 1 460.32 294.956)"
                  fill="#F49C86" fill-opacity="0.75" />
                <rect id="bottom-inner-face_4" width="30" height="10"
                  transform="matrix(0.866025 -0.5 0.866025 0.5 434.339 369.956)" fill="#FBBEAE" fill-opacity="0.75" />
                <rect id="inner-face_4" width="30" height="60" transform="matrix(0.866025 -0.5 0 1 434.339 309.956)"
                  fill="#DE846E" fill-opacity="0.75" />
              </g>
            </g>
            <g id="Group_5">
              <mask id="mask4_909_832" style="mask-type:alpha" maskUnits="userSpaceOnUse" x="403" y="322" width="27"
                height="76">
                <rect id="mask-face_5" width="30" height="60" transform="matrix(0.866025 -0.5 0 1 403.214 337.06)"
                  fill="#D9D9D9" />
              </mask>
              <g mask="url(#mask4_909_832)">
                <rect id="right-inner-face_4" width="10" height="60" transform="matrix(0.866025 0.5 0 1 420.534 317.06)"
                  fill="#F49C86" fill-opacity="0.75" />
                <rect id="bottom-inner-face_5" width="30" height="10"
                  transform="matrix(0.866025 -0.5 0.866025 0.5 394.554 392.06)" fill="#FBBEAE" fill-opacity="0.75" />
                <rect id="inner-face_5" width="30" height="60" transform="matrix(0.866025 -0.5 0 1 394.554 332.06)"
                  fill="#DE846E" fill-opacity="0.75" />
              </g>
            </g>
            <g id="Group_6">
              <mask id="mask5_909_832" style="mask-type:alpha" maskUnits="userSpaceOnUse" x="363" y="344" width="27"
                height="76">
                <rect id="mask-face_6" width="30" height="60" transform="matrix(0.866025 -0.5 0 1 363.428 359.163)"
                  fill="#D9D9D9" />
              </mask>
              <g mask="url(#mask5_909_832)">
                <rect id="right-inner-face_5" width="10" height="60"
                  transform="matrix(0.866025 0.5 0 1 380.749 339.163)" fill="#F49C86" fill-opacity="0.75" />
                <rect id="bottom-inner-face_6" width="30" height="10"
                  transform="matrix(0.866025 -0.5 0.866025 0.5 354.768 414.163)" fill="#FBBEAE" fill-opacity="0.75" />
                <rect id="inner-face_6" width="30" height="60" transform="matrix(0.866025 -0.5 0 1 354.768 354.163)"
                  fill="#DE846E" fill-opacity="0.75" />
              </g>
            </g>
          </g>
          <g id="Group 219">
            <g id="Group_7">
              <mask id="mask6_909_832" style="mask-type:alpha" maskUnits="userSpaceOnUse" x="430" y="412" width="26"
                height="76">
                <rect id="mask-face_7" width="30" height="60" transform="matrix(0.866025 -0.5 0 1 430.009 427.988)"
                  fill="#D9D9D9" />
              </mask>
              <g mask="url(#mask6_909_832)">
                <rect id="right-inner-face_6" width="10" height="60"
                  transform="matrix(0.866025 0.5 0 1 447.329 407.988)" fill="#F49C86" fill-opacity="0.5" />
                <rect id="bottom-inner-face_7" width="30" height="10"
                  transform="matrix(0.866025 -0.5 0.866025 0.5 421.349 482.988)" fill="#FBBEAE" fill-opacity="0.5" />
                <rect id="inner-face_7" width="30" height="60" transform="matrix(0.866025 -0.5 0 1 421.349 422.988)"
                  fill="#DE846E" fill-opacity="0.5" />
              </g>
            </g>
            <g id="Group_8">
              <mask id="mask7_909_832" style="mask-type:alpha" maskUnits="userSpaceOnUse" x="390" y="435" width="27"
                height="76">
                <rect id="mask-face_8" width="30" height="60" transform="matrix(0.866025 -0.5 0 1 390.223 450.091)"
                  fill="#D9D9D9" />
              </mask>
              <g mask="url(#mask7_909_832)">
                <rect id="right-inner-face_7" width="10" height="60"
                  transform="matrix(0.866025 0.5 0 1 407.544 430.091)" fill="#F49C86" fill-opacity="0.5" />
                <rect id="bottom-inner-face_8" width="30" height="10"
                  transform="matrix(0.866025 -0.5 0.866025 0.5 381.563 505.091)" fill="#FBBEAE" fill-opacity="0.5" />
                <rect id="inner-face_8" width="30" height="60" transform="matrix(0.866025 -0.5 0 1 381.563 445.091)"
                  fill="#DE846E" fill-opacity="0.5" />
              </g>
            </g>
            <g id="Group_9">
              <mask id="mask8_909_832" style="mask-type:alpha" maskUnits="userSpaceOnUse" x="350" y="457" width="27"
                height="76">
                <rect id="mask-face_9" width="30" height="60" transform="matrix(0.866025 -0.5 0 1 350.438 472.193)"
                  fill="#D9D9D9" />
              </mask>
              <g mask="url(#mask8_909_832)">
                <rect id="right-inner-face_8" width="10" height="60"
                  transform="matrix(0.866025 0.5 0 1 367.759 452.193)" fill="#F49C86" fill-opacity="0.5" />
                <rect id="bottom-inner-face_9" width="30" height="10"
                  transform="matrix(0.866025 -0.5 0.866025 0.5 341.778 527.193)" fill="#FBBEAE" fill-opacity="0.5" />
                <rect id="inner-face_9" width="30" height="60" transform="matrix(0.866025 -0.5 0 1 341.778 467.193)"
                  fill="#DE846E" fill-opacity="0.5" />
              </g>
            </g>
          </g>
        </g>
      </g>
    </g>
    <g id="goldenhawk">
      <path id="shadow"
        d="M323.162 121.717C300.872 124.173 290.943 146.369 266.229 139.764C241.515 133.159 229.818 119.458 240.101 109.163C250.385 98.8678 284.529 82.7845 309.243 89.3897C311.431 97.5351 347.003 103.59 349.652 109.163C359.304 116.024 349.652 118.799 323.162 121.717Z"
        fill="#BCBCBC" fill-opacity="0.5" />
      <path id="gymbro hawk's tail"
        d="M337.008 96.7956C324.812 95.2197 302.121 77.354 292.301 68.6182C293.157 82.7212 296.155 110.071 301.293 106.645C307.717 102.363 325.702 106.731 341.376 112.554C353.914 117.214 355.107 113.925 354.137 111.698C353.509 107.387 349.204 98.3715 337.008 96.7956Z"
        fill="#F0E698" />
      <path id="Vector 80"
        d="M289.644 135.311C284.295 136.621 277.722 127.957 275.105 123.461L300.214 113.826C298.92 120.441 294.994 134 289.644 135.311Z"
        fill="#E3C079" />
      <path id="Vector 83"
        d="M235.548 117.983C234.32 115.432 240.536 109.89 243.797 107.439L252 115.007C247.028 117.062 236.775 120.534 235.548 117.983Z"
        fill="#E3C079" />
      <path id="left arm"
        d="M239.258 52.2066C243.698 58.4018 238.548 62.3537 235.418 63.5552C222.99 73.1472 201.474 35.51 191.992 27.6104C184.406 21.2907 193.509 20.8645 199.008 21.4414C218.233 24.716 233.852 43.316 239.258 52.2066Z"
        fill="#E3C079" />
      <path id="Vector 79"
        d="M259.644 120.454C219.226 101.844 224.89 69.185 232.774 55.1815C239.415 37.8693 258.94 12.0089 283.916 47.0654C315.135 90.8861 310.167 143.716 259.644 120.454Z"
        fill="#F1CE89" />
      <path id="Vector 78"
        d="M225.361 27.5471C226.317 11.7442 241.738 6.95219 249.33 6.53154C252.121 6.18485 256.215 6.86334 257.913 7.24592C266.042 9.8332 268.748 13.3125 273.758 26.8418C277.934 38.116 281.766 44.4854 283.873 47.1878C284.228 47.5549 284.578 47.9514 284.918 48.3791C284.646 48.1221 284.294 47.7283 283.873 47.1878C281.093 44.3165 277.986 43.2414 276.651 43.0646C278.674 48.6832 278.511 52.7406 278.176 54.067C275.656 49.9844 272.619 48.412 271.416 48.1361C266.326 51.8224 266.67 58.8053 267.478 61.8359C264.717 55.6694 258.96 53.4178 256.427 53.0628C254.353 54.902 253.739 62.4592 253.617 66.033C253.675 66.4647 253.698 66.8716 253.68 67.2448C253.617 68.5912 253.557 67.7978 253.617 66.033C253.176 62.6957 250.709 57.8746 249.385 55.6562L246.544 65.5434C243.711 58.0689 236.114 55.3397 232.67 54.9094C234.189 52.1558 231.616 48.5814 230.14 47.1384C224.683 41.1745 224.68 31.5926 225.361 27.5471Z"
        fill="#F0E698" />
      <ellipse id="Ellipse 290" cx="2.38153" cy="3.14397" rx="2.38153" ry="3.14397"
        transform="matrix(0.539632 0.841901 -0.27624 0.961089 249.43 29.1738)" fill="#4A5051" />
      <ellipse id="Ellipse 291" cx="2.38153" cy="3.14397" rx="2.38153" ry="3.14397"
        transform="matrix(0.539632 0.841901 -0.27624 0.961089 233.104 27.001)" fill="#4A5051" />
      <path id="Vector 82"
        d="M243.949 38.8015C242.673 34.5727 238.624 34.9351 236.758 35.6448C230.849 38.8673 228.585 47.2849 228.192 51.091C228.666 50.708 230.698 49.9581 235.04 50.0225C239.382 50.0869 241.99 49.1392 242.751 48.6573C243.682 47.134 245.225 43.0303 243.949 38.8015Z"
        fill="#D59B24" />
      <path id="right arm"
        d="M275.936 56.8495C266.842 54.1079 264.993 61.2297 265.205 65.1333C270.717 90.02 288.046 105.815 296.022 110.602C308.21 118.472 329.771 128.131 315.05 110.206C309.015 102.858 291.181 60.1194 275.936 56.8495Z"
        fill="#E3C079" />
    </g>
    <g id="water door">
      <g id="water behind platform">
        <path id="base-face"
          d="M299.32 610.759L240.292 572.573L232.056 567.242L232.056 589.05C232.056 591.771 233.883 595.173 236.166 596.708L293.168 635.012C293.478 635.221 293.787 635.464 294.083 635.764C299.081 640.833 308.2 655.887 307.962 679.424C307.718 703.569 307.859 3403.84 307.961 3712.15C307.962 3714.95 309.883 3717.55 312.228 3719.02L325.348 3727.25V658.598C325.348 641.477 313.695 620.059 299.32 610.759Z"
          fill="url(#paint26_linear_909_832)" fill-opacity="0.75" />
        <rect id="right-face_10" width="60.7818" height="3100" transform="matrix(0.83962 -0.543174 0 1 325.348 661.713)"
          fill="url(#paint27_linear_909_832)" fill-opacity="0.75" />
        <rect id="top-face_10" width="69.4792" height="60.7818"
          transform="matrix(0.83962 0.543174 -0.83962 0.543174 291.678 539.785)" fill="url(#paint28_linear_909_832)"
          fill-opacity="0.75" />
        <path id="r-face-2"
          d="M325.348 661.712C325.348 642.871 313.543 619.96 298.981 610.539L350.014 577.524C364.577 586.945 376.382 609.856 376.382 628.697L325.348 661.712Z"
          fill="#20A1B0" fill-opacity="0.75" />
      </g>
      <g id="floating door">
        <g id="extrude-group">
          <path id="base-face_2"
            d="M291.539 416.391C291.539 399.606 280.115 393.391 266.022 402.508V402.508C251.93 411.624 240.505 432.621 240.505 449.406V573.085L291.539 540.07V416.391Z"
            fill="url(#paint29_linear_909_832)" />
          <rect id="right-face_11" width="10.1303" height="121.316"
            transform="matrix(-0.83962 -0.543174 0 1 240.506 452.03)" fill="#55C2CD" fill-opacity="0.5" />
          <path id="r-face-1"
            d="M284.065 400.505C279.083 397.282 272.553 398.283 266.022 402.508L257.517 397.005C264.047 392.78 270.577 391.779 275.56 395.002L284.065 400.505Z"
            fill="#7BE0EC" fill-opacity="0.5" />
          <path id="r-face-2_2"
            d="M240.506 452.03C240.506 433.796 251.93 411.624 266.022 402.507L257.517 397.005C243.424 406.122 232 428.294 232 446.527L240.506 452.03Z"
            fill="#55C2CD" fill-opacity="0.5" />
        </g>
        <g id="cylinder-group">
          <ellipse id="base-face_3" cx="5.06515" cy="5.50251" rx="5.06515" ry="5.50251"
            transform="matrix(-0.83962 0.543174 0 1 260.2 493.429)" fill="#666666" />
          <path id="r-face-1_2"
            d="M258.955 495.846C258.124 495.309 257.036 495.476 255.948 496.18L251.695 493.429C252.783 492.725 253.872 492.558 254.702 493.095L258.955 495.846Z"
            fill="#8C8C8C" />
          <path id="r-face-2_3"
            d="M251.695 504.434C251.695 501.395 253.599 497.7 255.948 496.18L251.695 493.429C249.346 494.949 247.442 498.644 247.442 501.683L251.695 504.434Z"
            fill="#8C8C8C" />
          <path id="r-face-3"
            d="M252.94 507.518C252.11 506.981 251.695 505.842 251.695 504.433L247.442 501.682C247.442 503.09 247.857 504.23 248.688 504.767L252.94 507.518Z"
            fill="#404040" />
        </g>
      </g>
    </g>
  </g>
  <defs>
    <linearGradient id="paint0_linear_909_832" x1="87.7259" y1="0" x2="87.7259" y2="125.323"
      gradientUnits="userSpaceOnUse">
      <stop stop-color="#F5D0C7" />
      <stop offset="1" stop-color="#ED9F8C" />
    </linearGradient>
    <linearGradient id="paint1_linear_909_832" x1="87.7259" y1="0" x2="87.7259" y2="24.8316"
      gradientUnits="userSpaceOnUse">
      <stop stop-color="#ED9F8C" />
      <stop offset="1" stop-color="#DD7C64" />
    </linearGradient>
    <linearGradient id="paint2_linear_909_832" x1="62.6613" y1="0" x2="62.6613" y2="296.597"
      gradientUnits="userSpaceOnUse">
      <stop stop-color="#ED9F8C" />
      <stop offset="1" stop-color="#ED9F8C" stop-opacity="0" />
    </linearGradient>
    <linearGradient id="paint3_linear_909_832" x1="87.7259" y1="0" x2="87.7259" y2="29.242"
      gradientUnits="userSpaceOnUse">
      <stop stop-color="#F5D0C7" />
      <stop offset="1" stop-color="#ED9F8C" />
    </linearGradient>
    <linearGradient id="paint4_linear_909_832" x1="87.7259" y1="0" x2="87.7259" y2="20.7678"
      gradientUnits="userSpaceOnUse">
      <stop stop-color="#ED9F8C" />
      <stop offset="1" stop-color="#DD7C64" />
    </linearGradient>
    <linearGradient id="paint5_linear_909_832" x1="14.621" y1="0" x2="14.621" y2="275.71"
      gradientUnits="userSpaceOnUse">
      <stop stop-color="#ED9F8C" />
      <stop offset="1" stop-color="#ED9F8C" stop-opacity="0" />
    </linearGradient>
    <linearGradient id="paint6_linear_909_832" x1="87.7259" y1="0" x2="87.7259" y2="29.242"
      gradientUnits="userSpaceOnUse">
      <stop stop-color="#F5D0C7" />
      <stop offset="1" stop-color="#ED9F8C" />
    </linearGradient>
    <linearGradient id="paint7_linear_909_832" x1="87.7259" y1="0" x2="87.7259" y2="254.823"
      gradientUnits="userSpaceOnUse">
      <stop stop-color="#ED9F8C" />
      <stop offset="1" stop-color="#ED9F8C" stop-opacity="0" />
    </linearGradient>
    <linearGradient id="paint8_linear_909_832" x1="14.621" y1="0" x2="14.621" y2="254.823"
      gradientUnits="userSpaceOnUse">
      <stop stop-color="#ED9F8C" />
      <stop offset="1" stop-color="#ED9F8C" stop-opacity="0" />
    </linearGradient>
    <linearGradient id="paint9_linear_909_832" x1="59.9117" y1="0" x2="59.9117" y2="85.5882"
      gradientUnits="userSpaceOnUse">
      <stop stop-color="#F5D0C7" />
      <stop offset="1" stop-color="#ED9F8C" />
    </linearGradient>
    <linearGradient id="paint10_linear_909_832" x1="59.9117" y1="0" x2="59.9117" y2="16.9586"
      gradientUnits="userSpaceOnUse">
      <stop stop-color="#ED9F8C" />
      <stop offset="1" stop-color="#DD7C64" />
    </linearGradient>
    <linearGradient id="paint11_linear_909_832" x1="42.7941" y1="0" x2="42.7941" y2="202.559"
      gradientUnits="userSpaceOnUse">
      <stop stop-color="#ED9F8C" />
      <stop offset="1" stop-color="#ED9F8C" stop-opacity="0" />
    </linearGradient>
    <linearGradient id="paint12_linear_909_832" x1="59.9117" y1="0" x2="59.9117" y2="19.9706"
      gradientUnits="userSpaceOnUse">
      <stop stop-color="#F5D0C7" />
      <stop offset="1" stop-color="#ED9F8C" />
    </linearGradient>
    <linearGradient id="paint13_linear_909_832" x1="59.9117" y1="0" x2="59.9117" y2="14.1832"
      gradientUnits="userSpaceOnUse">
      <stop stop-color="#ED9F8C" />
      <stop offset="1" stop-color="#DD7C64" />
    </linearGradient>
    <linearGradient id="paint14_linear_909_832" x1="9.98529" y1="0" x2="9.98529" y2="188.294"
      gradientUnits="userSpaceOnUse">
      <stop stop-color="#ED9F8C" />
      <stop offset="1" stop-color="#ED9F8C" stop-opacity="0" />
    </linearGradient>
    <linearGradient id="paint15_linear_909_832" x1="59.9117" y1="0" x2="59.9117" y2="19.9706"
      gradientUnits="userSpaceOnUse">
      <stop stop-color="#F5D0C7" />
      <stop offset="1" stop-color="#ED9F8C" />
    </linearGradient>
    <linearGradient id="paint16_linear_909_832" x1="9.98529" y1="0" x2="9.98529" y2="174.029"
      gradientUnits="userSpaceOnUse">
      <stop stop-color="#ED9F8C" />
      <stop offset="1" stop-color="#ED9F8C" stop-opacity="0" />
    </linearGradient>
    <linearGradient id="paint17_linear_909_832" x1="105.15" y1="0" x2="105.15" y2="150.214"
      gradientUnits="userSpaceOnUse">
      <stop stop-color="#F5D0C7" />
      <stop offset="1" stop-color="#ED9F8C" />
    </linearGradient>
    <linearGradient id="paint18_linear_909_832" x1="105.15" y1="0" x2="105.15" y2="29.7636"
      gradientUnits="userSpaceOnUse">
      <stop stop-color="#ED9F8C" />
      <stop offset="1" stop-color="#DD7C64" />
    </linearGradient>
    <linearGradient id="paint19_linear_909_832" x1="75.1071" y1="0" x2="75.1071" y2="355.507"
      gradientUnits="userSpaceOnUse">
      <stop stop-color="#ED9F8C" />
      <stop offset="1" stop-color="#ED9F8C" stop-opacity="0" />
    </linearGradient>
    <linearGradient id="paint20_linear_909_832" x1="105.15" y1="0" x2="105.15" y2="35.05"
      gradientUnits="userSpaceOnUse">
      <stop stop-color="#F5D0C7" />
      <stop offset="1" stop-color="#ED9F8C" />
    </linearGradient>
    <linearGradient id="paint21_linear_909_832" x1="105.15" y1="0" x2="105.15" y2="24.8927"
      gradientUnits="userSpaceOnUse">
      <stop stop-color="#ED9F8C" />
      <stop offset="1" stop-color="#DD7C64" />
    </linearGradient>
    <linearGradient id="paint22_linear_909_832" x1="17.525" y1="0" x2="17.525" y2="330.471"
      gradientUnits="userSpaceOnUse">
      <stop stop-color="#ED9F8C" />
      <stop offset="1" stop-color="#ED9F8C" stop-opacity="0" />
    </linearGradient>
    <linearGradient id="paint23_linear_909_832" x1="105.15" y1="0" x2="105.15" y2="35.05"
      gradientUnits="userSpaceOnUse">
      <stop stop-color="#F5D0C7" />
      <stop offset="1" stop-color="#ED9F8C" />
    </linearGradient>
    <linearGradient id="paint24_linear_909_832" x1="105.15" y1="0" x2="105.15" y2="305.436"
      gradientUnits="userSpaceOnUse">
      <stop stop-color="#ED9F8C" />
      <stop offset="1" stop-color="#ED9F8C" stop-opacity="0" />
    </linearGradient>
    <linearGradient id="paint25_linear_909_832" x1="17.525" y1="0" x2="17.525" y2="305.436"
      gradientUnits="userSpaceOnUse">
      <stop stop-color="#ED9F8C" />
      <stop offset="1" stop-color="#ED9F8C" stop-opacity="0" />
    </linearGradient>
    <linearGradient id="paint26_linear_909_832" x1="278.702" y1="597.418" x2="-1135.08" y2="2782.8"
      gradientUnits="userSpaceOnUse">
      <stop stop-color="#137A84" />
      <stop offset="0.820043" stop-color="#1B97A3" stop-opacity="0.414957" />
      <stop offset="1" stop-color="#1B97A3" stop-opacity="0" />
    </linearGradient>
    <linearGradient id="paint27_linear_909_832" x1="30.3909" y1="0" x2="30.3909" y2="3100"
      gradientUnits="userSpaceOnUse">
      <stop stop-color="#20A1B0" />
      <stop offset="0.497316" stop-color="#137C88" />
      <stop offset="1" stop-color="#137C88" stop-opacity="0" />
    </linearGradient>
    <linearGradient id="paint28_linear_909_832" x1="-7.84797" y1="30.8211" x2="39.3731" y2="-23.8245"
      gradientUnits="userSpaceOnUse">
      <stop stop-color="#1EA1AD" />
      <stop offset="1" stop-color="#45D7E5" />
    </linearGradient>
    <linearGradient id="paint29_linear_909_832" x1="266.022" y1="402.508" x2="336.287" y2="511.121"
      gradientUnits="userSpaceOnUse">
      <stop stop-color="#FFF5ED" />
      <stop offset="1" stop-color="#E6B9A0" />
    </linearGradient>
  </defs>
</svg>