<svg width="382" height="105" viewBox="0 0 382 105" fill="none" xmlns="http://www.w3.org/2000/svg">
<path d="M100.59 70C100.311 70 100.049 69.8951 99.8039 69.6854C99.5942 69.4408 99.4894 69.1787 99.4894 68.8991C99.4894 68.6894 99.5068 68.5322 99.5418 68.4273L111.861 34.773C111.966 34.3537 112.193 34.0042 112.542 33.7246C112.892 33.445 113.346 33.3052 113.905 33.3052H121.663C122.223 33.3052 122.677 33.445 123.026 33.7246C123.376 34.0042 123.603 34.3537 123.708 34.773L135.974 68.4273L136.079 68.8991C136.079 69.1787 135.957 69.4408 135.712 69.6854C135.503 69.8951 135.241 70 134.926 70H128.478C127.639 70 127.08 69.633 126.801 68.8991L124.756 63.5522H110.76L108.768 68.8991C108.488 69.633 107.912 70 107.038 70H100.59ZM122.659 56.0035L117.784 42.1644L112.909 56.0035H122.659ZM147.94 70.5242C145.11 70.5242 142.733 70.1223 140.811 69.3185C138.924 68.5147 137.526 67.5537 136.617 66.4353C135.709 65.317 135.254 64.321 135.254 63.4473C135.254 63.0979 135.377 62.8183 135.621 62.6086C135.901 62.364 136.198 62.2417 136.513 62.2417H142.489C142.698 62.2417 142.89 62.329 143.065 62.5038C143.485 62.7833 143.799 63.0105 144.009 63.1852C144.778 63.7444 145.442 64.1638 146.001 64.4433C146.595 64.688 147.311 64.8103 148.15 64.8103C149.163 64.8103 149.985 64.6181 150.614 64.2337C151.278 63.8143 151.61 63.2377 151.61 62.5038C151.61 61.9097 151.435 61.4379 151.086 61.0884C150.771 60.7389 150.142 60.4069 149.198 60.0924C148.255 59.7429 146.822 59.376 144.9 58.9915C141.999 58.3974 139.763 57.4364 138.19 56.1084C136.652 54.7454 135.883 52.9282 135.883 50.6566C135.883 49.2238 136.338 47.8608 137.246 46.5678C138.155 45.2747 139.501 44.2263 141.283 43.4225C143.1 42.6187 145.249 42.2168 147.731 42.2168C150.212 42.2168 152.379 42.6012 154.231 43.3701C156.083 44.1389 157.481 45.0825 158.425 46.2008C159.403 47.2842 159.892 48.2802 159.892 49.1888C159.892 49.5033 159.77 49.7829 159.525 50.0275C159.316 50.2722 159.054 50.3945 158.739 50.3945H153.287C153.008 50.3945 152.746 50.3071 152.501 50.1324C152.047 49.8878 151.645 49.6257 151.295 49.3461C150.701 48.8918 150.142 48.5423 149.618 48.2977C149.094 48.053 148.447 47.9307 147.678 47.9307C146.77 47.9307 146.036 48.1404 145.477 48.5598C144.952 48.9791 144.69 49.5208 144.69 50.1848C144.69 50.709 144.83 51.1459 145.11 51.4953C145.424 51.8448 146.053 52.1943 146.997 52.5438C147.975 52.8583 149.408 53.1903 151.295 53.5398C154.685 54.1339 157.149 55.1823 158.687 56.685C160.259 58.1878 161.046 59.9526 161.046 61.9795C161.046 64.5657 159.892 66.645 157.586 68.2177C155.279 69.7553 152.064 70.5242 147.94 70.5242ZM174.003 70.5242C171.172 70.5242 168.796 70.1223 166.874 69.3185C164.987 68.5147 163.589 67.5537 162.68 66.4353C161.771 65.317 161.317 64.321 161.317 63.4473C161.317 63.0979 161.439 62.8183 161.684 62.6086C161.964 62.364 162.261 62.2417 162.575 62.2417H168.551C168.761 62.2417 168.953 62.329 169.128 62.5038C169.547 62.7833 169.862 63.0105 170.071 63.1852C170.84 63.7444 171.504 64.1638 172.063 64.4433C172.657 64.688 173.374 64.8103 174.213 64.8103C175.226 64.8103 176.047 64.6181 176.676 64.2337C177.34 63.8143 177.672 63.2377 177.672 62.5038C177.672 61.9097 177.498 61.4379 177.148 61.0884C176.834 60.7389 176.205 60.4069 175.261 60.0924C174.317 59.7429 172.885 59.376 170.963 58.9915C168.062 58.3974 165.825 57.4364 164.253 56.1084C162.715 54.7454 161.946 52.9282 161.946 50.6566C161.946 49.2238 162.4 47.8608 163.309 46.5678C164.218 45.2747 165.563 44.2263 167.345 43.4225C169.163 42.6187 171.312 42.2168 173.793 42.2168C176.275 42.2168 178.441 42.6012 180.293 43.3701C182.146 44.1389 183.544 45.0825 184.487 46.2008C185.466 47.2842 185.955 48.2802 185.955 49.1888C185.955 49.5033 185.833 49.7829 185.588 50.0275C185.378 50.2722 185.116 50.3945 184.802 50.3945H179.35C179.07 50.3945 178.808 50.3071 178.564 50.1324C178.109 49.8878 177.707 49.6257 177.358 49.3461C176.764 48.8918 176.205 48.5423 175.68 48.2977C175.156 48.053 174.51 47.9307 173.741 47.9307C172.832 47.9307 172.098 48.1404 171.539 48.5598C171.015 48.9791 170.753 49.5208 170.753 50.1848C170.753 50.709 170.893 51.1459 171.172 51.4953C171.487 51.8448 172.116 52.1943 173.059 52.5438C174.038 52.8583 175.471 53.1903 177.358 53.5398C180.748 54.1339 183.212 55.1823 184.749 56.685C186.322 58.1878 187.108 59.9526 187.108 61.9795C187.108 64.5657 185.955 66.645 183.648 68.2177C181.342 69.7553 178.127 70.5242 174.003 70.5242ZM201.429 70.5242C197.235 70.5242 193.932 69.3884 191.521 67.1168C189.11 64.8452 187.851 61.5427 187.747 57.2092V55.3745C187.886 51.2507 189.162 48.0355 191.573 45.729C194.02 43.3875 197.287 42.2168 201.376 42.2168C204.347 42.2168 206.845 42.8284 208.872 44.0515C210.934 45.2398 212.472 46.8823 213.485 48.9791C214.534 51.076 215.058 53.4873 215.058 56.2132V57.4713C215.058 57.8208 214.936 58.1353 214.691 58.4149C214.446 58.6595 214.132 58.7819 213.747 58.7819H196.973V59.1488C197.043 60.7913 197.445 62.1193 198.178 63.1328C198.912 64.1463 199.978 64.653 201.376 64.653C202.25 64.653 202.966 64.4783 203.525 64.1288C204.085 63.7444 204.591 63.2901 205.046 62.7659C205.36 62.3814 205.605 62.1543 205.779 62.0844C205.989 61.9795 206.304 61.9271 206.723 61.9271H213.223C213.538 61.9271 213.8 62.032 214.01 62.2417C214.254 62.4164 214.377 62.661 214.377 62.9755C214.377 63.8842 213.852 64.9326 212.804 66.1208C211.79 67.309 210.305 68.34 208.348 69.2137C206.391 70.0873 204.085 70.5242 201.429 70.5242ZM205.832 53.5922V53.4873C205.832 51.7749 205.43 50.4294 204.626 49.4509C203.857 48.4374 202.774 47.9307 201.376 47.9307C200.013 47.9307 198.93 48.4374 198.126 49.4509C197.357 50.4294 196.973 51.7749 196.973 53.4873V53.5922H205.832ZM218.371 70C217.986 70 217.672 69.8777 217.427 69.633C217.182 69.3884 217.06 69.0739 217.06 68.6894V44.0515C217.06 43.6671 217.182 43.3526 217.427 43.108C217.672 42.8633 217.986 42.741 218.371 42.741H224.085C224.469 42.741 224.784 42.8633 225.028 43.108C225.273 43.3526 225.395 43.6671 225.395 44.0515V45.8339C226.199 44.7854 227.265 43.9292 228.593 43.2652C229.956 42.5663 231.476 42.2168 233.153 42.2168C236.998 42.2168 239.654 43.7195 241.121 46.725C241.96 45.397 243.131 44.3137 244.634 43.4749C246.136 42.6362 247.744 42.2168 249.456 42.2168C252.322 42.2168 254.646 43.1953 256.428 45.1524C258.246 47.0745 259.154 49.9577 259.154 53.8019V68.6894C259.154 69.0389 259.032 69.3534 258.787 69.633C258.543 69.8777 258.228 70 257.844 70H251.763C251.378 70 251.046 69.8777 250.767 69.633C250.522 69.3884 250.4 69.0739 250.4 68.6894V54.1688C250.4 52.4214 250.033 51.1633 249.299 50.3945C248.6 49.6257 247.639 49.2412 246.416 49.2412C245.298 49.2412 244.372 49.6431 243.638 50.4469C242.904 51.2158 242.537 52.4564 242.537 54.1688V68.6894C242.537 69.0389 242.414 69.3534 242.17 69.633C241.925 69.8777 241.611 70 241.226 70H235.145C234.761 70 234.446 69.8777 234.202 69.633C233.957 69.3884 233.835 69.0739 233.835 68.6894V54.1688C233.835 52.4564 233.45 51.2158 232.682 50.4469C231.948 49.6431 231.004 49.2412 229.851 49.2412C228.733 49.2412 227.789 49.6431 227.02 50.4469C226.286 51.2158 225.919 52.4389 225.919 54.1164V68.6894C225.919 69.0389 225.797 69.3534 225.552 69.633C225.308 69.8777 224.993 70 224.609 70H218.371ZM278.836 70.5242C275.342 70.5242 272.633 69.3534 270.711 67.012V68.6894C270.711 69.0389 270.589 69.3534 270.344 69.633C270.099 69.8777 269.785 70 269.401 70H263.477C263.127 70 262.813 69.8777 262.533 69.633C262.289 69.3534 262.166 69.0389 262.166 68.6894V34.0915C262.166 33.7071 262.289 33.3926 262.533 33.148C262.813 32.9033 263.127 32.781 263.477 32.781H269.872C270.257 32.781 270.571 32.9033 270.816 33.148C271.061 33.3926 271.183 33.7071 271.183 34.0915V45.3097C273.14 43.2478 275.691 42.2168 278.836 42.2168C282.226 42.2168 284.9 43.3177 286.857 45.5193C288.814 47.721 289.862 50.709 290.002 54.4833C290.037 54.9377 290.054 55.5667 290.054 56.3705C290.054 57.1393 290.037 57.7509 290.002 58.2052C289.827 62.1193 288.779 65.1598 286.857 67.3265C284.935 69.4583 282.261 70.5242 278.836 70.5242ZM276.006 63.4998C277.648 63.4998 278.819 63.0105 279.518 62.032C280.252 61.0534 280.671 59.708 280.776 57.9955C280.846 57.2966 280.881 56.7549 280.881 56.3705C280.881 55.9861 280.846 55.4444 280.776 54.7454C280.671 53.033 280.252 51.6875 279.518 50.709C278.819 49.7305 277.648 49.2412 276.006 49.2412C274.468 49.2412 273.297 49.713 272.493 50.6566C271.69 51.6002 271.253 52.7884 271.183 54.2212L271.13 56.1608L271.183 58.1528C271.288 59.7254 271.707 61.0185 272.441 62.032C273.21 63.0105 274.398 63.4998 276.006 63.4998ZM293.635 70C293.285 70 292.971 69.8777 292.691 69.633C292.447 69.3534 292.324 69.0389 292.324 68.6894V34.0915C292.324 33.7071 292.447 33.3926 292.691 33.148C292.971 32.9033 293.285 32.781 293.635 32.781H299.821C300.205 32.781 300.52 32.9033 300.764 33.148C301.009 33.3926 301.131 33.7071 301.131 34.0915V68.6894C301.131 69.0739 301.009 69.3884 300.764 69.633C300.52 69.8777 300.205 70 299.821 70H293.635ZM309.496 79.96C309.182 79.96 308.92 79.8551 308.71 79.6454C308.5 79.4358 308.396 79.1737 308.396 78.8591C308.396 78.6145 308.448 78.3873 308.553 78.1777L312.642 68.3225L302.577 44.5233C302.472 44.2438 302.42 44.0341 302.42 43.8943C302.489 43.5798 302.629 43.3177 302.839 43.108C303.049 42.8633 303.311 42.741 303.625 42.741H309.601C310.335 42.741 310.842 43.108 311.121 43.8419L317.097 59.0964L323.231 43.8419C323.58 43.108 324.104 42.741 324.803 42.741H330.674C330.989 42.741 331.251 42.8633 331.461 43.108C331.705 43.3177 331.828 43.5623 331.828 43.8419C331.828 43.9817 331.775 44.2088 331.67 44.5233L316.835 78.8591C316.556 79.593 316.032 79.96 315.263 79.96H309.496ZM329.159 70C328.879 70 328.617 69.8951 328.372 69.6854C328.163 69.4408 328.058 69.1787 328.058 68.8991C328.058 68.6894 328.075 68.5322 328.11 68.4273L340.429 34.773C340.534 34.3537 340.761 34.0042 341.111 33.7246C341.46 33.445 341.915 33.3052 342.474 33.3052H350.232C350.791 33.3052 351.245 33.445 351.595 33.7246C351.944 34.0042 352.172 34.3537 352.276 34.773L364.543 68.4273L364.648 68.8991C364.648 69.1787 364.525 69.4408 364.281 69.6854C364.071 69.8951 363.809 70 363.495 70H357.047C356.208 70 355.649 69.633 355.369 68.8991L353.325 63.5522H339.328L337.336 68.8991C337.057 69.633 336.48 70 335.607 70H329.159ZM351.228 56.0035L346.353 42.1644L341.478 56.0035H351.228ZM367.178 70C366.828 70 366.514 69.8777 366.234 69.633C365.99 69.3534 365.867 69.0389 365.867 68.6894V34.6158C365.867 34.2313 365.99 33.9168 366.234 33.6722C366.514 33.4275 366.828 33.3052 367.178 33.3052H374.202C374.587 33.3052 374.901 33.4275 375.146 33.6722C375.425 33.9168 375.565 34.2313 375.565 34.6158V68.6894C375.565 69.0739 375.425 69.3884 375.146 69.633C374.901 69.8777 374.587 70 374.202 70H367.178Z" fill="#09032F"/>
<g clip-path="url(#clip0_1_16)">
<path d="M7.1544 65.2002L1.16261 79.2847C-0.518539 83.2278 -0.834682 87.7246 3.37538 89.291C4.3812 89.6692 5.40138 89.8447 6.42157 89.8447C9.66891 89.8447 12.7582 88.0082 14.037 84.9968L15.244 82.161L24.4832 60.4603L33.6792 38.8407C35.8739 34.9977 37.2199 29.084 45.8352 25.904C39.1373 25.045 25.6352 23.2774 25.5002 23.2774C25.414 23.4124 24.5119 24.7832 24.4257 24.9182C24.2389 25.2153 24.0521 25.5259 23.9084 25.85C23.8941 25.877 23.8941 25.8905 23.8797 25.904L7.16877 65.1732C7.16877 65.1732 7.1544 65.1867 7.1544 65.2002Z" fill="url(#paint0_radial_1_16)"/>
<path d="M67.0559 65.2001L73.0477 79.2846C74.7288 83.2278 75.045 87.7245 70.8349 89.291C69.8291 89.6691 68.8089 89.8447 67.7887 89.8447C64.5414 89.8447 61.4521 88.0081 60.1733 84.9968L58.9663 82.161L49.7271 60.4603L40.5311 38.8406C38.3364 34.9977 34.6315 27.0539 24.7369 24.486C25.987 21.5557 30.2717 21.0561 33.6197 21.0561H42.7008H42.7726C43.1318 21.0696 43.4767 21.1101 43.8503 21.1641C44.0371 21.1911 44.2382 21.1911 44.425 21.2316C44.6693 21.2856 44.8992 21.3802 45.1435 21.4477C45.4165 21.5287 45.6895 21.5827 45.9481 21.6907C46.0631 21.7448 46.178 21.8123 46.293 21.8663C46.6522 22.0283 46.997 22.1904 47.3275 22.3929C47.5574 22.528 47.7442 22.717 47.9597 22.8791C48.1465 23.0276 48.3621 23.1627 48.5345 23.3247C48.6925 23.4868 48.8362 23.6758 48.9943 23.8514C49.1811 24.0674 49.3822 24.2565 49.5403 24.486C49.6265 24.6211 49.6984 24.7831 49.7846 24.9182C49.9714 25.2152 50.1582 25.5258 50.3019 25.8499C50.3162 25.8769 50.3162 25.8904 50.3306 25.9039L67.0415 65.1731C67.0415 65.1731 67.0559 65.1866 67.0559 65.2001Z" fill="url(#paint1_radial_1_16)"/>
</g>
<defs>
<radialGradient id="paint0_radial_1_16" cx="0" cy="0" r="1" gradientUnits="userSpaceOnUse" gradientTransform="translate(28.4485 30.6526) rotate(112.412) scale(64.8787 44.2865)">
<stop stop-color="#142167"/>
<stop offset="1" stop-color="#263DB5"/>
</radialGradient>
<radialGradient id="paint1_radial_1_16" cx="0" cy="0" r="1" gradientUnits="userSpaceOnUse" gradientTransform="translate(69.4037 36.1683) rotate(132.41) scale(60.2213 210.705)">
<stop stop-color="#4259D4"/>
<stop offset="1" stop-color="#6A81FC"/>
</radialGradient>
<clipPath id="clip0_1_16">
<rect width="75.7193" height="75.7193" fill="white" transform="translate(0 14.5614)"/>
</clipPath>
</defs>
</svg>
