<svg id="Layer_1" data-name="Layer 1" xmlns="http://www.w3.org/2000/svg" width="12.84cm" height="6.11cm" viewBox="0 0 364 173.33"><title>FDM Logo - BLACK</title><path d="M25,94H75.47V71.78H-.3V173.4H25V137.53H68.59v-22H25ZM81.56,71.78V173.4h41c31.83,0,54.85-20.92,54.85-51.11,0-29.74-23-50.51-54.85-50.51Zm25.26,78.9V94.49h15.69c16.44,0,29.14,12.11,29.14,27.8,0,16.14-12.7,28.39-29.14,28.39Zm185.4-78.9H273.39l-36,54.25L201.21,71.78H182.53V173.4h25.25l-.15-51.26,22.72,35.12v.15H244.4v-.15L267,122.44v51h25.25Z" fill="#13100d"/><path d="M305.22,1.13l21.55,29.66a.67.67,0,0,0,.73.24L362.37,19.7a.66.66,0,0,1,.74,1L341.56,50.37a.65.65,0,0,0,0,.77L363.11,80.8a.66.66,0,0,1-.74,1L327.5,70.48a.65.65,0,0,0-.73.24l-21.55,29.66A.66.66,0,0,1,304,100V63.33a.65.65,0,0,0-.45-.62L268.71,51.38a.66.66,0,0,1,0-1.25L303.58,38.8a.65.65,0,0,0,.45-.62V1.51a.66.66,0,0,1,1.19-.38" fill="#13100d"/></svg>