<?xml version="1.0" encoding="UTF-8"?>
<svg width="691px" height="325px" viewBox="0 0 691 325" version="1.1" xmlns="http://www.w3.org/2000/svg" xmlns:xlink="http://www.w3.org/1999/xlink">
    <!-- Generator: Sketch 49.3 (51167) - http://www.bohemiancoding.com/sketch -->
    <title>Group 22</title>
    <desc>Created with Sketch.</desc>
    <defs></defs>
    <g id="Page-1" stroke="none" stroke-width="1" fill="none" fill-rule="evenodd">
        <g id="Group-22" transform="translate(-3.000000, 0.000000)">
            <path d="M90.141456,255.671145 C42.0828187,255.671145 3.12359551,216.711922 3.12359551,168.653285 C3.12359551,120.594647 42.0828187,81.635424 90.141456,81.635424 C138.200093,81.635424 177.159317,120.594647 177.159317,168.653285 C177.159317,216.711922 138.200093,255.671145 90.141456,255.671145 Z M90.5299286,220.708612 C119.064745,220.708612 142.196783,197.576573 142.196783,169.041757 C142.196783,140.506941 119.064745,117.374902 90.5299286,117.374902 C61.9951127,117.374902 38.8630739,140.506941 38.8630739,169.041757 C38.8630739,197.576573 61.9951127,220.708612 90.5299286,220.708612 Z" id="Combined-Shape" fill="#4A4C58"></path>
            <path d="M409.465926,85.4741538 L409.465926,124.399932 C394.129847,133.360692 383.826735,149.998014 383.826735,169.041757 C383.826735,197.576573 406.958774,220.708612 435.49359,220.708612 C464.028406,220.708612 487.160445,197.576573 487.160445,169.041757 C487.160445,147.824994 474.371873,129.595161 456.082637,121.640166 L456.082637,84.1807329 C494.007622,93.5677394 522.122978,127.827165 522.122978,168.653285 C522.122978,216.711922 483.163755,255.671145 435.105117,255.671145 C387.04648,255.671145 348.087257,216.711922 348.087257,168.653285 C348.087257,129.518514 373.921335,96.4176162 409.465926,85.4741538 Z" id="Combined-Shape" fill="#F0793F"></path>
            <rect id="Rectangle" fill="#F0793F" x="417.235378" y="59.1040137" width="31.8547525" height="90.1256413" rx="15.9273763"></rect>
            <path d="M660.419221,251.009474 L660.419221,153.112477 C660.419221,131.652272 643.02671,114.267122 621.571961,114.267122 C600.112495,114.267122 582.724702,131.65878 582.724702,153.112477 L582.724702,251.009474 L550.093005,251.009474 L550.093005,153.495964 C550.093005,113.808484 582.260422,81.635424 621.960434,81.635424 C661.651719,81.635424 693.827863,113.817178 693.827863,153.495964 L693.827863,251.009474 L660.419221,251.009474 Z" id="Combined-Shape" fill="#4A4C58"></path>
            <rect id="Rectangle-27" fill="#4A4C58" x="205.906288" y="0.0561797753" width="34.9625332" height="250.953294"></rect>
            <rect id="Rectangle-27" fill="#4A4C58" x="282.823862" y="0.0561797753" width="34.9625332" height="250.953294"></rect>
            <text id="Your-ideas,-brought" font-family="Avenir-Roman, Avenir" font-size="45" font-weight="normal" fill="#4A4C58">
                <tspan x="85.6225" y="314">Your ideas, brought to life</tspan>
            </text>
        </g>
    </g>
</svg>