<svg width="173" height="173" viewBox="0 0 173 173" fill="none" xmlns="http://www.w3.org/2000/svg">
<rect width="173" height="173" rx="86.5" fill="#DCDCDC"/>
<path fill-rule="evenodd" clip-rule="evenodd" d="M16.8232 137.768C28.2226 116.602 55.1264 104.5 86.4998 104.5C117.873 104.5 144.777 116.602 156.176 137.768C140.427 159.137 115.082 173 86.4998 173C57.9174 173 32.5729 159.137 16.8232 137.768Z" fill="#0FA3B1"/>
<path d="M106.023 52.8011L116.108 46.75L116.512 82.25L106.023 76.0682V52.8011Z" fill="#0A6972"/>
<path d="M76.1704 35.0511L86.2556 29V64.5L76.1704 69.7443V35.0511Z" fill="#0FA3B1"/>
<path d="M56 46.3466L66.0852 40.2954V75.7954L56 81.0398V46.3466Z" fill="#0FA3B1"/>
<path d="M86.2559 29L116.108 46.75L106.023 52.8011L86.2559 41.1023V29Z" fill="#2F4858"/>
<path d="M65.6818 75.7955L96.7443 93.9489L87.0625 100L56 81.0398L65.6818 75.7955Z" fill="#2F4858"/>
<path d="M86.2556 64.5L116.511 82.25L108.04 88.7045L76.1704 69.7443L86.2556 64.5Z" fill="#2F4858"/>
<path d="M65.6816 52.3977L76.1703 46.3466V58.8523L65.6816 64.9034V52.3977Z" fill="#0FA3B1"/>
<path d="M86.2559 41.1023L95.5343 46.3466L86.2137 52.8158L86.2559 41.1023Z" fill="#2F4858"/>
<path d="M86.2137 53.393L95.5342 58.4489L86.2137 64.5L86.2137 53.393Z" fill="#2F4858"/>
<path d="M96.7442 93.9489L85.0454 87.0909L94.7272 80.6364L96.3408 81.8466L96.7442 93.9489Z" fill="#0A6972"/>
<path d="M95.9374 70.1477L86.2556 64.5L95.534 58.4489L95.534 62.0795L95.9374 70.1477Z" fill="#0A6972"/>
<path d="M106.023 76.2122L96.3407 70.5644L106.023 64.5L106.023 68.1307L106.023 76.2122Z" fill="#0A6972"/>
<path d="M66.0428 40.2967L75.3634 46.75L66.085 52.3977L66.0428 40.2967Z" fill="#2F4858"/>
<path d="M75.7671 81.8466L85.0455 74.9886L95.1307 80.6364L85.0455 87.0909L75.7671 81.8466Z" fill="#2F4858"/>
</svg>
