<svg id="Layer_1" data-name="Layer 1" xmlns="http://www.w3.org/2000/svg" viewBox="0 0 2397.71 2338.73"><defs><style>.cls-1{fill:#10374b;}.cls-2{fill:#faa436;}.cls-3{fill:#32bfc6;}</style></defs><polygon class="cls-1" points="1343.55 348.76 1219.08 273.78 671.69 581.05 1181.98 886.55 1724.56 581.05 1602.66 504.86 1181.98 741.4 924.36 584.47 1343.55 348.76"/><polygon class="cls-2" points="1181.98 886.55 1181.98 1519.37 1726.02 1214.9 1724.56 1070.75 1308.35 1304.78 1308.35 961.04 1724.56 727.02 1724.56 581.04 1181.98 886.55"/><polygon class="cls-3" points="671.69 581.04 671.94 1212.34 1181.98 1519.37 1181.98 1372.05 798.31 1140.93 798.31 803.59 1181.98 1034.71 1181.98 886.55 671.69 581.04"/><path class="cls-1" d="M583.73,1888.61a8.65,8.65,0,0,1,6.26,2.82l16.41,17.91a132.33,132.33,0,0,1-46.09,34.31Q533.22,1956,495,1956q-33.47,0-60.65-11.55A132.89,132.89,0,0,1,388,1912q-19.22-20.83-29.78-50T347.61,1798q0-35,11.33-64.11a146.6,146.6,0,0,1,31.83-50.07,142.53,142.53,0,0,1,49.11-32.48q28.61-11.55,63.13-11.55,34.1,0,58.81,10.58a148.57,148.57,0,0,1,43.93,28.7l-13.6,19.21a14.83,14.83,0,0,1-3.45,3.56,9.5,9.5,0,0,1-5.62,1.41,10.87,10.87,0,0,1-5.93-2q-3.14-2.06-7.44-5.08c-2.89-2-6.26-4.17-10.15-6.47a90,90,0,0,0-13.81-6.48,115.2,115.2,0,0,0-18.57-5.07,129.74,129.74,0,0,0-24.38-2q-24.82,0-45.44,8.53a101.78,101.78,0,0,0-35.51,24.28q-14.88,15.75-23.2,38.42T390.34,1798q0,28.92,8.31,51.58t22.67,38.31a95.42,95.42,0,0,0,34,23.85,108.59,108.59,0,0,0,42.3,8.2,171.64,171.64,0,0,0,24.82-1.62,101.49,101.49,0,0,0,20.4-5.07,85.76,85.76,0,0,0,17.48-8.74,137.37,137.37,0,0,0,16.3-12.63C579.06,1889.69,581.42,1888.61,583.73,1888.61Z"/><path class="cls-1" d="M871.22,1888.61a8.64,8.64,0,0,1,6.26,2.82l16.4,17.91a132.2,132.2,0,0,1-46.08,34.31Q820.71,1956,782.51,1956q-33.45,0-60.64-11.55A132.75,132.75,0,0,1,675.46,1912q-19.22-20.83-29.79-50T635.1,1798q0-35,11.33-64.11a146.32,146.32,0,0,1,31.84-50.07,142.39,142.39,0,0,1,49.1-32.48q28.59-11.55,63.13-11.55,34.1,0,58.81,10.58a148.7,148.7,0,0,1,43.93,28.7l-13.6,19.21a14.83,14.83,0,0,1-3.45,3.56,9.5,9.5,0,0,1-5.62,1.41,10.87,10.87,0,0,1-5.93-2q-3.14-2.06-7.45-5.08c-2.88-2-6.25-4.17-10.14-6.47a89.66,89.66,0,0,0-13.82-6.48,114.78,114.78,0,0,0-18.56-5.07,129.74,129.74,0,0,0-24.38-2q-24.82,0-45.45,8.53a101.79,101.79,0,0,0-35.49,24.28q-14.9,15.75-23.2,38.42T677.84,1798q0,28.92,8.31,51.58t22.66,38.31a95.33,95.33,0,0,0,34,23.85,108.63,108.63,0,0,0,42.3,8.2,171.54,171.54,0,0,0,24.82-1.62,101.32,101.32,0,0,0,20.4-5.07,85.76,85.76,0,0,0,17.48-8.74,136.49,136.49,0,0,0,16.29-12.63C866.54,1889.69,868.91,1888.61,871.22,1888.61Z"/><path class="cls-1" d="M1060.94,1919.27q19.21,0,34.32-6.48a72,72,0,0,0,25.57-18.13,79.29,79.29,0,0,0,16-27.84,109.79,109.79,0,0,0,5.51-35.62v-188H1184v188a141.06,141.06,0,0,1-8.52,49.64,115.46,115.46,0,0,1-24.39,39.61,111.2,111.2,0,0,1-38.74,26.22q-22.87,9.49-51.37,9.5t-51.37-9.5a112.4,112.4,0,0,1-38.85-26.22,114.33,114.33,0,0,1-24.49-39.61,140.61,140.61,0,0,1-8.54-49.64v-188h41.66V1831a110.28,110.28,0,0,0,5.5,35.61,79.22,79.22,0,0,0,16,27.84,72.88,72.88,0,0,0,25.68,18.24Q1041.74,1919.27,1060.94,1919.27Z"/><path class="cls-1" d="M1252,1952.5V1643.21h98.64q28.48,0,49.1,5.62t33.88,16a63.1,63.1,0,0,1,19.65,25.37q6.35,15,6.36,33.77a68.37,68.37,0,0,1-3.56,22,64.07,64.07,0,0,1-10.8,19.64,76.28,76.28,0,0,1-18.12,16.19,101.23,101.23,0,0,1-25.58,11.66q33.88,6.69,51.16,24.38t17.26,46.63a86.84,86.84,0,0,1-7.23,35.82,76.8,76.8,0,0,1-21.15,27.85q-13.92,11.64-34.1,18t-46.09,6.36Zm41.87-170.72h55.25q17.7,0,30.66-3.88t21.47-10.8a42.08,42.08,0,0,0,12.62-16.72,55.11,55.11,0,0,0,4.11-21.48q0-27.2-16.41-39.93t-50.93-12.73h-56.77Zm0,29.78v107.71h66.91q17.91,0,30.76-4.11t21.15-11.54a44.89,44.89,0,0,0,12.2-17.7,63.37,63.37,0,0,0,3.88-22.56q0-24-16.94-37.87t-51.26-13.93Z"/><path class="cls-1" d="M1721.82,1643.21v34.11h-148.5v102.73h120.22v32.81H1573.32V1918.4h148.5v34.1H1531.23V1643.21Z"/><path class="cls-1" d="M2050.1,1798q0,34.76-11,63.24A140.24,140.24,0,0,1,2008,1910a138.55,138.55,0,0,1-48.13,31.41q-28.07,11.11-62.16,11.11H1782V1643.21h115.68q34.1,0,62.16,11.12a137.8,137.8,0,0,1,48.13,31.51,141.5,141.5,0,0,1,31.08,48.89Q2050.1,1763.22,2050.1,1798Zm-42.95,0q0-28.5-7.77-50.94t-22-38a93.83,93.83,0,0,0-34.53-23.73q-20.3-8.2-45.11-8.21h-73.6v241.52h73.6q24.83,0,45.11-8.2a94.58,94.58,0,0,0,34.53-23.64q14.25-15.42,22-37.87T2007.15,1798Z"/></svg>