<svg width="1141" height="992" viewBox="0 0 1141 992" fill="none" xmlns="http://www.w3.org/2000/svg">
<path opacity="0.44" d="M225.439 90.2712H649.579C613.042 74.9458 585.541 74.6084 566.569 77.6172C555.327 79.4028 545.617 82.5945 532.576 79.1357C510.892 73.3711 502.278 55.1493 490.671 41.7642C457.872 3.71784 391.627 -7.17867 348.316 4.39272C316.079 12.9974 311.161 30.1506 269.073 37.2088C247.502 40.8363 233.59 38.8819 217.078 38.2211C150.622 35.6059 138.832 64.3868 92.402 57.9051C64.437 54.0245 62.8069 45.0683 40.1539 45.4058C37.0009 45.4505 33.8529 45.6711 30.7245 46.0666C5.73876 49.1879 7.80451 86.1235 32.9168 86.5734L225.439 90.2712Z" fill="#E2D3E8"/>
<path opacity="0.44" d="M1071.66 573.991C1022.25 529.435 964.258 514.096 941.535 517.442C885.127 525.766 813.655 584.016 824.335 574.034C827.412 571.222 790.889 551.102 776.724 554.223C767.182 556.332 747.017 560.002 736.351 564.712C732.205 566.54 712.897 580.768 689.288 586.406C665.68 592.045 637.462 589.218 622.819 591.665C585.551 597.992 666.382 598.428 666.382 599.299C666.382 602.393 711.196 603.517 742.576 604.797C857.57 609.451 850.684 605.387 897.662 601.69C953.676 597.275 962.305 598.203 1027.71 595.363C1040.55 594.8 1060.36 595.827 1099.98 597.725C1124.49 598.892 1140.18 600.017 1140.38 598.526C1140.65 596.53 1112.68 591.088 1094.91 587.63C1073.49 583.412 1084.04 574.371 1048.8 564.487C1032.75 559.988 1027.28 565.106 1016.74 567.299C1011.69 568.325 1007.46 565.485 1004.43 565.401" fill="#E2D3E8"/>
<path opacity="0.25" d="M0 535.503L3.48515 534.983C5.11328 534.746 6.76073 534.671 8.40363 534.758C11.5286 535.035 14.6734 534.997 17.7909 534.645C18.9291 534.376 20.1102 534.343 21.2619 534.547C22.7906 534.797 24.3363 534.929 25.8853 534.941H64.685L70.3062 533L83.3191 533.254L90.3455 527.32L70.8682 527.123L60.2584 526.744L75.6321 504.754L79.4264 505.499C79.5159 505.517 79.609 505.505 79.6907 505.464C79.7724 505.423 79.838 505.356 79.8769 505.273C79.9158 505.191 79.9257 505.097 79.9052 505.008C79.8847 504.919 79.8348 504.839 79.7637 504.782L75.4635 501.169H79.7777C79.8793 501.174 79.9795 501.144 80.0621 501.085C80.1448 501.025 80.2049 500.94 80.2326 500.842C80.2603 500.744 80.254 500.64 80.2148 500.546C80.1756 500.452 80.1057 500.374 80.0166 500.325C76.234 498.01 71.7352 497.16 67.3691 497.935L57.4338 499.734C55.3258 500.114 53.4709 499.495 51.9532 501.028C49.1889 502.48 46.6122 504.265 44.2804 506.343C42.2358 508.026 40.3323 509.874 38.589 511.868C36.8183 514.68 31.7453 520.81 27.3468 521.71C24.0657 522.302 20.8508 523.216 17.7487 524.438C16.7509 524.044 14.8257 522.441 8.97976 525.506C6.85164 526.546 5.08078 528.195 3.89265 530.245" fill="#B5A8B3"/>
<path opacity="0.25" d="M17.9456 524.466C21.0499 523.254 24.2643 522.345 27.5437 521.752C31.886 520.881 36.959 514.807 38.7859 511.91C40.5143 509.926 42.3936 508.079 44.407 506.385C46.0685 504.917 47.8501 503.59 49.733 502.42L48.5947 501.492L51.6161 500.086C51.6872 500.061 51.7488 500.014 51.7923 499.952C51.8358 499.891 51.8592 499.817 51.8592 499.741C51.8592 499.666 51.8358 499.592 51.7923 499.531C51.7488 499.469 51.6872 499.422 51.6161 499.397L48.932 498.525L50.3373 497.696L53.1478 496.402C53.2065 496.362 53.2532 496.307 53.2832 496.243C53.3131 496.179 53.3251 496.107 53.3179 496.037C53.3107 495.966 53.2846 495.899 53.2423 495.842C53.2 495.785 53.1431 495.741 53.0776 495.713L50.1827 495.01C48.6056 494.938 47.0343 495.247 45.6015 495.91L31.9984 502.167C30.3212 502.879 28.9859 504.215 28.2743 505.893C25.7729 511.77 18.6622 521.865 17.0321 524.171L17.9456 524.466Z" fill="#B5949D"/>
<path opacity="0.34" d="M240.761 735.842C246.111 733.764 251.651 732.215 257.301 731.216C264.792 729.712 273.532 719.237 276.582 714.344C277.622 712.671 282.343 708.411 286.419 704.811C289.279 702.283 292.349 700.001 295.595 697.992L293.628 696.375L298.827 693.999C298.945 693.95 299.046 693.867 299.117 693.761C299.189 693.655 299.226 693.53 299.226 693.402C299.226 693.274 299.189 693.149 299.117 693.042C299.046 692.936 298.945 692.853 298.827 692.804L294.26 691.187L296.621 689.781L301.455 687.56C301.603 687.507 301.729 687.406 301.812 687.272C301.894 687.138 301.928 686.98 301.909 686.824C301.889 686.668 301.816 686.523 301.703 686.414C301.59 686.305 301.443 686.238 301.287 686.224L296.312 685.015C293.597 684.902 290.895 685.437 288.428 686.576L265.115 697.472C262.232 698.709 259.936 701.01 258.707 703.897C254.407 714.007 242.153 731.413 239.398 735.293C239.96 735.434 240.396 735.701 240.761 735.842Z" fill="#6A2600"/>
<path opacity="0.24" d="M216.661 745.796C218.713 742.235 221.788 739.375 225.486 737.585C235.576 732.299 238.892 735.083 240.593 735.729C245.94 733.633 251.48 732.065 257.133 731.047C264.623 729.543 273.35 719.082 276.413 714.175C277.453 712.502 282.175 708.242 286.25 704.643C290.277 701.075 294.717 698.002 299.474 695.49C302.074 692.846 305.278 693.915 308.917 693.254L326.033 690.161C333.583 688.797 341.371 690.259 347.914 694.266C348.032 694.366 348.118 694.498 348.163 694.647C348.208 694.795 348.209 694.953 348.166 695.102C348.123 695.251 348.037 695.384 347.92 695.485C347.803 695.586 347.659 695.651 347.506 695.672H340.002L347.422 701.887C347.544 701.99 347.628 702.13 347.661 702.286C347.694 702.442 347.675 702.604 347.606 702.748C347.536 702.891 347.421 703.007 347.278 703.078C347.136 703.149 346.973 703.17 346.817 703.138L340.311 701.845L313.822 739.807L332.09 740.454L365.648 740.791L353.45 751.013L330.966 750.591L321.41 753.923H254.547C251.878 753.902 249.214 753.676 246.579 753.248C244.593 752.893 242.556 752.951 240.593 753.417C237.782 754.19 229.505 753.881 224.432 753.6C221.616 753.452 218.791 753.584 216.001 753.993L213.513 754.373L210 754.893L212.6 751.266" fill="#6A2600"/>
<path opacity="0.44" d="M439.123 950.072C389.728 905.516 364.939 916.216 342.159 919.576C285.751 927.885 248.385 968.786 259.037 958.761C262.101 955.949 221.221 953.376 207.042 956.512C197.5 958.621 194.943 962.009 184.263 966.719C175.971 970.389 171.081 971.19 141.851 976.153C104.583 982.48 100.986 983.183 101 984.013C101 987.12 145.814 988.231 177.194 989.51C292.188 994.164 285.302 990.101 332.294 986.403C388.308 982.002 396.937 982.93 462.324 980.09C475.182 979.528 494.983 980.554 534.597 982.438C559.119 983.605 574.816 984.744 574.999 983.254C575.266 981.243 547.315 975.816 529.538 972.357C508.108 968.139 518.675 959.099 483.417 949.2C467.369 944.701 461.902 949.833 451.377 952.012C446.304 953.053 442.074 950.213 439.053 950.114" fill="#E2D3E8"/>
</svg>
