<svg width="1304" height="437" viewBox="0 0 1304 437" fill="none" xmlns="http://www.w3.org/2000/svg">
<path opacity="0.44" d="M1162.5 237H880C904.336 223.418 922.653 223.119 935.289 225.786C942.777 227.368 949.245 230.197 957.931 227.132C972.374 222.023 978.111 205.874 985.843 194.012C1007.69 160.295 1051.81 150.638 1080.66 160.893C1102.13 168.519 1105.41 183.72 1133.44 189.975C1147.81 193.19 1157.07 191.458 1168.07 190.872C1212.34 188.555 1220.19 214.061 1251.11 208.317C1269.74 204.878 1270.83 196.94 1285.91 197.239C1288.01 197.279 1290.11 197.475 1292.19 197.825C1308.84 200.591 1307.46 233.324 1290.73 233.723L1162.5 237Z" fill="#E2D3E8"/>
<path opacity="0.44" d="M599.763 284.157C555.825 244.487 533.775 254.013 513.513 257.005C463.338 264.403 430.1 300.819 439.575 291.894C442.3 289.39 405.938 287.099 393.325 289.891C384.838 291.769 382.563 294.785 373.063 298.979C365.688 302.246 361.338 302.96 335.338 307.379C302.188 313.012 298.988 313.638 299 314.377C299 317.143 338.863 318.132 366.775 319.271C469.063 323.415 462.938 319.797 504.738 316.505C554.563 312.587 562.238 313.413 620.4 310.884C631.838 310.383 649.45 311.297 684.688 312.975C706.5 314.014 720.463 315.028 720.625 313.701C720.863 311.911 696 307.078 680.188 303.999C661.125 300.243 670.525 292.194 639.163 283.381C624.888 279.375 620.025 283.945 610.663 285.885C606.15 286.811 602.388 284.283 599.7 284.195" fill="#E2D3E8"/>
<path opacity="0.44" d="M407.984 50.7424C364.034 11.0718 312.446 -2.58569 292.234 0.393674C242.059 7.80452 178.484 59.668 187.984 50.7799C190.721 48.2763 158.234 30.3625 145.634 33.1416C137.146 35.0194 119.209 38.2867 109.721 42.4803C106.034 44.1077 88.8589 56.7762 67.8589 61.7961C46.8589 66.8159 21.7588 64.2997 8.73381 66.4779C-24.4162 72.1112 47.4838 72.4992 47.4838 73.2754C47.4838 76.0294 87.3464 77.0309 115.259 78.17C217.546 82.3136 211.421 78.6958 253.209 75.4035C303.034 71.4727 310.709 72.299 368.884 69.7703C380.309 69.2695 397.934 70.1833 433.171 71.8733C454.971 72.9123 468.934 73.9138 469.109 72.5869C469.346 70.8093 444.471 65.9647 428.659 62.8852C409.609 59.1297 418.996 51.0804 387.646 42.28C373.371 38.2741 368.509 42.8308 359.134 44.7837C354.634 45.6975 350.871 43.1688 348.184 43.0937" fill="#E2D3E8"/>
<path opacity="0.34" d="M519.542 422.655C523.289 421.198 527.168 420.112 531.125 419.412C536.371 418.358 542.492 411.015 544.627 407.586C545.356 406.413 548.662 403.427 551.516 400.904C553.519 399.131 555.669 397.532 557.942 396.124L556.565 394.99L560.206 393.325C560.288 393.29 560.359 393.232 560.409 393.158C560.459 393.083 560.485 392.995 560.485 392.906C560.485 392.816 560.459 392.728 560.409 392.654C560.359 392.579 560.288 392.521 560.206 392.487L557.007 391.354L558.661 390.368L562.046 388.811C562.15 388.774 562.238 388.703 562.296 388.609C562.353 388.515 562.377 388.404 562.364 388.295C562.35 388.186 562.299 388.084 562.22 388.008C562.141 387.931 562.038 387.884 561.928 387.875L558.444 387.027C556.543 386.948 554.651 387.323 552.923 388.121L536.597 395.759C534.578 396.626 532.971 398.239 532.109 400.263C529.098 407.349 520.517 419.55 518.588 422.27C518.981 422.369 519.286 422.556 519.542 422.655Z" fill="#6A2600" fill-opacity="0.8"/>
<path opacity="0.24" d="M502.665 429.632C504.102 427.136 506.255 425.131 508.845 423.877C515.911 420.171 518.233 422.122 519.424 422.576C523.169 421.106 527.049 420.007 531.007 419.294C536.252 418.239 542.364 410.907 544.509 407.467C545.237 406.294 548.544 403.308 551.398 400.785C554.218 398.284 557.327 396.13 560.658 394.369V394.369C562.479 392.516 564.723 393.265 567.272 392.802L579.258 390.634C584.545 389.678 589.999 390.702 594.581 393.512V393.512C594.663 393.582 594.724 393.674 594.756 393.778C594.787 393.882 594.788 393.993 594.757 394.097C594.727 394.202 594.667 394.295 594.585 394.366C594.503 394.437 594.403 394.482 594.295 394.497H589.04L594.236 398.853C594.322 398.925 594.381 399.024 594.404 399.133C594.427 399.242 594.414 399.356 594.365 399.457C594.316 399.557 594.236 399.639 594.136 399.688C594.036 399.738 593.922 399.753 593.813 399.731L589.257 398.824L570.706 425.434L583.5 425.887L607 426.124L598.458 433.289L582.712 432.993L576.02 435.329H529.196C527.327 435.314 525.462 435.156 523.617 434.856C522.226 434.607 520.799 434.647 519.424 434.974C517.456 435.516 511.66 435.299 508.107 435.102C506.134 434.999 504.157 435.091 502.202 435.378L500.46 435.644L498 436.009L499.821 433.466" fill="#6A2600" fill-opacity="0.8"/>
<path opacity="0.25" d="M113 253.831L116.1 253.368C117.548 253.157 119.014 253.09 120.475 253.167C123.255 253.414 126.052 253.38 128.825 253.067C129.838 252.828 130.888 252.798 131.913 252.98C133.272 253.202 134.647 253.32 136.025 253.33H170.538L175.538 251.603L187.113 251.828L193.363 246.545L176.038 246.37L166.6 246.032L180.275 226.453L183.65 227.117C183.73 227.133 183.813 227.122 183.885 227.085C183.958 227.049 184.016 226.989 184.051 226.916C184.085 226.842 184.094 226.759 184.076 226.679C184.058 226.6 184.013 226.529 183.95 226.478L180.125 223.261H183.963C184.053 223.265 184.142 223.239 184.216 223.186C184.289 223.133 184.343 223.057 184.367 222.97C184.392 222.883 184.386 222.79 184.351 222.706C184.317 222.623 184.254 222.553 184.175 222.51V222.51C180.81 220.448 176.809 219.691 172.925 220.382L164.088 221.984C162.213 222.322 160.563 221.771 159.213 223.136C156.754 224.429 154.462 226.018 152.388 227.868C150.569 229.367 148.876 231.012 147.325 232.787C145.75 235.291 141.238 240.749 137.325 241.55C134.407 242.077 131.547 242.891 128.788 243.979C127.9 243.628 126.188 242.201 120.988 244.93C119.095 245.856 117.519 247.324 116.463 249.149" fill="#B5A8B3"/>
<path opacity="0.25" d="M128.963 244.004C131.724 242.924 134.583 242.115 137.5 241.588C141.363 240.811 145.875 235.404 147.5 232.825C149.038 231.058 150.709 229.413 152.5 227.905C153.978 226.598 155.563 225.417 157.238 224.375L156.225 223.549L158.913 222.297C158.976 222.274 159.031 222.233 159.069 222.178C159.108 222.123 159.129 222.057 159.129 221.99C159.129 221.923 159.108 221.857 159.069 221.802C159.031 221.748 158.976 221.706 158.913 221.683L156.525 220.907L157.775 220.169L160.275 219.017C160.327 218.981 160.369 218.932 160.396 218.875C160.422 218.818 160.433 218.755 160.427 218.692C160.42 218.629 160.397 218.569 160.359 218.518C160.322 218.467 160.271 218.428 160.213 218.404L157.638 217.778C156.235 217.713 154.837 217.988 153.563 218.579L141.463 224.15C139.971 224.783 138.783 225.973 138.15 227.467C135.925 232.7 129.6 241.688 128.15 243.741L128.963 244.004Z" fill="#B5949D"/>
<path opacity="0.44" d="M1190.98 216.742C1147.03 177.072 1095.45 163.414 1075.23 166.394C1025.06 173.805 961.484 225.668 970.984 216.78C973.721 214.276 941.234 196.363 928.634 199.142C920.146 201.019 902.209 204.287 892.721 208.48C889.034 210.108 871.859 222.776 850.859 227.796C829.859 232.816 804.759 230.3 791.734 232.478C758.584 238.111 830.484 238.499 830.484 239.275C830.484 242.029 870.346 243.031 898.259 244.17C1000.55 248.314 994.421 244.696 1036.21 241.404C1086.03 237.473 1093.71 238.299 1151.88 235.77C1163.31 235.27 1180.93 236.183 1216.17 237.873C1237.97 238.912 1251.93 239.914 1252.11 238.587C1252.35 236.809 1227.47 231.965 1211.66 228.885C1192.61 225.13 1202 217.08 1170.65 208.28C1156.37 204.274 1151.51 208.831 1142.13 210.784C1137.63 211.698 1133.87 209.169 1131.18 209.094" fill="#E2D3E8"/>
</svg>
