<?xml version="1.0" encoding="utf-8"?>
<!-- Generator: Adobe Illustrator 24.0.0, SVG Export Plug-In . SVG Version: 6.00 Build 0)  -->
<svg version="1.1" id="Layer_1" xmlns="http://www.w3.org/2000/svg" xmlns:xlink="http://www.w3.org/1999/xlink" x="0px" y="0px"
	 viewBox="0 0 163 93" style="enable-background:new 0 0 163 93;" xml:space="preserve">
<style type="text/css">
	.st0{fill:#0A6972;}
	.st1{fill:#0FA3B1;}
	.st2{fill:#2F4858;}
	.st3{fill:#FFFFFF;}
</style>
<path class="st0" d="M98.3,20.1l8.5-5.1l0.3,30l-8.9-5.2V20.1z"/>
<path class="st1" d="M73,5.1L81.6,0v30L73,34.4V5.1z"/>
<path class="st1" d="M56,14.7l8.5-5.1v30L56,44V14.7z"/>
<path class="st2" d="M81.6,0l25.2,15l-8.5,5.1l-16.7-9.9V0z"/>
<path class="st2" d="M64.2,39.5l26.3,15.3L82.3,60L56,44L64.2,39.5z"/>
<path class="st2" d="M81.6,30l25.6,15l-7.2,5.5L73,34.4L81.6,30z"/>
<path class="st1" d="M64.2,19.8l8.9-5.1v10.6l-8.9,5.1V19.8z"/>
<path class="st2" d="M81.6,10.2l7.8,4.4l-7.9,5.5L81.6,10.2z"/>
<path class="st2" d="M81.5,20.6l7.9,4.3L81.5,30V20.6z"/>
<path class="st0" d="M90.4,54.9l-9.9-5.8l8.2-5.5l1.4,1L90.4,54.9z"/>
<path class="st0" d="M89.8,34.8L81.6,30l7.8-5.1V28L89.8,34.8z"/>
<path class="st0" d="M98.3,39.9l-8.2-4.8l8.2-5.1v3.1V39.9z"/>
<path class="st2" d="M64.5,9.5l7.9,5.5l-7.8,4.8L64.5,9.5z"/>
<path class="st2" d="M72.7,44.7l7.8-5.8l8.5,4.8l-8.5,5.5L72.7,44.7z"/>
<path class="st3" d="M22.1,79.3l-9.8-4.1v-1.9l9.8-4.1v1.9l-7.5,3.2l7.5,3.2V79.3z M24.8,80V65.9h2.6v5.9h7.3v-5.9h2.6V80h-2.6v-6.1
	h-7.3V80H24.8z M43.2,80.2c-0.7,0-1.3-0.1-1.9-0.4c-0.5-0.3-1-0.7-1.3-1.1c-0.3-0.5-0.5-1-0.5-1.6c0-0.7,0.2-1.3,0.6-1.7
	c0.4-0.4,1-0.7,1.8-0.9c0.8-0.2,2-0.3,3.4-0.3H46v-0.4c0-0.7-0.1-1.1-0.4-1.4c-0.3-0.3-0.8-0.4-1.5-0.4c-0.5,0-1.1,0.1-1.7,0.3
	c-0.6,0.2-1.2,0.4-1.7,0.8L40,71.2c0.3-0.2,0.8-0.4,1.2-0.6c0.5-0.2,1-0.3,1.5-0.4c0.5-0.1,1-0.2,1.5-0.2c1.4,0,2.5,0.3,3.2,1
	c0.7,0.7,1,1.7,1,3.1V80h-2.3v-1.6c-0.2,0.5-0.6,1-1.1,1.3C44.5,80,43.9,80.2,43.2,80.2z M43.7,78.5c0.7,0,1.2-0.2,1.6-0.7
	c0.4-0.5,0.7-1,0.7-1.7v-0.4h-0.7c-1.3,0-2.1,0.1-2.6,0.3c-0.5,0.2-0.7,0.5-0.7,1c0,0.4,0.2,0.8,0.5,1.1
	C42.8,78.3,43.2,78.5,43.7,78.5z M53.5,80l-3.9-9.8h2.6l2.5,6.9l2.5-6.9H59l2.5,6.9l2.5-6.9h2.4L62.6,80h-2.2l-2.4-6.3L55.7,80H53.5
	z M67.9,80V65.9h2.5v8.5h0l3.9-4.2h3L73,74.9l4.7,5.1h-3.1l-4.2-4.4h0V80H67.9z M78.9,80V65.9h2.6v5.9h7.3v-5.9h2.6V80h-2.6v-6.1
	h-7.3V80H78.9z M97.3,80.2c-0.7,0-1.3-0.1-1.9-0.4c-0.5-0.3-1-0.7-1.3-1.1c-0.3-0.5-0.5-1-0.5-1.6c0-0.7,0.2-1.3,0.6-1.7
	c0.4-0.4,1-0.7,1.8-0.9c0.8-0.2,2-0.3,3.4-0.3h0.7v-0.4c0-0.7-0.1-1.1-0.4-1.4c-0.3-0.3-0.8-0.4-1.5-0.4c-0.5,0-1.1,0.1-1.7,0.3
	c-0.6,0.2-1.2,0.4-1.7,0.8L94,71.2c0.3-0.2,0.8-0.4,1.2-0.6c0.5-0.2,1-0.3,1.5-0.4c0.5-0.1,1-0.2,1.5-0.2c1.4,0,2.5,0.3,3.2,1
	c0.7,0.7,1,1.7,1,3.1V80h-2.3v-1.6c-0.2,0.5-0.6,1-1.1,1.3C98.6,80,98,80.2,97.3,80.2z M97.8,78.5c0.7,0,1.2-0.2,1.6-0.7
	c0.4-0.5,0.7-1,0.7-1.7v-0.4h-0.7c-1.3,0-2.1,0.1-2.6,0.3c-0.5,0.2-0.7,0.5-0.7,1c0,0.4,0.2,0.8,0.5,1.1
	C96.9,78.3,97.3,78.5,97.8,78.5z M109.5,80.2c-1,0-1.9-0.2-2.7-0.6c-0.8-0.4-1.3-1-1.8-1.8c-0.4-0.8-0.6-1.7-0.6-2.7
	s0.2-1.9,0.6-2.7c0.4-0.8,1-1.3,1.8-1.7c0.8-0.4,1.7-0.6,2.7-0.6c0.6,0,1.2,0.1,1.9,0.3c0.6,0.2,1.1,0.5,1.5,0.8l-0.7,1.7
	c-0.3-0.3-0.7-0.5-1.2-0.7c-0.4-0.2-0.8-0.2-1.2-0.2c-0.9,0-1.5,0.3-2,0.8c-0.5,0.5-0.7,1.3-0.7,2.3c0,1,0.2,1.8,0.7,2.3
	c0.5,0.6,1.2,0.8,2,0.8c0.4,0,0.8-0.1,1.2-0.2c0.4-0.2,0.8-0.4,1.2-0.7l0.7,1.8c-0.4,0.3-0.9,0.6-1.5,0.8
	C110.8,80.1,110.2,80.2,109.5,80.2z M114.5,80V65.9h2.5v8.5h0l3.9-4.2h3l-4.4,4.7l4.7,5.1h-3.1l-4.2-4.4h0V80H114.5z M128.6,80.2
	c-0.8,0-1.6-0.1-2.3-0.3c-0.7-0.2-1.3-0.5-1.8-0.9l0.6-1.6c0.5,0.3,1,0.6,1.7,0.8c0.6,0.2,1.2,0.3,1.8,0.3c0.6,0,1.1-0.1,1.4-0.3
	c0.3-0.2,0.5-0.5,0.5-0.9c0-0.6-0.4-0.9-1.2-1.1l-2-0.4c-1.7-0.3-2.5-1.2-2.5-2.6c0-0.6,0.2-1.2,0.5-1.7c0.4-0.5,0.9-0.8,1.5-1.1
	c0.6-0.3,1.3-0.4,2.2-0.4c0.7,0,1.4,0.1,2,0.3c0.6,0.2,1.2,0.5,1.6,0.9l-0.7,1.6c-0.4-0.3-0.9-0.6-1.4-0.8c-0.5-0.2-1-0.3-1.5-0.3
	c-0.7,0-1.1,0.1-1.5,0.3c-0.3,0.2-0.5,0.5-0.5,0.9c0,0.6,0.4,0.9,1.1,1.1l2,0.4c0.9,0.2,1.5,0.5,2,0.9c0.5,0.4,0.7,1,0.7,1.7
	c0,1-0.4,1.7-1.1,2.3C130.9,79.9,129.9,80.2,128.6,80.2z M135,81.4l-1.9-0.6l5.2-16.1l1.9,0.6L135,81.4z M140.9,79.3v-1.9l7.5-3.2
	l-7.5-3.2v-1.9l9.8,4.1v1.9L140.9,79.3z"/>
</svg>
