<svg width="163" height="93" viewBox="0 0 163 93" fill="none" xmlns="http://www.w3.org/2000/svg">
<path d="M98.2727 20.1136L106.795 15L107.136 45L98.2727 39.776V20.1136Z" fill="#0A6972"/>
<path d="M73.0454 5.11364L81.5682 0V30L73.0454 34.4318V5.11364Z" fill="#0FA3B1"/>
<path d="M56 14.6591L64.5227 9.54544V39.5454L56 43.9773V14.6591Z" fill="#0FA3B1"/>
<path d="M81.5682 0L106.795 15L98.2728 20.1136L81.5682 10.2273V0Z" fill="#2F4858"/>
<path d="M64.1818 39.5455L90.4318 54.8864L82.25 60L56 43.9773L64.1818 39.5455Z" fill="#2F4858"/>
<path d="M81.5682 30L107.136 45L99.9773 50.4545L73.0454 34.4318L81.5682 30Z" fill="#2F4858"/>
<path d="M64.1818 19.7727L73.0454 14.6591V25.2273L64.1818 30.3409V19.7727Z" fill="#0FA3B1"/>
<path d="M81.5682 10.2273L89.4091 14.6591L81.5326 20.126L81.5682 10.2273Z" fill="#2F4858"/>
<path d="M81.5325 20.6138L89.4091 24.8864L81.5325 30L81.5325 20.6138Z" fill="#2F4858"/>
<path d="M90.4318 54.8864L80.5454 49.0909L88.7272 43.6364L90.0909 44.6591L90.4318 54.8864Z" fill="#0A6972"/>
<path d="M89.75 34.7727L81.5682 30L89.4091 24.8864L89.4091 27.9545L89.75 34.7727Z" fill="#0A6972"/>
<path d="M98.2727 39.8976L90.0909 35.1249L98.2727 30L98.2727 33.0682L98.2727 39.8976Z" fill="#0A6972"/>
<path d="M64.4871 9.54653L72.3636 15L64.5227 19.7727L64.4871 9.54653Z" fill="#2F4858"/>
<path d="M72.7046 44.6591L80.5455 38.8636L89.0682 43.6364L80.5455 49.0909L72.7046 44.6591Z" fill="#2F4858"/>
<path d="M22.1261 79.34L12.3661 75.2V73.3L22.1261 69.16V71.1L14.6061 74.26L22.1261 77.42V79.34ZM24.7783 80V65.9H27.3383V71.78H34.5983V65.9H37.1583V80H34.5983V73.92H27.3383V80H24.7783ZM43.227 80.2C42.5204 80.2 41.887 80.0667 41.327 79.8C40.7804 79.52 40.347 79.1467 40.027 78.68C39.7204 78.2133 39.567 77.6867 39.567 77.1C39.567 76.38 39.7537 75.8133 40.127 75.4C40.5004 74.9733 41.107 74.6667 41.947 74.48C42.787 74.2933 43.9137 74.2 45.327 74.2H46.027V73.78C46.027 73.1133 45.8804 72.6333 45.587 72.34C45.2937 72.0467 44.8004 71.9 44.107 71.9C43.5604 71.9 43.0004 71.9867 42.427 72.16C41.8537 72.32 41.2737 72.5733 40.687 72.92L39.967 71.22C40.3137 70.98 40.7204 70.7733 41.187 70.6C41.667 70.4133 42.167 70.2733 42.687 70.18C43.2204 70.0733 43.7204 70.02 44.187 70.02C45.6137 70.02 46.6737 70.3533 47.367 71.02C48.0604 71.6733 48.407 72.6933 48.407 74.08V80H46.067V78.44C45.8404 78.9867 45.4804 79.42 44.987 79.74C44.4937 80.0467 43.907 80.2 43.227 80.2ZM43.747 78.48C44.4004 78.48 44.9404 78.2533 45.367 77.8C45.807 77.3467 46.027 76.7733 46.027 76.08V75.64H45.347C44.0937 75.64 43.2204 75.74 42.727 75.94C42.247 76.1267 42.007 76.4733 42.007 76.98C42.007 77.42 42.1604 77.78 42.467 78.06C42.7737 78.34 43.2004 78.48 43.747 78.48ZM53.5469 80L49.6869 70.22H52.2469L54.7469 77.1L57.2669 70.22H59.0269L61.5469 77.14L64.0469 70.22H66.4669L62.6269 80H60.4469L58.0669 73.7L55.7269 80H53.5469ZM67.8977 80V65.9H70.3977V74.38H70.4377L74.3777 70.22H77.3977L72.9577 74.9L77.6777 80H74.6177L70.4377 75.64H70.3977V80H67.8977ZM78.8603 80V65.9H81.4203V71.78H88.6803V65.9H91.2403V80H88.6803V73.92H81.4203V80H78.8603ZM97.3091 80.2C96.6024 80.2 95.9691 80.0667 95.4091 79.8C94.8624 79.52 94.4291 79.1467 94.1091 78.68C93.8024 78.2133 93.6491 77.6867 93.6491 77.1C93.6491 76.38 93.8357 75.8133 94.2091 75.4C94.5824 74.9733 95.1891 74.6667 96.0291 74.48C96.8691 74.2933 97.9957 74.2 99.4091 74.2H100.109V73.78C100.109 73.1133 99.9624 72.6333 99.6691 72.34C99.3757 72.0467 98.8824 71.9 98.1891 71.9C97.6424 71.9 97.0824 71.9867 96.5091 72.16C95.9357 72.32 95.3557 72.5733 94.7691 72.92L94.0491 71.22C94.3957 70.98 94.8024 70.7733 95.2691 70.6C95.7491 70.4133 96.2491 70.2733 96.7691 70.18C97.3024 70.0733 97.8024 70.02 98.2691 70.02C99.6957 70.02 100.756 70.3533 101.449 71.02C102.142 71.6733 102.489 72.6933 102.489 74.08V80H100.149V78.44C99.9224 78.9867 99.5624 79.42 99.0691 79.74C98.5757 80.0467 97.9891 80.2 97.3091 80.2ZM97.8291 78.48C98.4824 78.48 99.0224 78.2533 99.4491 77.8C99.8891 77.3467 100.109 76.7733 100.109 76.08V75.64H99.4291C98.1757 75.64 97.3024 75.74 96.8091 75.94C96.3291 76.1267 96.0891 76.4733 96.0891 76.98C96.0891 77.42 96.2424 77.78 96.5491 78.06C96.8557 78.34 97.2824 78.48 97.8291 78.48ZM109.547 80.2C108.52 80.2 107.627 79.9933 106.867 79.58C106.107 79.1533 105.52 78.5533 105.107 77.78C104.693 77.0067 104.487 76.1 104.487 75.06C104.487 74.02 104.693 73.1267 105.107 72.38C105.52 71.62 106.107 71.04 106.867 70.64C107.627 70.2267 108.52 70.02 109.547 70.02C110.173 70.02 110.793 70.12 111.407 70.32C112.02 70.52 112.527 70.8 112.927 71.16L112.187 72.9C111.84 72.5933 111.447 72.36 111.007 72.2C110.58 72.04 110.167 71.96 109.767 71.96C108.9 71.96 108.227 72.2333 107.747 72.78C107.28 73.3133 107.047 74.08 107.047 75.08C107.047 76.0667 107.28 76.8467 107.747 77.42C108.227 77.98 108.9 78.26 109.767 78.26C110.153 78.26 110.567 78.18 111.007 78.02C111.447 77.86 111.84 77.62 112.187 77.3L112.927 79.06C112.527 79.4067 112.013 79.6867 111.387 79.9C110.773 80.1 110.16 80.2 109.547 80.2ZM114.46 80V65.9H116.96V74.38H117L120.94 70.22H123.96L119.52 74.9L124.24 80H121.18L117 75.64H116.96V80H114.46ZM128.607 80.2C127.78 80.2 127.007 80.1 126.287 79.9C125.567 79.7 124.967 79.4133 124.487 79.04L125.127 77.4C125.62 77.7333 126.173 77.9933 126.787 78.18C127.4 78.3533 128.013 78.44 128.627 78.44C129.267 78.44 129.74 78.3333 130.047 78.12C130.367 77.8933 130.527 77.6 130.527 77.24C130.527 76.68 130.113 76.32 129.287 76.16L127.287 75.78C125.593 75.46 124.747 74.58 124.747 73.14C124.747 72.5 124.92 71.9467 125.267 71.48C125.627 71.0133 126.12 70.6533 126.747 70.4C127.373 70.1467 128.093 70.02 128.907 70.02C129.6 70.02 130.267 70.12 130.907 70.32C131.547 70.5067 132.093 70.7933 132.547 71.18L131.867 72.82C131.48 72.5 131.013 72.2467 130.467 72.06C129.933 71.8733 129.42 71.78 128.927 71.78C128.273 71.78 127.787 71.8933 127.467 72.12C127.16 72.3467 127.007 72.6467 127.007 73.02C127.007 73.6067 127.387 73.9667 128.147 74.1L130.147 74.48C131.013 74.64 131.667 74.9333 132.107 75.36C132.56 75.7867 132.787 76.36 132.787 77.08C132.787 78.0533 132.407 78.82 131.647 79.38C130.887 79.9267 129.873 80.2 128.607 80.2ZM134.972 81.42L133.092 80.86L138.272 64.8L140.152 65.36L134.972 81.42ZM140.882 79.34V77.42L148.422 74.26L140.882 71.1V69.16L150.642 73.3V75.2L140.882 79.34Z" fill="black"/>
</svg>
