<svg width="184" height="270" viewBox="0 0 184 270" fill="none" xmlns="http://www.w3.org/2000/svg">
<path d="M92.1556 261.08C146.506 230.755 167.385 135.51 89.0626 167.864C2.76995 147.373 46.679 232.343 92.1556 261.08Z" fill="url(#paint0_radial_859_862)"/>
<path d="M105.905 167.241L99.3208 166.611L100.405 154.569L106.988 155.2L105.905 167.241Z" fill="url(#paint1_linear_859_862)"/>
<path d="M77.6722 163.199L71.0884 162.54L72.1721 150.499L78.756 151.158L77.6722 163.199Z" fill="url(#paint2_linear_859_862)"/>
<path d="M98.9139 163.257C95.9606 163.142 95.0665 163.171 93.8744 163.658C92.059 164.403 90.9482 165.665 90.2166 166.496C89.4309 167.385 88.5639 168.36 88.8348 169.019C88.889 169.163 89.3225 170.367 91.7881 169.564C95.4729 168.389 97.7488 168.016 98.7513 168.188C99.2932 168.303 97.5863 169.593 96.9089 172.173C96.3128 174.352 96.7463 176.101 96.9902 177.047C97.234 177.936 97.3424 178.423 97.6946 178.538C98.5075 178.796 99.3474 176.674 101.488 174.209C103.384 172.03 104.387 170.883 105.985 170.481C107.123 170.195 107.449 170.567 112.515 171.37C114.899 171.743 115.468 171.772 115.685 171.399C116.173 170.567 114.222 168.331 112.786 167.041C112.19 166.496 110.131 164.776 106.717 163.801C105.633 163.515 103.384 163.429 98.9139 163.257Z" fill="url(#paint3_linear_859_862)"/>
<path d="M70.2215 160.963C67.2682 160.849 66.3741 160.877 65.182 161.365C63.3667 162.11 62.2558 163.371 61.5243 164.203C60.7385 165.092 59.8715 166.066 60.1425 166.726C60.1967 166.869 60.6302 168.073 63.0957 167.271C66.7805 166.095 69.0565 165.722 70.0589 165.894C70.6008 166.009 68.8939 167.299 68.2165 169.879C67.6205 172.058 68.054 173.807 68.2978 174.753C68.5417 175.642 68.65 176.129 69.0023 176.244C69.8151 176.502 70.655 174.381 72.7955 171.915C74.692 169.736 75.6945 168.589 77.2931 168.188C78.431 167.901 78.7562 168.274 83.8228 169.077C86.2071 169.449 86.7761 169.478 86.9928 169.105C87.4805 168.274 85.5297 166.038 84.0937 164.748C83.4977 164.203 81.4385 162.483 78.0246 161.508C76.9409 161.221 74.692 161.135 70.2215 160.963Z" fill="url(#paint4_linear_859_862)"/>
<path d="M102.084 137.11C99.8083 142.787 104.17 149.868 108.126 156.29C108.316 156.577 108.912 157.551 109.833 158.698C111.621 160.906 114.656 164.661 117.013 163.859C118.666 163.285 119.885 160.504 119.804 158.526C119.777 158.067 119.695 157.437 119.777 157.437C119.939 157.408 120.427 159.358 120.888 160.504C122.107 163.572 125.602 166.812 129.585 166.898C133.812 166.984 136.656 163.457 136.954 163.113C141.073 157.867 139.312 149.151 135.762 143.991C133.947 141.324 131.942 140.006 129.206 138.257C123.028 134.3 110.158 128.423 104.116 134.186C103.737 134.472 102.734 135.476 102.084 137.11Z" fill="#726658"/>
<path d="M61.4702 73.1195C57.7854 72.0874 53.1523 75.7571 44.8073 82.4372C38.6027 87.397 35.2701 90.0346 32.9129 95.0518C27.8463 105.803 31.9646 117.3 33.1839 120.711C34.3489 123.951 36.9229 130.889 43.7777 136.336C45.3763 137.626 55.0489 145.281 61.6057 142.644C76.67 136.566 74.2045 76.6745 61.4702 73.1195Z" fill="url(#paint5_linear_859_862)"/>
<path d="M99.6729 77.9646C99.3748 77.2479 98.9142 76.1584 98.2369 74.8969L108.235 74.9543L109.887 74.5242C111.242 73.6928 112.163 72.7754 112.732 72.1446C113.328 71.4566 116.038 68.3029 115.604 64.1745C115.469 62.8843 115.062 61.9095 114.791 61.3362L113.057 58.8992C113.328 58.2112 117.284 47.9187 112.136 41.5254C111.432 40.6366 110.375 39.6332 108.858 38.8018C108.858 38.8018 115.439 38.9836 114.791 37.4978C114.466 36.7524 105.139 36.7421 103.986 34.2291C101.618 29.0659 99.5645 30.7169 96.9905 30.0575C94.4166 29.4268 93.1974 29.7995 93.1974 29.7995C93.1974 29.7995 96.6383 27.3032 96.9905 25.6117C97.3428 23.9202 87.2637 26.8178 83.6873 27.6206C80.1109 28.4233 77.9162 31.2903 77.9162 31.2903C77.9162 31.2903 81.3464 24.1127 79.9917 22.9372C78.637 21.7618 75.1798 28.882 70.6279 28.7674C66.0761 28.6527 56.8641 32.3797 50.4969 37.913C44.1027 43.4749 47.0831 54.3121 47.0831 54.3121L47.5979 60.304C47.2456 60.5621 44.1027 63.1424 44.4007 66.554C44.6717 69.507 47.4082 71.1699 49.5215 72.46C51.96 73.9508 54.3985 74.4669 56.3222 74.6102C54.9133 76.1011 52.9896 78.1939 50.3615 81.0609C44.3465 87.5689 41.3933 90.866 40.0657 92.9015C32.1 105 36.5434 121.858 37.0311 123.721C37.0311 123.721 37.8439 133.785 50.6595 145.195C53.5044 147.718 63.2854 152.047 65.2091 152.707C73.6354 155.574 104.441 158.785 112.597 156.778C119.099 155.201 127.363 153.165 130.371 148.607C139.528 134.845 115.496 116.353 99.6729 77.9646Z" fill="url(#paint6_linear_859_862)"/>
<path d="M60.4137 84.0137C60.4408 85.1605 60.1969 86.1066 59.8989 86.9953C59.5737 87.8841 59.1402 88.6582 58.6525 89.3749C58.1378 90.0916 57.5417 90.751 56.8372 91.3244C56.1057 91.8692 55.3471 92.3852 54.2633 92.6719C54.2362 91.5251 54.4801 90.579 54.7781 89.6903C55.1032 88.8015 55.5367 88.0274 56.0515 87.3107C56.5663 86.5939 57.1624 85.9345 57.8668 85.3611C58.5713 84.7877 59.357 84.3004 60.4137 84.0137Z" fill="white"/>
<path d="M66.9977 96.686C67.3228 97.9188 67.3228 99.037 67.2415 100.126C67.1603 101.216 66.9164 102.248 66.6184 103.251C66.2932 104.255 65.8868 105.201 65.3179 106.118C64.7489 107.036 64.0986 107.925 63.1503 108.67C62.8252 107.437 62.8252 106.319 62.9065 105.23C62.9878 104.14 63.2316 103.108 63.5296 102.105C63.8548 101.101 64.2612 100.155 64.8302 99.2376C65.3991 98.3202 66.0223 97.4314 66.9977 96.686Z" fill="white"/>
<path d="M79.4606 84.5298C79.9212 85.6192 80.0838 86.6227 80.1379 87.6261C80.1921 88.6296 80.0838 89.5757 79.8941 90.5218C79.7044 91.4679 79.4064 92.3853 78.9729 93.2454C78.5394 94.1342 77.9975 94.9942 77.1576 95.7683C76.6699 94.6789 76.5344 93.6754 76.4803 92.672C76.4261 91.6686 76.5345 90.7225 76.7241 89.7764C76.9138 88.8303 77.2118 87.9128 77.6453 87.0527C78.0788 86.164 78.6207 85.3039 79.4606 84.5298Z" fill="white"/>
<path d="M46.1892 96.9727C46.5414 98.0621 46.5956 99.0082 46.5414 99.9543C46.4872 100.872 46.2975 101.76 46.0266 102.621C45.7557 103.452 45.3763 104.283 44.8616 105.029C44.3468 105.774 43.7507 106.52 42.8024 107.122C42.4502 106.032 42.396 105.086 42.4502 104.14C42.5044 103.223 42.694 102.334 42.965 101.474C43.2359 100.642 43.6152 99.811 44.13 99.0655C44.6719 98.3201 45.268 97.5747 46.1892 96.9727Z" fill="white"/>
<path d="M87.237 96.2271C87.9685 97.4312 88.3479 98.6353 88.6459 99.8681C88.9168 101.101 89.0794 102.305 89.1065 103.538C89.1607 104.771 89.0794 106.003 88.8897 107.236C88.673 108.469 88.3749 109.73 87.7247 110.963C86.9931 109.759 86.6138 108.555 86.3158 107.322C86.0448 106.089 85.8823 104.885 85.8552 103.652C85.8281 102.42 85.8823 101.187 86.0719 99.9541C86.3158 98.75 86.6138 97.4885 87.237 96.2271Z" fill="white"/>
<path d="M70.0319 77.8213C70.4383 78.5954 70.5467 79.2261 70.5738 79.7995C70.6009 80.3729 70.4654 80.8889 70.2757 81.3477C70.059 81.8064 69.7609 82.2364 69.3545 82.6091C68.921 82.9532 68.4062 83.2685 67.5663 83.4405C67.1599 82.6665 67.0515 82.0357 67.0244 81.4623C67.0244 80.8889 67.1328 80.3729 67.3225 79.9142C67.5392 79.4555 67.8372 79.0254 68.2707 78.6814C68.7043 78.3087 69.219 77.9933 70.0319 77.8213Z" fill="white"/>
<path d="M58.0562 76.7031C58.0562 77.7352 57.8123 78.538 57.4872 79.2547C57.1621 79.9715 56.7557 80.6022 56.268 81.1469C55.7803 81.6917 55.2113 82.1504 54.5339 82.5231C53.8566 82.8671 53.125 83.1825 52.1226 83.2112C52.1226 82.179 52.3664 81.3763 52.6915 80.6595C53.0167 79.9428 53.4231 79.3121 53.9108 78.7673C54.3985 78.2226 54.9674 77.7639 55.6448 77.3912C56.3222 77.0472 57.0537 76.7605 58.0562 76.7031Z" fill="white"/>
<path d="M87.7787 77.6206C88.5644 77.9073 89.025 78.3087 89.4314 78.7101C89.8107 79.1401 90.0546 79.5988 90.1901 80.0862C90.3255 80.5736 90.3797 81.1183 90.2713 81.6631C90.163 82.2364 89.9733 82.8385 89.4585 83.5266C88.6728 83.2399 88.1851 82.8385 87.8058 82.4371C87.4265 82.0071 87.1826 81.5484 87.0471 81.061C86.9117 80.5736 86.8575 80.0289 86.9659 79.4841C87.1013 78.9394 87.291 78.3374 87.7787 77.6206Z" fill="white"/>
<path d="M78.3219 59.4058C77.4708 63.9358 74.2418 66.9749 71.138 66.2008C68.0091 65.4267 66.1819 61.1261 67.0329 56.5961C67.884 52.0661 71.113 49.027 74.2168 49.8011C77.3207 50.5752 79.1729 54.8758 78.3219 59.4058Z" fill="url(#paint7_linear_859_862)"/>
<path d="M120.834 68.9047C122.486 69.0194 123.922 69.3921 124.274 69.5068C125.223 69.7648 127.715 71.1409 131.427 73.1191C144.731 80.2579 152.859 93.4747 155.27 97.4884C160.77 106.634 168.926 119.736 164.862 132.236C164.13 134.501 160.879 144.507 154.539 145.625C153.428 145.826 152.534 145.682 152.019 145.596C130.615 142.041 116.715 128.079 116.715 128.079C113.464 124.811 106.121 117.299 101.759 105C99.673 99.1513 95.934 89.2602 100.215 81.204C100.974 79.7705 101.732 78.8531 102.626 77.7923C107.043 72.5457 114.006 68.3886 120.834 68.9047Z" fill="#9B8579"/>
<path d="M100.242 53.3084L118.991 53.5091C119.424 53.5091 119.804 53.0504 119.804 52.477L119.831 48.0332C119.831 47.4311 119.452 46.9437 118.991 46.9724L100.242 48.2912C99.8083 48.3199 99.4832 48.7786 99.4832 49.3233L99.4561 52.2763C99.429 52.821 99.7812 53.3084 100.242 53.3084Z" fill="#594A42"/>
<path d="M86.8576 84.5012C84.2566 89.547 84.8798 94.6789 85.4758 99.5528C86.1532 105.115 87.8601 108.842 90.5695 114.547C92.3578 118.331 100.621 135.877 105.58 134.473C106.176 134.3 106.907 133.813 107.585 132.408C109.806 136.049 112.191 138.486 113.871 140.006C115.875 141.812 119.1 144.249 123.516 145.74C125.223 146.313 129.314 147.689 130.506 146.026C130.831 145.568 130.859 144.994 130.831 144.564C131.915 145.74 133.595 147.173 135.898 147.718C141.886 149.123 148.036 143.503 150.637 138.114C152.398 134.501 152.696 130.573 152.1 125.585C149.906 107.81 138.093 95.0803 134.164 90.9805C125.169 81.5195 115.334 76.0149 107.341 72.7466C106.962 72.7753 106.447 72.8613 105.824 72.9473C103.683 73.2626 91.6533 75.2122 86.8576 84.5012Z" fill="url(#paint8_linear_859_862)"/>
<path d="M60.5211 63.4703C60.1147 63.2696 60.6619 60.0501 61.6915 57.5272C62.6398 55.2336 64.6448 53.3822 66.6227 52.0921C67.1917 51.7194 69.0341 50.6299 71.2829 50.9166C71.7435 50.974 71.9874 51.0026 72.3396 51.1747C74.8052 52.3215 75.5367 57.31 74.3175 58.6288C74.1549 58.8008 73.6401 59.2595 73.5046 60.0336C73.4504 60.3776 73.5046 60.6357 73.5046 60.7504C73.6672 61.9831 72.8002 64.5061 71.7164 64.7068C70.9849 64.8501 70.8494 63.8754 68.8173 62.4992C67.2188 61.4098 66.135 61.2377 65.6744 61.1804C65.1867 61.1231 64.5906 61.0657 63.9133 61.2951C62.5586 61.7538 60.8191 63.5849 60.5211 63.4703Z" fill="black"/>
<path d="M65.7239 147.804C64.6131 150.126 67.2954 154.025 69.5713 155.889C72.5788 158.383 76.9138 158.985 80.4632 157.035C82.8204 155.745 86.0988 152.62 85.4756 150.126C84.2293 145.109 67.8915 143.245 65.7239 147.804Z" fill="#B3A38E"/>
<path d="M93.387 150.499C92.2762 152.821 94.9585 156.72 97.2344 158.584C100.242 161.078 104.577 161.68 108.126 159.731C110.483 158.441 113.762 155.316 113.139 152.821C111.892 147.833 95.5546 145.969 93.387 150.499Z" fill="#B3A38E"/>
<path d="M71.5059 59.7842C72.5463 59.6684 74.1069 59.3597 75.765 58.4335C76.6429 57.9318 77.3907 57.3529 77.9434 56.8126" stroke="black" stroke-width="2" stroke-miterlimit="10"/>
<path d="M94.3296 54.138C94.3296 57.9126 91.9715 55.9209 89.0625 55.9209C86.1536 55.9209 83.7954 57.9126 83.7954 54.138C83.7954 50.3634 84.3806 44.0347 89.3551 44.0347C93.7444 44.0347 94.3296 50.3634 94.3296 54.138Z" fill="white"/>
<path d="M60.3863 54.4353C60.3863 58.2099 58.0281 56.2183 55.1192 56.2183C52.2102 56.2183 49.8521 58.2099 49.8521 54.4353C49.8521 50.6607 50.4373 44.332 55.4118 44.332C59.801 44.332 60.3863 50.6607 60.3863 54.4353Z" fill="white"/>
<path d="M59.216 52.9463C59.216 56.5551 56.9276 54.9883 54.8267 54.9883C52.7258 54.9883 51.6079 56.5551 51.6079 52.9463C51.6079 49.3376 53.311 46.4121 55.4119 46.4121C57.5128 46.4121 59.216 49.3376 59.216 52.9463Z" fill="black"/>
<path d="M93.1593 52.649C93.1593 56.2577 90.871 54.6909 88.7701 54.6909C86.6692 54.6909 85.5513 56.2577 85.5513 52.649C85.5513 49.0402 87.2544 46.1147 89.3553 46.1147C91.4562 46.1147 93.1593 49.0402 93.1593 52.649Z" fill="black"/>
<path d="M35.3677 61.6141C44.2955 50.7479 40.9833 29.0801 27.2026 42.3647C7.49213 45.2534 23.5335 59.3828 35.3677 61.6141Z" fill="#FF004D"/>
<path d="M61.336 24.3899C64.4005 20.6601 63.2636 13.2226 58.5333 17.7825C51.7677 18.7741 57.2739 23.624 61.336 24.3899Z" fill="#FF5286"/>
<path d="M39.5417 33.1896C47.0461 32.1105 53.4896 22.1403 43.1586 22.3984C34.1675 16.2657 35.5674 27.9072 39.5417 33.1896Z" fill="#FF2F6D"/>
<defs>
<radialGradient id="paint0_radial_859_862" cx="0" cy="0" r="1" gradientUnits="userSpaceOnUse" gradientTransform="translate(84.3809 191.126) rotate(49.7705) scale(57.9933 59.1792)">
<stop stop-color="#FF3672"/>
<stop offset="1" stop-color="#FF004D"/>
</radialGradient>
<linearGradient id="paint1_linear_859_862" x1="99.3317" y1="160.906" x2="106.985" y2="160.906" gradientUnits="userSpaceOnUse">
<stop stop-color="#C2B59B"/>
<stop offset="1" stop-color="#F3EA18"/>
</linearGradient>
<linearGradient id="paint2_linear_859_862" x1="71.0919" y1="156.841" x2="78.7452" y2="156.841" gradientUnits="userSpaceOnUse">
<stop stop-color="#C2B59B"/>
<stop offset="1" stop-color="#F3EA18"/>
</linearGradient>
<linearGradient id="paint3_linear_859_862" x1="88.7717" y1="170.863" x2="115.773" y2="170.863" gradientUnits="userSpaceOnUse">
<stop stop-color="#C2B59B"/>
<stop offset="1" stop-color="#F3EA18"/>
</linearGradient>
<linearGradient id="paint4_linear_859_862" x1="60.0788" y1="168.58" x2="87.0802" y2="168.58" gradientUnits="userSpaceOnUse">
<stop stop-color="#C2B59B"/>
<stop offset="1" stop-color="#F3EA18"/>
</linearGradient>
<linearGradient id="paint5_linear_859_862" x1="32.7962" y1="137.407" x2="51.4367" y2="116.478" gradientUnits="userSpaceOnUse">
<stop stop-color="#C2B59B"/>
<stop offset="1" stop-color="#9B8579"/>
</linearGradient>
<linearGradient id="paint6_linear_859_862" x1="83.8545" y1="127.909" x2="85.5932" y2="45.3302" gradientUnits="userSpaceOnUse">
<stop stop-color="#C2B59B"/>
<stop offset="1" stop-color="#9B8579"/>
</linearGradient>
<linearGradient id="paint7_linear_859_862" x1="66.1643" y1="64.2589" x2="71.7215" y2="60.8163" gradientUnits="userSpaceOnUse">
<stop stop-color="#C2B59B"/>
<stop offset="1" stop-color="#F3EA18"/>
</linearGradient>
<linearGradient id="paint8_linear_859_862" x1="150.816" y1="161.32" x2="95.7358" y2="86.2996" gradientUnits="userSpaceOnUse">
<stop stop-color="#C2B59B"/>
<stop offset="1" stop-color="#9B8579"/>
</linearGradient>
</defs>
</svg>
