<?xml version="1.0" encoding="utf-8"?>
<!-- Generator: Adobe Illustrator 25.4.1, SVG Export Plug-In . SVG Version: 6.00 Build 0)  -->
<svg version="1.1" id="Layer_1" xmlns="http://www.w3.org/2000/svg" xmlns:xlink="http://www.w3.org/1999/xlink" x="0px" y="0px"
	 viewBox="0 0 1224 792" style="enable-background:new 0 0 1224 792;" xml:space="preserve">
<style type="text/css">
	.st0{fill:#272D6F;}
</style>
<g>
	<g>
		<polygon class="st0" points="38.41,53.11 44.3,53.11 56.03,94.47 72.48,53.11 73.67,53.11 89.93,94.47 101.86,53.11 107.71,53.11 
			91.21,110.51 90.15,110.51 73.11,67.08 55.75,110.51 54.68,110.51 38.41,53.11 		"/>
		<polygon class="st0" points="120.62,53.11 126.35,53.11 126.35,110.51 120.62,110.51 120.62,53.11 		"/>
		<polygon class="st0" points="144.28,53.11 150.02,53.11 150.02,104.97 172.1,104.97 172.1,110.51 144.28,110.51 144.28,53.11 		
			"/>
		<polygon class="st0" points="184.65,53.11 213.4,53.11 213.4,58.73 190.38,58.73 190.38,76.72 213.4,76.72 213.4,82.34 
			190.38,82.34 190.38,110.51 184.65,110.51 184.65,53.11 		"/>
		<path class="st0" d="M232.73,58.73v19.51l9.89,0.08c3.83,0,6.66-0.37,8.5-1.09c1.84-0.73,3.27-1.89,4.3-3.49
			c1.03-1.6,1.54-3.39,1.54-5.36c0-1.93-0.52-3.67-1.56-5.25c-1.04-1.57-2.41-2.7-4.11-3.37c-1.69-0.68-4.51-1.01-8.44-1.01H232.73
			L232.73,58.73z M227,53.11h11.43c6.37,0,10.69,0.26,12.96,0.78c3.41,0.78,6.18,2.45,8.31,5.02s3.2,5.72,3.2,9.47
			c0,3.13-0.74,5.87-2.21,8.24c-1.47,2.37-3.57,4.16-6.3,5.37c-2.73,1.21-6.51,1.83-11.32,1.86l20.64,26.65h-7.1l-20.64-26.65h-3.24
			v26.65H227V53.11L227,53.11z"/>
		<polygon class="st0" points="278.04,53.11 283.78,53.11 283.78,110.51 278.04,110.51 278.04,53.11 		"/>
		<path class="st0" d="M307.21,105.09h6.63c7.94,0,13.44-0.5,16.51-1.48c4.31-1.4,7.71-3.93,10.18-7.58
			c2.47-3.65,3.7-8.12,3.7-13.39c0-5.54-1.34-10.27-4.01-14.19c-2.68-3.92-6.41-6.61-11.2-8.07c-3.59-1.09-9.51-1.64-17.75-1.64
			h-4.06V105.09L307.21,105.09z M301.71,110.51v-57.4h11.9c8.58,0,14.82,0.69,18.69,2.07c5.56,1.95,9.92,5.33,13.05,10.14
			c3.13,4.81,4.7,10.55,4.7,17.21c0,5.75-1.24,10.81-3.73,15.18c-2.48,4.37-5.71,7.6-9.68,9.68c-3.96,2.08-9.53,3.12-16.68,3.12
			H301.71L301.71,110.51z"/>
		<polygon class="st0" points="391.29,53.11 397.03,53.11 397.03,104.97 419.11,104.97 419.11,110.51 391.29,110.51 391.29,53.11 		
			"/>
		<path class="st0" d="M457,65.31l-9.83,20.78h19.62L457,65.31L457,65.31z M457.73,53.11l26.77,57.4h-6.2l-9.03-18.89h-24.72
			l-8.94,18.89h-6.4l27.12-57.4H457.73L457.73,53.11z"/>
		<path class="st0" d="M494.42,53.11h5.74v34.65c0,4.11,0.08,6.67,0.23,7.69c0.29,2.26,0.95,4.16,1.99,5.68
			c1.04,1.52,2.64,2.8,4.8,3.82c2.16,1.03,4.33,1.54,6.51,1.54c1.9,0,3.72-0.4,5.46-1.21c1.74-0.81,3.2-1.92,4.37-3.36
			c1.17-1.43,2.03-3.16,2.58-5.19c0.39-1.46,0.58-4.45,0.58-8.97V53.11h5.73v34.65c0,5.12-0.5,9.26-1.5,12.43
			c-1,3.16-3.01,5.91-6.01,8.25c-3,2.34-6.64,3.51-10.91,3.51c-4.63,0-8.6-1.11-11.9-3.32c-3.3-2.21-5.51-5.14-6.63-8.78
			c-0.7-2.24-1.05-6.27-1.05-12.09V53.11L494.42,53.11z"/>
		<path class="st0" d="M556.66,58.73v19.51l9.89,0.08c3.83,0,6.67-0.37,8.5-1.09c1.84-0.73,3.27-1.89,4.3-3.49
			c1.03-1.6,1.54-3.39,1.54-5.36c0-1.93-0.52-3.67-1.56-5.25c-1.04-1.57-2.41-2.7-4.1-3.37c-1.69-0.68-4.51-1.01-8.44-1.01H556.66
			L556.66,58.73z M550.92,53.11h11.43c6.37,0,10.69,0.26,12.96,0.78c3.4,0.78,6.18,2.45,8.31,5.02c2.13,2.57,3.2,5.72,3.2,9.47
			c0,3.13-0.73,5.87-2.2,8.24c-1.47,2.37-3.57,4.16-6.3,5.37c-2.73,1.21-6.51,1.83-11.32,1.86l20.64,26.65h-7.1L559.9,83.86h-3.24
			v26.65h-5.74V53.11L550.92,53.11z"/>
		<polygon class="st0" points="601.97,53.11 607.7,53.11 607.7,110.51 601.97,110.51 601.97,53.11 		"/>
		<polygon class="st0" points="625.67,53.11 658.56,53.11 658.56,58.73 631.41,58.73 631.41,76.72 658.33,76.72 658.33,82.34 
			631.41,82.34 631.41,104.89 658.33,104.89 658.33,110.51 625.67,110.51 625.67,53.11 		"/>
		<path class="st0" d="M679.03,58.73v19.51l9.89,0.08c3.83,0,6.67-0.37,8.5-1.09c1.84-0.73,3.27-1.89,4.3-3.49
			c1.03-1.6,1.54-3.39,1.54-5.36c0-1.93-0.52-3.67-1.56-5.25c-1.05-1.57-2.41-2.7-4.11-3.37c-1.69-0.68-4.51-1.01-8.44-1.01H679.03
			L679.03,58.73z M673.3,53.11h11.43c6.37,0,10.69,0.26,12.96,0.78c3.41,0.78,6.18,2.45,8.31,5.02c2.13,2.57,3.2,5.72,3.2,9.47
			c0,3.13-0.73,5.87-2.2,8.24c-1.47,2.37-3.57,4.16-6.3,5.37c-2.74,1.21-6.51,1.83-11.32,1.86l20.64,26.65h-7.1l-20.64-26.65h-3.24
			v26.65h-5.73V53.11L673.3,53.11z"/>
		<path class="st0" d="M751.79,53.11h5.73v34.65c0,4.11,0.08,6.67,0.24,7.69c0.29,2.26,0.95,4.16,1.99,5.68
			c1.04,1.52,2.64,2.8,4.8,3.82c2.16,1.03,4.33,1.54,6.51,1.54c1.9,0,3.72-0.4,5.46-1.21c1.74-0.81,3.2-1.92,4.37-3.36
			c1.17-1.43,2.03-3.16,2.58-5.19c0.38-1.46,0.58-4.45,0.58-8.97V53.11h5.73v34.65c0,5.12-0.5,9.26-1.5,12.43
			c-1,3.16-3.01,5.91-6.01,8.25c-3.01,2.34-6.64,3.51-10.91,3.51c-4.63,0-8.6-1.11-11.9-3.32c-3.3-2.21-5.52-5.14-6.63-8.78
			c-0.7-2.24-1.05-6.27-1.05-12.09V53.11L751.79,53.11z"/>
		<polygon class="st0" points="808.18,110.51 808.18,53.11 809.43,53.11 847.64,97.11 847.64,53.11 853.29,53.11 853.29,110.51 
			852,110.51 814.11,67.05 814.11,110.51 808.18,110.51 		"/>
		<polygon class="st0" points="871.23,53.11 876.97,53.11 876.97,110.51 871.23,110.51 871.23,53.11 		"/>
		<polygon class="st0" points="889.35,53.11 895.6,53.11 914.62,97.45 933.95,53.11 940.2,53.11 915.22,110.51 913.97,110.51 
			889.35,53.11 		"/>
		<polygon class="st0" points="953.03,53.11 985.93,53.11 985.93,58.73 958.77,58.73 958.77,76.72 985.69,76.72 985.69,82.34 
			958.77,82.34 958.77,104.89 985.69,104.89 985.69,110.51 953.03,110.51 953.03,53.11 		"/>
		<path class="st0" d="M1006.39,58.73v19.51l9.89,0.08c3.83,0,6.66-0.37,8.5-1.09c1.84-0.73,3.27-1.89,4.3-3.49
			c1.03-1.6,1.55-3.39,1.55-5.36c0-1.93-0.52-3.67-1.56-5.25c-1.05-1.57-2.41-2.7-4.11-3.37c-1.69-0.68-4.51-1.01-8.44-1.01H1006.39
			L1006.39,58.73z M1000.65,53.11h11.43c6.37,0,10.69,0.26,12.95,0.78c3.41,0.78,6.18,2.45,8.31,5.02c2.13,2.57,3.2,5.72,3.2,9.47
			c0,3.13-0.73,5.87-2.2,8.24c-1.47,2.37-3.57,4.16-6.3,5.37c-2.73,1.21-6.5,1.83-11.32,1.86l20.64,26.65h-7.09l-20.64-26.65h-3.24
			v26.65h-5.74V53.11L1000.65,53.11z"/>
		<path class="st0" d="M1045.99,99.82l4.88-2.93c3.43,6.32,7.4,9.48,11.9,9.48c1.92,0,3.73-0.45,5.43-1.34
			c1.69-0.9,2.98-2.1,3.86-3.61c0.88-1.51,1.33-3.11,1.33-4.8c0-1.92-0.65-3.81-1.95-5.66c-1.8-2.55-5.08-5.62-9.84-9.21
			c-4.78-3.61-7.76-6.23-8.93-7.84c-2.03-2.7-3.05-5.63-3.05-8.78c0-2.5,0.6-4.77,1.8-6.83c1.2-2.05,2.88-3.67,5.05-4.86
			c2.17-1.18,4.53-1.78,7.08-1.78c2.7,0,5.23,0.67,7.58,2.01c2.35,1.34,4.85,3.8,7.47,7.39l-4.68,3.55c-2.15-2.86-4-4.75-5.52-5.66
			c-1.52-0.91-3.18-1.37-4.98-1.37c-2.32,0-4.21,0.7-5.68,2.11c-1.47,1.41-2.21,3.14-2.21,5.19c0,1.25,0.26,2.46,0.79,3.63
			c0.52,1.17,1.46,2.44,2.85,3.82c0.75,0.73,3.22,2.64,7.41,5.73c4.97,3.67,8.38,6.93,10.22,9.8c1.85,2.86,2.77,5.73,2.77,8.62
			c0,4.16-1.58,7.78-4.74,10.85c-3.17,3.07-7,4.61-11.53,4.61c-3.49,0-6.65-0.93-9.48-2.79C1051,107.3,1048.38,104.19,1045.99,99.82
			L1045.99,99.82z"/>
		<polygon class="st0" points="1094.79,53.11 1100.53,53.11 1100.53,110.51 1094.79,110.51 1094.79,53.11 		"/>
		<polygon class="st0" points="1112.25,58.73 1112.25,53.11 1143.7,53.11 1143.7,58.73 1130.9,58.73 1130.9,110.51 1125.05,110.51 
			1125.05,58.73 1112.25,58.73 		"/>
		<polygon class="st0" points="1153.66,53.11 1160.25,53.11 1174.94,76.78 1189.4,53.11 1196.03,53.11 1177.84,83.08 
			1177.84,110.51 1172.19,110.51 1172.19,83.08 1153.66,53.11 		"/>
		<path class="st0" d="M138.44,185.37l-25.48,22.49c-8.95-12.45-18.06-18.68-27.33-18.68c-4.51,0-8.21,1.21-11.08,3.62
			c-2.87,2.42-4.31,5.14-4.31,8.17c0,3.03,1.03,5.9,3.08,8.6c2.79,3.6,11.2,11.35,25.23,23.23c13.13,10.98,21.09,17.9,23.88,20.77
			c6.97,7.05,11.92,13.78,14.83,20.21c2.91,6.43,4.37,13.45,4.37,21.08c0,14.83-5.13,27.08-15.38,36.74
			c-10.25,9.67-23.62,14.5-40.1,14.5c-12.87,0-24.09-3.15-33.65-9.46c-9.55-6.31-17.74-16.22-24.54-29.74l28.92-17.45
			c8.7,15.98,18.71,23.96,30.03,23.96c5.91,0,10.87-1.72,14.89-5.16c4.02-3.44,6.03-7.41,6.03-11.92c0-4.09-1.52-8.19-4.55-12.29
			c-3.04-4.1-9.73-10.37-20.06-18.8c-19.7-16.06-32.42-28.45-38.16-37.17c-5.74-8.72-8.62-17.43-8.62-26.11
			c0-12.54,4.78-23.29,14.33-32.26c9.55-8.97,21.35-13.45,35.37-13.45c9.02,0,17.62,2.09,25.78,6.27
			C120.09,166.69,128.93,174.31,138.44,185.37L138.44,185.37z"/>
		<polygon class="st0" points="157.13,160.79 257.04,160.79 257.04,194.71 224.1,194.71 224.1,341.55 189.21,341.55 189.21,194.71 
			157.13,194.71 157.13,160.79 		"/>
		<path class="st0" d="M277.69,160.79h34.53v116.89c0,10.07,0.88,17.19,2.64,21.37c1.76,4.17,4.67,7.51,8.72,10.01
			c4.06,2.5,8.95,3.74,14.69,3.74c6.06,0,11.29-1.39,15.67-4.17c4.38-2.78,7.41-6.32,9.09-10.62c1.68-4.3,2.52-12.5,2.52-24.62
			V160.79h34.53v107.77c0,18.18-1.03,30.8-3.07,37.85c-2.05,7.05-5.96,13.85-11.73,20.4c-5.78,6.56-12.44,11.41-19.97,14.56
			c-7.54,3.15-16.3,4.73-26.3,4.73c-13.11,0-24.51-3.01-34.22-9.03c-9.71-6.02-16.65-13.56-20.83-22.61
			c-4.18-9.05-6.27-24.35-6.27-45.9V160.79L277.69,160.79z"/>
		<path class="st0" d="M474.18,193.97v114.04h15.97c15.73,0,27.14-1.81,34.23-5.41c7.08-3.61,12.88-9.68,17.39-18.21
			c4.51-8.53,6.76-19.02,6.76-31.49c0-19.19-5.37-34.08-16.1-44.66c-9.67-9.51-25.19-14.27-46.57-14.27H474.18L474.18,193.97z
			 M440.02,160.79h40.76c26.28,0,45.8,3.25,58.56,9.77c12.77,6.51,23.29,17.1,31.56,31.77c8.27,14.66,12.4,31.78,12.4,51.36
			c0,13.93-2.31,26.73-6.93,38.4c-4.63,11.68-11.01,21.36-19.16,29.06c-8.15,7.7-16.96,13.03-26.46,15.98
			c-9.49,2.95-25.95,4.42-49.35,4.42h-41.38V160.79L440.02,160.79z"/>
		<polygon class="st0" points="615.33,160.79 714.01,160.79 714.01,194.46 649.49,194.46 649.49,227.15 714.01,227.15 
			714.01,260.21 649.49,260.21 649.49,307.76 714.01,307.76 714.01,341.55 615.33,341.55 615.33,160.79 		"/>
		<polygon class="st0" points="749.82,160.79 782.83,160.79 860.17,279.74 860.17,160.79 894.58,160.79 894.58,341.55 
			861.48,341.55 784.23,222.97 784.23,341.55 749.82,341.55 749.82,160.79 		"/>
		<polygon class="st0" points="915.69,160.79 1015.59,160.79 1015.59,194.71 982.66,194.71 982.66,341.55 947.76,341.55 
			947.76,194.71 915.69,194.71 915.69,160.79 		"/>
		<path class="st0" d="M1135.54,185.37l-25.49,22.49c-8.95-12.45-18.05-18.68-27.33-18.68c-4.51,0-8.21,1.21-11.08,3.62
			c-2.87,2.42-4.31,5.14-4.31,8.17c0,3.03,1.03,5.9,3.08,8.6c2.79,3.6,11.2,11.35,25.23,23.23c13.13,10.98,21.09,17.9,23.89,20.77
			c6.97,7.05,11.92,13.78,14.83,20.21c2.91,6.43,4.37,13.45,4.37,21.08c0,14.83-5.12,27.08-15.38,36.74
			c-10.25,9.67-23.62,14.5-40.1,14.5c-12.88,0-24.09-3.15-33.64-9.46c-9.56-6.31-17.74-16.22-24.54-29.74l28.92-17.45
			c8.7,15.98,18.71,23.96,30.03,23.96c5.91,0,10.87-1.72,14.9-5.16c4.02-3.44,6.03-7.41,6.03-11.92c0-4.09-1.52-8.19-4.55-12.29
			c-3.04-4.1-9.73-10.37-20.06-18.8c-19.7-16.06-32.42-28.45-38.16-37.17c-5.74-8.72-8.62-17.43-8.62-26.11
			c0-12.54,4.77-23.29,14.33-32.26c9.55-8.97,21.35-13.45,35.37-13.45c9.02,0,17.61,2.09,25.78,6.27
			C1117.18,166.69,1126.02,174.31,1135.54,185.37L1135.54,185.37z"/>
		<path class="st0" d="M1164.16,156.24h30.97v16.93c0,10.8-1.33,20.08-3.99,27.85c-2.66,7.77-7.15,15.78-13.45,24.04l-12.04-9.43
			c3.03-4.41,5.26-8.22,6.7-11.45c1.43-3.22,2.84-7.49,4.24-12.79h-12.41V156.24L1164.16,156.24z"/>
		<path class="st0" d="M42.35,385.28h34.53v116.89c0,10.07,0.88,17.19,2.64,21.37c1.76,4.17,4.67,7.51,8.72,10.01
			c4.06,2.49,8.95,3.74,14.69,3.74c6.06,0,11.29-1.39,15.67-4.17c4.38-2.78,7.41-6.32,9.09-10.62c1.68-4.3,2.52-12.5,2.52-24.62
			v-112.6h34.53v107.77c0,18.19-1.03,30.8-3.07,37.85c-2.05,7.05-5.96,13.85-11.73,20.4c-5.78,6.56-12.43,11.41-19.97,14.56
			c-7.54,3.15-16.3,4.73-26.3,4.73c-13.11,0-24.51-3.01-34.22-9.03c-9.71-6.02-16.65-13.56-20.83-22.61
			c-4.18-9.05-6.27-24.34-6.27-45.89V385.28L42.35,385.28z"/>
		<polygon class="st0" points="204.67,385.28 237.68,385.28 315.02,504.24 315.02,385.28 349.43,385.28 349.43,566.05 
			316.33,566.05 239.08,447.46 239.08,566.05 204.67,566.05 204.67,385.28 		"/>
		<polygon class="st0" points="389.02,385.28 423.18,385.28 423.18,566.05 389.02,566.05 389.02,385.28 		"/>
		<path class="st0" d="M547.14,414.41c-16.73,0-30.8,5.82-42.19,17.45c-11.4,11.63-17.1,26.42-17.1,44.36
			c0,19.99,7.18,35.8,21.53,47.44c11.15,9.09,23.95,13.64,38.38,13.64c16.32,0,30.22-5.89,41.7-17.69
			c11.49-11.8,17.23-26.34,17.23-43.63c0-17.21-5.79-31.76-17.35-43.69C577.77,420.37,563.71,414.41,547.14,414.41L547.14,414.41z
			 M547.51,380.74c25.58,0,47.57,9.26,65.97,27.77c18.4,18.52,27.6,41.08,27.6,67.71c0,26.38-9.08,48.7-27.23,66.98
			c-18.16,18.27-40.19,27.4-66.09,27.4c-27.14,0-49.68-9.38-67.63-28.14c-17.95-18.76-26.93-41.04-26.93-66.85
			c0-17.28,4.18-33.17,12.54-47.68c8.36-14.5,19.85-25.99,34.49-34.47C514.86,384.98,530.62,380.74,547.51,380.74L547.51,380.74z"/>
		<polygon class="st0" points="672.39,385.28 705.4,385.28 782.74,504.24 782.74,385.28 817.15,385.28 817.15,566.05 784.05,566.05 
			706.8,447.46 706.8,566.05 672.39,566.05 672.39,385.28 		"/>
		<path class="st0" d="M950.33,585.1c0,0,35.47,0,50.64-8.35c0,0-67.52,53.64-161.32,189.95c0,0,276.27-332.46,344.65-275.63
			c0,0,3.21,1.5,4.92-6.62c0,0,13.03-61.54-44.66-70.09c0,0-2.78-46.58-95.72-21.58c-76.71,20.72-106.41,56.62-241.88,57.05
			c0,0,60.9,18.59,147.01-8.12c60.69-19.02,120.94-51.07,165.81-38.68c0,0,14.74,4.7,14.53,16.46c0,0,0,1.29,3.42,1.7
			c0,0,42.95,4.5,40.17,51.71c0,0-38.46-15.6-119.87,46.8c0,0-3.63-66.24-103.62-46.8c-54.71,10.69-97.44,15.39-147.01-4.27l0,0
			l5.13,6.2l0,0c0,0,44.23,22.43,111.53,13.88c71.58-9.18,99.35-6.62,109.83,24.15c10.47,31.84-29.91,60.68-64.96,60.25
			C968.91,573.13,965.08,576.34,950.33,585.1L950.33,585.1L950.33,585.1L950.33,585.1z"/>
		<path class="st0" d="M816.57,497.7c0,0,32.05,16.89,114.74,4.92c53.85-7.7,79.49-9.62,86.97,13.03
			c10.47,30.99-34.83,44.88-34.83,44.88s41.23-37.39-17.3-43.59c-21.37-2.36-29.27-1.51-55.77-0.87
			c-47.43,1.29-81.41-8.98-88.67-12.18C821.71,503.9,818.49,500.06,816.57,497.7L816.57,497.7L816.57,497.7L816.57,497.7z"/>
		<path class="st0" d="M1124.9,417.58c-8.55,7.69-9.19,7.91-30.34,4.28c-0.22,0-0.22,0-0.42,0c-1.29-0.22-2.57-0.44-4.07-0.65
			c-25.42-4.48-35.47,8.12-35.47,8.12c2.78,0.43,6.41,1.5,9.83,3.64c3.2,1.92,0.21,2.35,0.21,2.35l0,0l-38.03,10.48l0,0
			c-3,0.85-2.79,2.35-1.51,2.56c1.08,0.43,5.77-0.64,5.77-0.64l0,0l44.23-8.77l0,0c6.63,7.91,15.81,7.48,15.81,7.48l0,0l0.43-3.85
			l0,0c-7.05-1.07-10.25-5.34-11.54-9.19c-1.07-3.41-0.43-6.41-0.43-6.41c1.92-0.21,4.49-0.21,6.62-0.21
			c-0.43,0.63-0.43,1.49-0.43,2.34c0,4.06,3.21,7.48,7.27,7.48c4.27,0,7.47-3.42,7.47-7.48c0-0.43,0-0.85,0-1.28
			c3.42,0.64,5.35,1.28,5.35,1.28c0.64,8.34-7.69,12.39-7.69,12.39l0,0l1.71,3.21l0,0c10.69-5.12,12.18-14.32,12.18-14.32
			c7.27,1.71,13.89-11.97,13.89-11.97C1127.04,415.87,1124.9,417.58,1124.9,417.58L1124.9,417.58L1124.9,417.58L1124.9,417.58z"/>
	</g>
</g>
</svg>
